<svg width="131" height="131" viewBox="0 0 131 131" fill="none" xmlns="http://www.w3.org/2000/svg">
<g clip-path="url(#clip0_312_30)">
<path d="M62.3667 66.5C62.3667 63.9762 61.5333 61.8214 59.8667 60.0357C58.2 58.25 56.1889 57.3571 53.8333 57.3571C51.4778 57.3571 49.4667 58.25 47.8 60.0357C46.1333 61.8214 45.3 63.9762 45.3 66.5C45.3 69.0238 46.1333 71.1786 47.8 72.9643C49.4667 74.75 51.4778 75.6429 53.8333 75.6429C56.1889 75.6429 58.2 74.75 59.8667 72.9643C61.5333 71.1786 62.3667 69.0238 62.3667 66.5ZM87.9667 84.7857C87.9667 83.5476 87.5444 82.4762 86.7 81.5714C85.8556 80.6667 84.8556 80.2143 83.7 80.2143C82.5444 80.2143 81.5444 80.6667 80.7 81.5714C79.8556 82.4762 79.4333 83.5476 79.4333 84.7857C79.4333 86.0476 79.85 87.125 80.6833 88.0179C81.5167 88.9107 82.5222 89.3571 83.7 89.3571C84.8778 89.3571 85.8833 88.9107 86.7167 88.0179C87.55 87.125 87.9667 86.0476 87.9667 84.7857ZM87.9667 48.2143C87.9667 46.9762 87.5444 45.9048 86.7 45C85.8556 44.0952 84.8556 43.6429 83.7 43.6429C82.5444 43.6429 81.5444 44.0952 80.7 45C79.8556 45.9048 79.4333 46.9762 79.4333 48.2143C79.4333 49.4762 79.85 50.5536 80.6833 51.4464C81.5167 52.3393 82.5222 52.7857 83.7 52.7857C84.8778 52.7857 85.8833 52.3393 86.7167 51.4464C87.55 50.5536 87.9667 49.4762 87.9667 48.2143ZM75.1667 63.25V69.8571C75.1667 70.0952 75.0889 70.3274 74.9333 70.5536C74.7778 70.7798 74.6 70.9048 74.4 70.9286L69.2333 71.7857C68.9889 72.619 68.6333 73.5238 68.1667 74.5C68.9222 75.6429 69.9222 77.0119 71.1667 78.6071C71.3222 78.869 71.4 79.1071 71.4 79.3214C71.4 79.6071 71.3222 79.8333 71.1667 80C70.6556 80.7143 69.7389 81.7798 68.4167 83.1964C67.0944 84.6131 66.2222 85.3214 65.8 85.3214C65.5556 85.3214 65.3222 85.2381 65.1 85.0714L61.2667 81.8571C60.4444 82.3095 59.5889 82.6786 58.7 82.9643C58.4556 85.5357 58.2 87.381 57.9333 88.5C57.7778 89.0714 57.4444 89.3571 56.9333 89.3571H50.7333C50.4889 89.3571 50.2667 89.2679 50.0667 89.0893C49.8667 88.9107 49.7556 88.7024 49.7333 88.4643L48.9667 83C48.2111 82.7619 47.3778 82.3929 46.4667 81.8929L42.5333 85.0714C42.3778 85.2381 42.1556 85.3214 41.8667 85.3214C41.6222 85.3214 41.3889 85.2262 41.1667 85.0357C37.9667 81.869 36.3667 79.9643 36.3667 79.3214C36.3667 79.1071 36.4444 78.881 36.6 78.6429C36.8222 78.3095 37.2778 77.6786 37.9667 76.75C38.6556 75.8214 39.1778 75.0952 39.5333 74.5714C39.0222 73.5238 38.6333 72.5476 38.3667 71.6429L33.3 70.7857C33.0778 70.7619 32.8889 70.6488 32.7333 70.4464C32.5778 70.244 32.5 70.0119 32.5 69.75V63.1429C32.5 62.9048 32.5778 62.6726 32.7333 62.4464C32.8889 62.2202 33.0667 62.0952 33.2667 62.0714L38.4333 61.2143C38.6778 60.381 39.0333 59.4762 39.5 58.5C38.7444 57.3571 37.7444 55.9881 36.5 54.3929C36.3444 54.131 36.2667 53.8929 36.2667 53.6786C36.2667 53.3929 36.3444 53.1548 36.5 52.9643C36.9889 52.25 37.9 51.1905 39.2333 49.7857C40.5667 48.381 41.4444 47.6786 41.8667 47.6786C42.1111 47.6786 42.3444 47.7619 42.5667 47.9286L46.4 51.1429C47.1556 50.7143 48.0111 50.3333 48.9667 50C49.2111 47.4286 49.4667 45.5952 49.7333 44.5C49.8889 43.9286 50.2222 43.6429 50.7333 43.6429H56.9333C57.1778 43.6429 57.4 43.7321 57.6 43.9107C57.8 44.0893 57.9111 44.2976 57.9333 44.5357L58.7 50C59.4556 50.2381 60.2889 50.6071 61.2 51.1071L65.1333 47.9286C65.3111 47.7619 65.5333 47.6786 65.8 47.6786C66.0444 47.6786 66.2778 47.7738 66.5 47.9643C69.7 51.131 71.3 53.0357 71.3 53.6786C71.3 53.869 71.2222 54.0952 71.0667 54.3571C70.8 54.7381 70.3333 55.381 69.6667 56.2857C69 57.1905 68.5 57.9048 68.1667 58.4286C68.6778 59.5714 69.0556 60.5476 69.3 61.3571L74.3667 62.1786C74.5889 62.2262 74.7778 62.3512 74.9333 62.5536C75.0889 62.756 75.1667 62.9881 75.1667 63.25ZM96.5 82.2857V87.2857C96.5 87.6667 94.8444 88.0357 91.5333 88.3929C91.2667 89.0357 90.9333 89.6548 90.5333 90.25C91.6667 92.9405 92.2333 94.5833 92.2333 95.1786C92.2333 95.2738 92.1889 95.3571 92.1 95.4286C89.3889 97.119 88.0111 97.9643 87.9667 97.9643C87.7889 97.9643 87.2778 97.4048 86.4333 96.2857C85.5889 95.1667 85.0111 94.3571 84.7 93.8571C84.2556 93.9048 83.9222 93.9286 83.7 93.9286C83.4778 93.9286 83.1444 93.9048 82.7 93.8571C82.3889 94.3571 81.8111 95.1667 80.9667 96.2857C80.1222 97.4048 79.6111 97.9643 79.4333 97.9643C79.3889 97.9643 78.0111 97.119 75.3 95.4286C75.2111 95.3571 75.1667 95.2738 75.1667 95.1786C75.1667 94.5833 75.7333 92.9405 76.8667 90.25C76.4667 89.6548 76.1333 89.0357 75.8667 88.3929C72.5556 88.0357 70.9 87.6667 70.9 87.2857V82.2857C70.9 81.9048 72.5556 81.5357 75.8667 81.1786C76.1556 80.4881 76.4889 79.869 76.8667 79.3214C75.7333 76.631 75.1667 74.9881 75.1667 74.3929C75.1667 74.2976 75.2111 74.2143 75.3 74.1429C75.3889 74.0952 75.7778 73.8571 76.4667 73.4286C77.1556 73 77.8111 72.5952 78.4333 72.2143C79.0556 71.8333 79.3889 71.6429 79.4333 71.6429C79.6111 71.6429 80.1222 72.1964 80.9667 73.3036C81.8111 74.4107 82.3889 75.2143 82.7 75.7143C83.1444 75.6667 83.4778 75.6429 83.7 75.6429C83.9222 75.6429 84.2556 75.6667 84.7 75.7143C85.8333 74.0238 86.8556 72.6905 87.7667 71.7143L87.9667 71.6429C88.0556 71.6429 89.4333 72.4762 92.1 74.1429C92.1889 74.2143 92.2333 74.2976 92.2333 74.3929C92.2333 74.9881 91.6667 76.631 90.5333 79.3214C90.9111 79.869 91.2444 80.4881 91.5333 81.1786C94.8444 81.5357 96.5 81.9048 96.5 82.2857ZM96.5 45.7143V50.7143C96.5 51.0952 94.8444 51.4643 91.5333 51.8214C91.2667 52.4643 90.9333 53.0833 90.5333 53.6786C91.6667 56.369 92.2333 58.0119 92.2333 58.6071C92.2333 58.7024 92.1889 58.7857 92.1 58.8571C89.3889 60.5476 88.0111 61.3929 87.9667 61.3929C87.7889 61.3929 87.2778 60.8333 86.4333 59.7143C85.5889 58.5952 85.0111 57.7857 84.7 57.2857C84.2556 57.3333 83.9222 57.3571 83.7 57.3571C83.4778 57.3571 83.1444 57.3333 82.7 57.2857C82.3889 57.7857 81.8111 58.5952 80.9667 59.7143C80.1222 60.8333 79.6111 61.3929 79.4333 61.3929C79.3889 61.3929 78.0111 60.5476 75.3 58.8571C75.2111 58.7857 75.1667 58.7024 75.1667 58.6071C75.1667 58.0119 75.7333 56.369 76.8667 53.6786C76.4667 53.0833 76.1333 52.4643 75.8667 51.8214C72.5556 51.4643 70.9 51.0952 70.9 50.7143V45.7143C70.9 45.3333 72.5556 44.9643 75.8667 44.6071C76.1556 43.9167 76.4889 43.2976 76.8667 42.75C75.7333 40.0595 75.1667 38.4167 75.1667 37.8214C75.1667 37.7262 75.2111 37.6429 75.3 37.5714C75.3889 37.5238 75.7778 37.2857 76.4667 36.8571C77.1556 36.4286 77.8111 36.0238 78.4333 35.6429C79.0556 35.2619 79.3889 35.0714 79.4333 35.0714C79.6111 35.0714 80.1222 35.625 80.9667 36.7321C81.8111 37.8393 82.3889 38.6429 82.7 39.1429C83.1444 39.0952 83.4778 39.0714 83.7 39.0714C83.9222 39.0714 84.2556 39.0952 84.7 39.1429C85.8333 37.4524 86.8556 36.119 87.7667 35.1429L87.9667 35.0714C88.0556 35.0714 89.4333 35.9048 92.1 37.5714C92.1889 37.6429 92.2333 37.7262 92.2333 37.8214C92.2333 38.4167 91.6667 40.0595 90.5333 42.75C90.9111 43.2976 91.2444 43.9167 91.5333 44.6071C94.8444 44.9643 96.5 45.3333 96.5 45.7143Z" fill="#FAD100"/>
</g>
<rect x="1.5" y="1.5" width="128" height="128" rx="64" stroke="#FAD100" stroke-width="2"/>
<defs>
<clipPath id="clip0_312_30">
<rect width="64" height="64" fill="white" transform="translate(32.5 34.5)"/>
</clipPath>
</defs>
</svg>
