<svg width="131" height="131" viewBox="0 0 131 131" fill="none" xmlns="http://www.w3.org/2000/svg">
<path d="M83 39.25L83.0529 74.25H80.8125L67.6875 56.75L65.5 74.25L52.375 56.75L50.1875 74.25L37.0625 56.75L34.875 74.25V96.125H96.125V39.25H91.75V74.25H87.375V39.25H83ZM39.25 78.625H45.8125V83H39.25V78.625ZM50.1875 78.625H56.75V83H50.1875V78.625ZM61.125 78.625H67.6875V83H61.125V78.625ZM72.0625 78.625H78.625V83H72.0625V78.625ZM39.25 87.375H45.8125V91.75H39.25V87.375ZM50.1875 87.375H56.75V91.75H50.1875V87.375ZM61.125 87.375H67.6875V91.75H61.125V87.375ZM72.0625 87.375H78.625V91.75H72.0625V87.375Z" fill="#FAD100"/>
<rect x="1.5" y="1.5" width="128" height="128" rx="64" stroke="#FAD100" stroke-width="2"/>
</svg>
