<svg width="131" height="131" viewBox="0 0 131 131" fill="none" xmlns="http://www.w3.org/2000/svg">
<path d="M62.6758 37.125L60.7733 41.4688C59.7885 41.5288 58.8086 41.6529 57.8399 41.84L54.9296 38.082L51.7929 39.1485L51.7773 43.9298C50.4485 44.6128 49.1751 45.4385 47.9722 46.4023L43.5391 44.4062L41.2695 46.8204L43.539 51.125C42.8149 52.1572 42.1786 53.2483 41.6368 54.3867L36.7695 54.5195L35.7812 57.6795L39.711 60.5742C39.5229 61.7467 39.431 62.9315 39.4257 64.1173L35.0625 66.3281L35.5195 69.6094L40.3086 70.5469C40.5949 71.5493 40.9499 72.5308 41.3711 73.4844L38.215 77.4025L39.9766 80.207L44.8829 79.0586C45.1933 79.4239 45.5151 79.7795 45.8476 80.1249C46.5422 80.8433 47.2821 81.5166 48.0626 82.1405L47.1095 87.0546L49.9767 88.7109L53.7227 85.4491C54.7946 85.88 55.8982 86.2273 57.0236 86.4881L58.2464 91.2889L61.547 91.5585L63.5314 87.031C64.9026 86.9485 66.2694 86.7435 67.6134 86.4137L70.7659 90.0662L73.84 88.8358L73.75 86.9841L66.5742 81.5429C64.4852 82.071 62.319 82.2124 60.1914 81.9724C56.2221 81.5249 52.4076 79.7324 49.4141 76.6366C42.5719 69.5599 42.7675 58.3029 49.8439 51.4609C53.2714 48.1467 57.6801 46.4655 62.0939 46.4179C66.7926 46.3671 71.4956 48.1674 75.0236 51.8162C80.7655 57.7552 81.5481 66.6894 77.4689 73.4531L81.4651 76.4844C81.962 75.7052 82.4107 74.8964 82.8089 74.0625L87.6408 73.9296L88.629 70.7696L84.7269 67.8946C84.9151 66.7125 85.0104 65.5174 85.0119 64.3204L89.3479 62.1173L88.891 58.836L84.106 57.8985C83.7034 56.5124 83.1697 55.1678 82.5122 53.8829L85.3635 49.9336L83.4572 47.2265L78.7622 48.5898C78.7032 48.5273 78.646 48.4639 78.5863 48.4023C77.8473 47.6376 77.0563 46.9249 76.2191 46.2692L77.1176 41.6286L74.25 39.9725L70.6875 43.0743C69.5343 42.6101 68.3498 42.2489 67.1484 41.9805L65.9805 37.3945L62.6758 37.125ZM55.4062 56.3125C54.1133 56.3273 52.8316 56.6447 51.6562 57.2225L57.3088 61.5117C59.0183 62.8087 59.5031 65.2736 58.1912 67.0039C56.879 68.7351 54.3592 68.9954 52.625 67.6799L46.9765 63.3946C46.3981 66.4937 47.4934 69.7775 50.1758 71.8126C52.5814 73.6373 55.6688 73.9789 58.3283 73.0236L58.9258 72.8086L59.4295 73.1915L76.3283 86.012L76.832 86.3947L76.789 87.0276C76.5844 89.8464 77.7378 92.7289 80.1445 94.5547C82.827 96.5897 86.2876 96.7585 89.117 95.3672L83.4688 91.0822C81.7345 89.7665 81.3085 87.269 82.6213 85.5392C83.9338 83.8092 86.4384 83.6136 88.1484 84.9103L93.7969 89.1956C94.3739 86.0976 93.2831 82.8123 90.6015 80.7776C88.1874 78.9454 85.1244 78.5824 82.4805 79.5235L81.8867 79.7345L81.383 79.3516L64.4842 66.5314L63.9805 66.1485L64.0235 65.5198C64.2173 62.7214 63.0423 59.8705 60.6289 58.0391C59.0609 56.8496 57.2261 56.2919 55.4064 56.3126L55.4062 56.3125ZM60.8516 67.5938L81.336 83.1367L79.9258 85L59.4375 69.4531L60.8516 67.5938Z" fill="#FAD100"/>
<rect x="1.5" y="1.5" width="128" height="128" rx="64" stroke="#FAD100" stroke-width="2"/>
</svg>
