<svg width="40" height="40" viewBox="0 0 40 40" fill="none" xmlns="http://www.w3.org/2000/svg">
<path d="M37.4333 9.99996C36.15 10.5833 34.7667 10.9666 33.3333 11.15C34.8 10.2666 35.9333 8.86663 36.4667 7.18329C35.0833 8.01663 33.55 8.59996 31.9333 8.93329C30.6166 7.49996 28.7667 6.66663 26.6667 6.66663C22.75 6.66663 19.55 9.86663 19.55 13.8166C19.55 14.3833 19.6167 14.9333 19.7333 15.45C13.8 15.15 8.51665 12.3 4.99998 7.98329C4.38332 9.03329 4.03332 10.2666 4.03332 11.5666C4.03332 14.05 5.28332 16.25 7.21665 17.5C6.03332 17.5 4.93332 17.1666 3.96665 16.6666V16.7166C3.96665 20.1833 6.43332 23.0833 9.69998 23.7333C8.6512 24.0203 7.55014 24.0602 6.48332 23.85C6.936 25.2708 7.82255 26.514 9.01834 27.4048C10.2141 28.2957 11.6591 28.7894 13.15 28.8166C10.6227 30.8174 7.48998 31.8988 4.26665 31.8833C3.69998 31.8833 3.13332 31.85 2.56665 31.7833C5.73332 33.8166 9.49998 35 13.5333 35C26.6667 35 33.8833 24.1 33.8833 14.65C33.8833 14.3333 33.8833 14.0333 33.8666 13.7166C35.2666 12.7166 36.4666 11.45 37.4333 9.99996V9.99996Z" fill="white"/>
</svg>
