<svg width="516" height="516" viewBox="0 0 516 516" fill="none" xmlns="http://www.w3.org/2000/svg">
<g filter="url(#filter0_d_120_234)">
<rect x="60" y="36" width="420" height="420" fill="#091F48"/>
</g>
<g filter="url(#filter1_d_120_234)">
<rect x="60" y="36" width="420" height="420" fill="#091F48"/>
</g>
<path d="M130.225 310.239C130.106 309.036 129.594 308.102 128.689 307.435C127.784 306.769 126.556 306.436 125.005 306.436C123.951 306.436 123.061 306.585 122.335 306.884C121.609 307.172 121.053 307.575 120.665 308.092C120.287 308.609 120.098 309.195 120.098 309.852C120.078 310.398 120.192 310.876 120.441 311.283C120.7 311.691 121.053 312.044 121.5 312.342C121.947 312.631 122.464 312.884 123.051 313.103C123.638 313.312 124.264 313.491 124.93 313.64L127.675 314.296C129.007 314.594 130.23 314.992 131.344 315.489C132.457 315.987 133.422 316.598 134.237 317.324C135.053 318.05 135.684 318.905 136.131 319.889C136.589 320.874 136.822 322.002 136.832 323.275C136.822 325.144 136.345 326.765 135.401 328.137C134.466 329.499 133.114 330.558 131.344 331.314C129.584 332.06 127.461 332.433 124.975 332.433C122.509 332.433 120.362 332.055 118.532 331.299C116.712 330.543 115.29 329.425 114.266 327.943C113.252 326.452 112.72 324.607 112.67 322.41H118.92C118.989 323.434 119.283 324.289 119.8 324.975C120.327 325.651 121.028 326.163 121.903 326.511C122.788 326.849 123.787 327.018 124.901 327.018C125.994 327.018 126.944 326.859 127.749 326.541C128.565 326.223 129.196 325.781 129.643 325.214C130.091 324.647 130.315 323.996 130.315 323.26C130.315 322.574 130.111 321.997 129.703 321.53C129.305 321.062 128.719 320.665 127.943 320.337C127.178 320.009 126.238 319.71 125.124 319.442L121.798 318.607C119.223 317.98 117.19 317.001 115.698 315.668C114.207 314.336 113.466 312.541 113.476 310.284C113.466 308.435 113.958 306.819 114.952 305.437C115.957 304.055 117.334 302.976 119.084 302.2C120.834 301.425 122.822 301.037 125.05 301.037C127.317 301.037 129.295 301.425 130.986 302.2C132.686 302.976 134.009 304.055 134.953 305.437C135.898 306.819 136.385 308.42 136.415 310.239H130.225ZM153.242 309.091V313.864H139.446V309.091H153.242ZM142.578 303.602H148.932V324.96C148.932 325.547 149.021 326.004 149.2 326.332C149.379 326.651 149.628 326.874 149.946 327.004C150.274 327.133 150.652 327.197 151.08 327.197C151.378 327.197 151.676 327.173 151.975 327.123C152.273 327.063 152.502 327.018 152.661 326.989L153.66 331.717C153.342 331.816 152.894 331.93 152.318 332.06C151.741 332.199 151.04 332.283 150.215 332.313C148.683 332.373 147.341 332.169 146.188 331.702C145.044 331.234 144.154 330.509 143.518 329.524C142.882 328.54 142.568 327.297 142.578 325.795V303.602ZM163.914 332.433C162.452 332.433 161.15 332.179 160.006 331.672C158.863 331.155 157.958 330.394 157.292 329.39C156.635 328.376 156.307 327.113 156.307 325.602C156.307 324.329 156.541 323.26 157.008 322.395C157.476 321.53 158.112 320.834 158.917 320.307C159.723 319.78 160.638 319.382 161.662 319.114C162.696 318.845 163.78 318.656 164.913 318.547C166.246 318.408 167.319 318.278 168.135 318.159C168.95 318.03 169.542 317.841 169.91 317.592C170.278 317.344 170.461 316.976 170.461 316.489V316.399C170.461 315.455 170.163 314.724 169.567 314.207C168.98 313.69 168.145 313.431 167.061 313.431C165.917 313.431 165.008 313.685 164.331 314.192C163.655 314.689 163.208 315.315 162.989 316.071L157.113 315.594C157.411 314.202 157.998 312.999 158.873 311.984C159.748 310.96 160.876 310.175 162.258 309.628C163.65 309.071 165.261 308.793 167.091 308.793C168.363 308.793 169.581 308.942 170.745 309.24C171.918 309.538 172.957 310.001 173.862 310.627C174.777 311.254 175.498 312.059 176.025 313.043C176.552 314.018 176.815 315.186 176.815 316.548V332H170.79V328.823H170.611C170.243 329.539 169.751 330.17 169.134 330.717C168.518 331.254 167.777 331.677 166.912 331.985C166.047 332.283 165.047 332.433 163.914 332.433ZM165.733 328.048C166.668 328.048 167.493 327.864 168.209 327.496C168.925 327.118 169.487 326.611 169.895 325.974C170.302 325.338 170.506 324.617 170.506 323.812V321.381C170.307 321.51 170.034 321.629 169.686 321.739C169.348 321.838 168.965 321.933 168.537 322.022C168.11 322.102 167.682 322.176 167.255 322.246C166.827 322.305 166.439 322.36 166.091 322.41C165.346 322.519 164.694 322.693 164.138 322.932C163.581 323.17 163.148 323.494 162.84 323.901C162.532 324.299 162.378 324.796 162.378 325.393C162.378 326.258 162.691 326.919 163.317 327.376C163.954 327.824 164.759 328.048 165.733 328.048ZM188.098 318.756V332H181.744V309.091H187.8V313.133H188.068C188.575 311.8 189.426 310.746 190.619 309.971C191.812 309.185 193.259 308.793 194.959 308.793C196.55 308.793 197.937 309.141 199.12 309.837C200.303 310.533 201.223 311.527 201.879 312.82C202.536 314.102 202.864 315.634 202.864 317.413V332H196.51V318.547C196.52 317.145 196.162 316.051 195.436 315.266C194.71 314.47 193.711 314.072 192.438 314.072C191.583 314.072 190.828 314.256 190.171 314.624C189.525 314.992 189.018 315.529 188.65 316.235C188.292 316.931 188.108 317.771 188.098 318.756ZM216.313 332.373C214.573 332.373 212.997 331.925 211.585 331.031C210.183 330.126 209.07 328.798 208.244 327.048C207.429 325.288 207.021 323.131 207.021 320.575C207.021 317.95 207.444 315.768 208.289 314.028C209.134 312.278 210.258 310.97 211.66 310.105C213.072 309.23 214.618 308.793 216.298 308.793C217.581 308.793 218.65 309.011 219.505 309.449C220.37 309.876 221.066 310.413 221.593 311.06C222.13 311.696 222.538 312.322 222.816 312.939H223.01V301.455H229.349V332H223.085V328.331H222.816C222.518 328.967 222.095 329.599 221.548 330.225C221.011 330.842 220.31 331.354 219.445 331.761C218.59 332.169 217.546 332.373 216.313 332.373ZM218.327 327.317C219.351 327.317 220.216 327.038 220.922 326.482C221.638 325.915 222.185 325.124 222.562 324.11C222.95 323.096 223.144 321.908 223.144 320.545C223.144 319.183 222.955 318 222.577 316.996C222.2 315.991 221.653 315.216 220.937 314.669C220.221 314.122 219.351 313.849 218.327 313.849C217.283 313.849 216.403 314.132 215.687 314.699C214.971 315.266 214.429 316.051 214.061 317.055C213.693 318.06 213.509 319.223 213.509 320.545C213.509 321.878 213.693 323.056 214.061 324.08C214.439 325.094 214.981 325.89 215.687 326.467C216.403 327.033 217.283 327.317 218.327 327.317ZM241.105 332.433C239.644 332.433 238.341 332.179 237.198 331.672C236.054 331.155 235.149 330.394 234.483 329.39C233.827 328.376 233.499 327.113 233.499 325.602C233.499 324.329 233.732 323.26 234.2 322.395C234.667 321.53 235.303 320.834 236.109 320.307C236.914 319.78 237.829 319.382 238.853 319.114C239.887 318.845 240.971 318.656 242.105 318.547C243.437 318.408 244.511 318.278 245.326 318.159C246.142 318.03 246.733 317.841 247.101 317.592C247.469 317.344 247.653 316.976 247.653 316.489V316.399C247.653 315.455 247.355 314.724 246.758 314.207C246.171 313.69 245.336 313.431 244.252 313.431C243.109 313.431 242.199 313.685 241.523 314.192C240.847 314.689 240.399 315.315 240.181 316.071L234.304 315.594C234.602 314.202 235.189 312.999 236.064 311.984C236.939 310.96 238.068 310.175 239.45 309.628C240.842 309.071 242.453 308.793 244.282 308.793C245.555 308.793 246.773 308.942 247.936 309.24C249.11 309.538 250.149 310.001 251.053 310.627C251.968 311.254 252.689 312.059 253.216 313.043C253.743 314.018 254.007 315.186 254.007 316.548V332H247.981V328.823H247.802C247.434 329.539 246.942 330.17 246.325 330.717C245.709 331.254 244.968 331.677 244.103 331.985C243.238 332.283 242.239 332.433 241.105 332.433ZM242.925 328.048C243.86 328.048 244.685 327.864 245.401 327.496C246.117 327.118 246.678 326.611 247.086 325.974C247.494 325.338 247.698 324.617 247.698 323.812V321.381C247.499 321.51 247.225 321.629 246.877 321.739C246.539 321.838 246.156 321.933 245.729 322.022C245.301 322.102 244.874 322.176 244.446 322.246C244.019 322.305 243.631 322.36 243.283 322.41C242.537 322.519 241.886 322.693 241.329 322.932C240.772 323.17 240.34 323.494 240.031 323.901C239.723 324.299 239.569 324.796 239.569 325.393C239.569 326.258 239.882 326.919 240.509 327.376C241.145 327.824 241.95 328.048 242.925 328.048ZM258.936 332V309.091H265.096V313.088H265.334C265.752 311.666 266.453 310.592 267.437 309.866C268.422 309.131 269.555 308.763 270.838 308.763C271.156 308.763 271.499 308.783 271.867 308.822C272.235 308.862 272.558 308.917 272.836 308.987V314.624C272.538 314.535 272.126 314.455 271.599 314.386C271.072 314.316 270.589 314.281 270.152 314.281C269.217 314.281 268.382 314.485 267.646 314.893C266.92 315.29 266.344 315.847 265.916 316.563C265.498 317.279 265.29 318.104 265.29 319.039V332H258.936ZM283.497 332.373C281.757 332.373 280.181 331.925 278.769 331.031C277.367 330.126 276.253 328.798 275.428 327.048C274.613 325.288 274.205 323.131 274.205 320.575C274.205 317.95 274.627 315.768 275.473 314.028C276.318 312.278 277.441 310.97 278.843 310.105C280.255 309.23 281.801 308.793 283.482 308.793C284.765 308.793 285.833 309.011 286.689 309.449C287.554 309.876 288.25 310.413 288.777 311.06C289.314 311.696 289.721 312.322 290 312.939H290.194V301.455H296.532V332H290.268V328.331H290C289.701 328.967 289.279 329.599 288.732 330.225C288.195 330.842 287.494 331.354 286.629 331.761C285.774 332.169 284.73 332.373 283.497 332.373ZM285.51 327.317C286.534 327.317 287.4 327.038 288.105 326.482C288.821 325.915 289.368 325.124 289.746 324.11C290.134 323.096 290.328 321.908 290.328 320.545C290.328 319.183 290.139 318 289.761 316.996C289.383 315.991 288.836 315.216 288.12 314.669C287.404 314.122 286.534 313.849 285.51 313.849C284.466 313.849 283.586 314.132 282.87 314.699C282.154 315.266 281.613 316.051 281.245 317.055C280.877 318.06 280.693 319.223 280.693 320.545C280.693 321.878 280.877 323.056 281.245 324.08C281.623 325.094 282.164 325.89 282.87 326.467C283.586 327.033 284.466 327.317 285.51 327.317ZM113.536 383V360.091H119.591V364.133H119.859C120.337 362.79 121.132 361.732 122.246 360.956C123.359 360.18 124.692 359.793 126.243 359.793C127.814 359.793 129.151 360.185 130.255 360.971C131.359 361.746 132.094 362.8 132.462 364.133H132.701C133.168 362.82 134.013 361.771 135.237 360.986C136.469 360.19 137.926 359.793 139.607 359.793C141.744 359.793 143.479 360.474 144.812 361.836C146.154 363.188 146.825 365.107 146.825 367.593V383H140.487V368.846C140.487 367.573 140.148 366.619 139.472 365.982C138.796 365.346 137.951 365.028 136.937 365.028C135.783 365.028 134.884 365.396 134.237 366.131C133.591 366.857 133.268 367.817 133.268 369.01V383H127.108V368.712C127.108 367.588 126.785 366.693 126.138 366.027C125.502 365.361 124.662 365.028 123.618 365.028C122.912 365.028 122.276 365.207 121.709 365.565C121.152 365.913 120.71 366.405 120.381 367.041C120.053 367.668 119.889 368.403 119.889 369.249V383H113.536ZM158.377 383.433C156.915 383.433 155.613 383.179 154.469 382.672C153.326 382.155 152.421 381.394 151.755 380.39C151.098 379.376 150.77 378.113 150.77 376.602C150.77 375.329 151.004 374.26 151.471 373.395C151.939 372.53 152.575 371.834 153.38 371.307C154.186 370.78 155.1 370.382 156.125 370.114C157.159 369.845 158.243 369.656 159.376 369.547C160.708 369.408 161.782 369.278 162.598 369.159C163.413 369.03 164.005 368.841 164.373 368.592C164.74 368.344 164.924 367.976 164.924 367.489V367.399C164.924 366.455 164.626 365.724 164.029 365.207C163.443 364.69 162.608 364.431 161.524 364.431C160.38 364.431 159.471 364.685 158.794 365.192C158.118 365.689 157.671 366.315 157.452 367.071L151.576 366.594C151.874 365.202 152.461 363.999 153.336 362.984C154.211 361.96 155.339 361.175 156.721 360.628C158.113 360.071 159.724 359.793 161.554 359.793C162.826 359.793 164.044 359.942 165.208 360.24C166.381 360.538 167.42 361.001 168.325 361.627C169.24 362.254 169.961 363.059 170.488 364.043C171.015 365.018 171.278 366.186 171.278 367.548V383H165.252V379.823H165.074C164.706 380.539 164.213 381.17 163.597 381.717C162.98 382.254 162.24 382.677 161.375 382.985C160.51 383.283 159.51 383.433 158.377 383.433ZM160.196 379.048C161.131 379.048 161.956 378.864 162.672 378.496C163.388 378.118 163.95 377.611 164.358 376.974C164.765 376.338 164.969 375.617 164.969 374.812V372.381C164.77 372.51 164.497 372.629 164.149 372.739C163.811 372.838 163.428 372.933 163 373.022C162.573 373.102 162.145 373.176 161.718 373.246C161.29 373.305 160.902 373.36 160.554 373.41C159.809 373.519 159.157 373.693 158.6 373.932C158.044 374.17 157.611 374.494 157.303 374.901C156.995 375.299 156.841 375.796 156.841 376.393C156.841 377.258 157.154 377.919 157.78 378.376C158.417 378.824 159.222 379.048 160.196 379.048ZM182.561 369.756V383H176.207V360.091H182.263V364.133H182.531C183.038 362.8 183.888 361.746 185.082 360.971C186.275 360.185 187.722 359.793 189.422 359.793C191.013 359.793 192.4 360.141 193.583 360.837C194.766 361.533 195.686 362.527 196.342 363.82C196.999 365.102 197.327 366.634 197.327 368.413V383H190.973V369.547C190.983 368.145 190.625 367.051 189.899 366.266C189.173 365.47 188.174 365.072 186.901 365.072C186.046 365.072 185.29 365.256 184.634 365.624C183.988 365.992 183.481 366.529 183.113 367.235C182.755 367.931 182.571 368.771 182.561 369.756ZM217.025 373.246V360.091H223.379V383H217.279V378.839H217.04C216.523 380.181 215.663 381.26 214.46 382.075C213.267 382.891 211.81 383.298 210.09 383.298C208.559 383.298 207.211 382.95 206.048 382.254C204.885 381.558 203.975 380.569 203.319 379.286C202.672 378.004 202.344 376.467 202.334 374.678V360.091H208.688V373.544C208.698 374.896 209.061 375.965 209.777 376.751C210.493 377.536 211.452 377.929 212.655 377.929C213.421 377.929 214.137 377.755 214.803 377.407C215.469 377.049 216.006 376.522 216.414 375.826C216.831 375.13 217.035 374.27 217.025 373.246ZM240.781 360.091V364.864H226.642V360.091H240.781ZM229.878 383V358.435C229.878 356.775 230.201 355.398 230.848 354.304C231.504 353.21 232.399 352.39 233.532 351.843C234.666 351.296 235.953 351.023 237.395 351.023C238.37 351.023 239.26 351.097 240.065 351.246C240.88 351.396 241.487 351.53 241.885 351.649L240.751 356.422C240.502 356.342 240.194 356.268 239.826 356.198C239.468 356.129 239.1 356.094 238.723 356.094C237.788 356.094 237.137 356.312 236.769 356.75C236.401 357.178 236.217 357.779 236.217 358.555V383H229.878ZM250.375 383.433C248.913 383.433 247.611 383.179 246.467 382.672C245.324 382.155 244.419 381.394 243.753 380.39C243.096 379.376 242.768 378.113 242.768 376.602C242.768 375.329 243.002 374.26 243.469 373.395C243.937 372.53 244.573 371.834 245.378 371.307C246.184 370.78 247.099 370.382 248.123 370.114C249.157 369.845 250.241 369.656 251.374 369.547C252.706 369.408 253.78 369.278 254.596 369.159C255.411 369.03 256.003 368.841 256.371 368.592C256.738 368.344 256.922 367.976 256.922 367.489V367.399C256.922 366.455 256.624 365.724 256.028 365.207C255.441 364.69 254.606 364.431 253.522 364.431C252.378 364.431 251.469 364.685 250.792 365.192C250.116 365.689 249.669 366.315 249.45 367.071L243.574 366.594C243.872 365.202 244.459 363.999 245.334 362.984C246.209 361.96 247.337 361.175 248.719 360.628C250.111 360.071 251.722 359.793 253.552 359.793C254.824 359.793 256.042 359.942 257.206 360.24C258.379 360.538 259.418 361.001 260.323 361.627C261.238 362.254 261.959 363.059 262.486 364.043C263.013 365.018 263.276 366.186 263.276 367.548V383H257.251V379.823H257.072C256.704 380.539 256.211 381.17 255.595 381.717C254.979 382.254 254.238 382.677 253.373 382.985C252.508 383.283 251.508 383.433 250.375 383.433ZM252.194 379.048C253.129 379.048 253.954 378.864 254.67 378.496C255.386 378.118 255.948 377.611 256.356 376.974C256.763 376.338 256.967 375.617 256.967 374.812V372.381C256.768 372.51 256.495 372.629 256.147 372.739C255.809 372.838 255.426 372.933 254.998 373.022C254.571 373.102 254.143 373.176 253.716 373.246C253.288 373.305 252.9 373.36 252.552 373.41C251.807 373.519 251.155 373.693 250.599 373.932C250.042 374.17 249.609 374.494 249.301 374.901C248.993 375.299 248.839 375.796 248.839 376.393C248.839 377.258 249.152 377.919 249.778 378.376C250.415 378.824 251.22 379.048 252.194 379.048ZM278.556 383.447C276.21 383.447 274.191 382.95 272.501 381.956C270.82 380.952 269.528 379.56 268.623 377.78C267.728 376 267.281 373.952 267.281 371.635C267.281 369.288 267.733 367.23 268.638 365.46C269.553 363.68 270.85 362.293 272.531 361.299C274.211 360.295 276.21 359.793 278.526 359.793C280.525 359.793 282.275 360.156 283.776 360.881C285.278 361.607 286.466 362.626 287.341 363.939C288.216 365.251 288.698 366.793 288.788 368.562H282.792C282.623 367.419 282.176 366.499 281.45 365.803C280.734 365.097 279.794 364.744 278.631 364.744C277.646 364.744 276.786 365.013 276.051 365.55C275.325 366.077 274.758 366.847 274.35 367.862C273.943 368.876 273.739 370.104 273.739 371.545C273.739 373.007 273.938 374.25 274.335 375.274C274.743 376.298 275.315 377.079 276.051 377.616C276.786 378.153 277.646 378.421 278.631 378.421C279.357 378.421 280.008 378.272 280.585 377.974C281.171 377.675 281.654 377.243 282.031 376.676C282.419 376.099 282.673 375.408 282.792 374.603H288.788C288.688 376.353 288.211 377.894 287.356 379.227C286.511 380.549 285.343 381.583 283.851 382.329C282.36 383.075 280.595 383.447 278.556 383.447ZM305.041 360.091V364.864H291.245V360.091H305.041ZM294.377 354.602H300.731V375.96C300.731 376.547 300.82 377.004 300.999 377.332C301.178 377.651 301.427 377.874 301.745 378.004C302.073 378.133 302.451 378.197 302.879 378.197C303.177 378.197 303.475 378.173 303.773 378.123C304.072 378.063 304.3 378.018 304.46 377.989L305.459 382.717C305.141 382.816 304.693 382.93 304.116 383.06C303.54 383.199 302.839 383.283 302.013 383.313C300.482 383.373 299.14 383.169 297.987 382.702C296.843 382.234 295.953 381.509 295.317 380.524C294.68 379.54 294.367 378.297 294.377 376.795V354.602ZM323.871 373.246V360.091H330.225V383H324.125V378.839H323.886C323.369 380.181 322.509 381.26 321.306 382.075C320.113 382.891 318.656 383.298 316.936 383.298C315.404 383.298 314.057 382.95 312.894 382.254C311.73 381.558 310.821 380.569 310.164 379.286C309.518 378.004 309.19 376.467 309.18 374.678V360.091H315.534V373.544C315.544 374.896 315.907 375.965 316.623 376.751C317.338 377.536 318.298 377.929 319.501 377.929C320.267 377.929 320.983 377.755 321.649 377.407C322.315 377.049 322.852 376.522 323.26 375.826C323.677 375.13 323.881 374.27 323.871 373.246ZM335.307 383V360.091H341.467V364.088H341.705C342.123 362.666 342.824 361.592 343.808 360.866C344.793 360.131 345.926 359.763 347.209 359.763C347.527 359.763 347.87 359.783 348.238 359.822C348.606 359.862 348.929 359.917 349.208 359.987V365.624C348.909 365.535 348.497 365.455 347.97 365.386C347.443 365.316 346.96 365.281 346.523 365.281C345.588 365.281 344.753 365.485 344.017 365.893C343.291 366.29 342.715 366.847 342.287 367.563C341.869 368.279 341.661 369.104 341.661 370.039V383H335.307ZM352.493 383V360.091H358.846V383H352.493ZM355.684 357.138C354.74 357.138 353.929 356.825 353.253 356.198C352.587 355.562 352.254 354.801 352.254 353.916C352.254 353.041 352.587 352.29 353.253 351.664C353.929 351.028 354.74 350.71 355.684 350.71C356.629 350.71 357.434 351.028 358.1 351.664C358.777 352.29 359.115 353.041 359.115 353.916C359.115 354.801 358.777 355.562 358.1 356.198C357.434 356.825 356.629 357.138 355.684 357.138ZM370.29 369.756V383H363.936V360.091H369.991V364.133H370.26C370.767 362.8 371.617 361.746 372.81 360.971C374.003 360.185 375.45 359.793 377.15 359.793C378.741 359.793 380.128 360.141 381.312 360.837C382.495 361.533 383.415 362.527 384.071 363.82C384.727 365.102 385.055 366.634 385.055 368.413V383H378.702V369.547C378.711 368.145 378.354 367.051 377.628 366.266C376.902 365.47 375.903 365.072 374.63 365.072C373.775 365.072 373.019 365.256 372.363 365.624C371.716 365.992 371.209 366.529 370.841 367.235C370.483 367.931 370.3 368.771 370.29 369.756ZM400.384 392.068C398.326 392.068 396.561 391.785 395.089 391.218C393.627 390.661 392.464 389.901 391.599 388.936C390.734 387.972 390.172 386.888 389.914 385.685L395.79 384.894C395.969 385.352 396.252 385.779 396.64 386.177C397.028 386.575 397.54 386.893 398.176 387.131C398.823 387.38 399.608 387.504 400.533 387.504C401.915 387.504 403.054 387.166 403.949 386.49C404.853 385.824 405.306 384.705 405.306 383.134V378.943H405.037C404.759 379.58 404.341 380.181 403.784 380.748C403.228 381.315 402.512 381.777 401.637 382.135C400.762 382.493 399.718 382.672 398.505 382.672C396.784 382.672 395.218 382.274 393.806 381.479C392.404 380.673 391.286 379.445 390.451 377.795C389.625 376.134 389.213 374.036 389.213 371.501C389.213 368.906 389.635 366.738 390.48 364.998C391.326 363.258 392.449 361.955 393.851 361.09C395.263 360.225 396.809 359.793 398.49 359.793C399.772 359.793 400.846 360.011 401.711 360.449C402.576 360.876 403.272 361.413 403.799 362.06C404.336 362.696 404.749 363.322 405.037 363.939H405.276V360.091H411.585V383.224C411.585 385.173 411.108 386.803 410.153 388.116C409.199 389.428 407.876 390.413 406.186 391.069C404.505 391.735 402.571 392.068 400.384 392.068ZM400.518 377.899C401.542 377.899 402.407 377.646 403.113 377.138C403.829 376.621 404.376 375.886 404.754 374.931C405.142 373.967 405.336 372.813 405.336 371.471C405.336 370.129 405.147 368.965 404.769 367.981C404.391 366.987 403.844 366.216 403.128 365.669C402.412 365.122 401.542 364.849 400.518 364.849C399.474 364.849 398.594 365.132 397.878 365.699C397.162 366.256 396.62 367.031 396.252 368.026C395.885 369.02 395.701 370.168 395.701 371.471C395.701 372.793 395.885 373.937 396.252 374.901C396.63 375.856 397.172 376.597 397.878 377.124C398.594 377.641 399.474 377.899 400.518 377.899Z" fill="white"/>
<g clip-path="url(#clip0_120_234)">
<path d="M153 100.492C145.581 100.492 138.33 102.691 132.161 106.813C125.993 110.934 121.186 116.792 118.347 123.646C115.508 130.5 114.765 138.042 116.212 145.317C117.66 152.593 121.232 159.277 126.477 164.522C131.723 169.768 138.406 173.34 145.682 174.788C152.958 176.235 160.5 175.492 167.354 172.653C174.207 169.814 180.065 165.007 184.187 158.838C188.308 152.67 190.508 145.418 190.508 138C190.508 128.052 186.556 118.512 179.522 111.478C172.488 104.443 162.948 100.492 153 100.492ZM153 170.492C146.574 170.492 140.292 168.586 134.948 165.016C129.605 161.446 125.441 156.371 122.981 150.434C120.522 144.497 119.879 137.964 121.133 131.661C122.386 125.358 125.481 119.569 130.025 115.025C134.569 110.481 140.358 107.386 146.661 106.133C152.964 104.879 159.497 105.522 165.434 107.982C171.371 110.441 176.445 114.605 180.016 119.948C183.586 125.292 185.492 131.574 185.492 138C185.492 146.617 182.068 154.882 175.975 160.975C169.882 167.068 161.617 170.492 153 170.492Z" fill="#FAD100" stroke="#FAD100" stroke-width="0.35"/>
<path d="M172.92 124.109L172.92 124.109C173.39 123.642 174.026 123.38 174.688 123.38C175.351 123.38 175.987 123.642 176.457 124.109M172.92 124.109L176.457 124.109M172.92 124.109L147.144 149.769L133.269 135.895C132.811 135.402 132.176 135.11 131.502 135.084C130.828 135.058 130.171 135.301 129.676 135.76C129.181 136.218 128.888 136.855 128.863 137.529C128.837 138.204 129.08 138.86 129.538 139.356L129.538 139.356L129.543 139.361L147.02 156.791L147.143 156.914L147.267 156.791L176.457 127.671M172.92 124.109L176.457 127.671M176.457 124.109C176.692 124.342 176.878 124.62 177.006 124.925C177.133 125.231 177.199 125.559 177.199 125.89C177.199 126.221 177.133 126.549 177.006 126.855C176.878 127.16 176.692 127.438 176.457 127.671M176.457 124.109L176.457 127.671" fill="#FAD100" stroke="#FAD100" stroke-width="0.35"/>
</g>
<path d="M135.315 246.795H144.724L149.455 252.881L154.108 258.301L162.878 269.295H152.548L146.514 261.881L143.42 257.483L135.315 246.795ZM163.67 238.818C163.67 244.528 162.588 249.386 160.423 253.392C158.276 257.398 155.344 260.457 151.628 262.571C147.929 264.668 143.77 265.716 139.151 265.716C134.497 265.716 130.321 264.659 126.622 262.545C122.923 260.432 120 257.372 117.852 253.366C115.705 249.361 114.631 244.511 114.631 238.818C114.631 233.108 115.705 228.25 117.852 224.244C120 220.239 122.923 217.187 126.622 215.091C130.321 212.977 134.497 211.92 139.151 211.92C143.77 211.92 147.929 212.977 151.628 215.091C155.344 217.187 158.276 220.239 160.423 224.244C162.588 228.25 163.67 233.108 163.67 238.818ZM152.446 238.818C152.446 235.119 151.892 232 150.784 229.46C149.693 226.92 148.151 224.994 146.156 223.682C144.162 222.369 141.827 221.713 139.151 221.713C136.474 221.713 134.139 222.369 132.145 223.682C130.151 224.994 128.599 226.92 127.491 229.46C126.401 232 125.855 235.119 125.855 238.818C125.855 242.517 126.401 245.636 127.491 248.176C128.599 250.716 130.151 252.642 132.145 253.955C134.139 255.267 136.474 255.923 139.151 255.923C141.827 255.923 144.162 255.267 146.156 253.955C148.151 252.642 149.693 250.716 150.784 248.176C151.892 245.636 152.446 242.517 152.446 238.818ZM196.852 248.278V225.727H207.744V265H197.286V257.866H196.877C195.991 260.168 194.516 262.017 192.454 263.415C190.408 264.812 187.911 265.511 184.962 265.511C182.337 265.511 180.028 264.915 178.033 263.722C176.039 262.528 174.479 260.832 173.354 258.634C172.246 256.435 171.684 253.801 171.667 250.733V225.727H182.559V248.79C182.576 251.108 183.198 252.94 184.425 254.287C185.653 255.634 187.298 256.307 189.36 256.307C190.673 256.307 191.9 256.009 193.042 255.412C194.184 254.798 195.104 253.895 195.803 252.702C196.519 251.509 196.869 250.034 196.852 248.278ZM227.655 265.741C225.149 265.741 222.916 265.307 220.956 264.438C218.996 263.551 217.445 262.247 216.303 260.526C215.178 258.787 214.615 256.622 214.615 254.031C214.615 251.849 215.016 250.017 215.817 248.534C216.618 247.051 217.709 245.858 219.089 244.955C220.47 244.051 222.038 243.369 223.794 242.909C225.567 242.449 227.425 242.125 229.368 241.938C231.652 241.699 233.493 241.477 234.891 241.273C236.288 241.051 237.303 240.727 237.933 240.301C238.564 239.875 238.879 239.244 238.879 238.409V238.256C238.879 236.636 238.368 235.384 237.345 234.497C236.339 233.611 234.908 233.168 233.05 233.168C231.089 233.168 229.53 233.602 228.371 234.472C227.212 235.324 226.445 236.398 226.07 237.693L215.996 236.875C216.507 234.489 217.513 232.426 219.013 230.688C220.513 228.932 222.447 227.585 224.817 226.648C227.203 225.693 229.964 225.216 233.101 225.216C235.283 225.216 237.371 225.472 239.365 225.983C241.376 226.494 243.158 227.287 244.709 228.361C246.277 229.435 247.513 230.815 248.416 232.503C249.32 234.173 249.771 236.176 249.771 238.511V265H239.442V259.554H239.135C238.504 260.781 237.661 261.864 236.604 262.801C235.547 263.722 234.277 264.446 232.794 264.974C231.311 265.486 229.598 265.741 227.655 265.741ZM230.774 258.224C232.376 258.224 233.791 257.909 235.018 257.278C236.246 256.631 237.209 255.761 237.908 254.67C238.607 253.58 238.956 252.344 238.956 250.963V246.795C238.615 247.017 238.146 247.222 237.55 247.409C236.97 247.58 236.314 247.741 235.581 247.895C234.848 248.031 234.115 248.159 233.382 248.278C232.649 248.381 231.984 248.474 231.388 248.56C230.109 248.747 228.993 249.045 228.038 249.455C227.084 249.864 226.342 250.418 225.814 251.116C225.286 251.798 225.021 252.651 225.021 253.673C225.021 255.156 225.558 256.29 226.632 257.074C227.723 257.841 229.104 258.224 230.774 258.224ZM269.114 212.636V265H258.222V212.636H269.114ZM277.839 265V225.727H288.731V265H277.839ZM283.31 220.665C281.691 220.665 280.302 220.128 279.143 219.054C278.001 217.963 277.43 216.659 277.43 215.142C277.43 213.642 278.001 212.355 279.143 211.281C280.302 210.19 281.691 209.645 283.31 209.645C284.93 209.645 286.31 210.19 287.452 211.281C288.612 212.355 289.191 213.642 289.191 215.142C289.191 216.659 288.612 217.963 287.452 219.054C286.31 220.128 284.93 220.665 283.31 220.665ZM318.345 225.727V233.909H294.695V225.727H318.345ZM300.064 216.318H310.956V252.932C310.956 253.937 311.109 254.722 311.416 255.284C311.723 255.83 312.149 256.213 312.695 256.435C313.257 256.656 313.905 256.767 314.638 256.767C315.149 256.767 315.661 256.724 316.172 256.639C316.683 256.537 317.075 256.46 317.348 256.409L319.061 264.514C318.516 264.685 317.749 264.881 316.76 265.102C315.771 265.341 314.57 265.486 313.155 265.537C310.53 265.639 308.229 265.29 306.251 264.489C304.291 263.687 302.766 262.443 301.675 260.756C300.584 259.068 300.047 256.937 300.064 254.364V216.318ZM332.165 279.727C330.784 279.727 329.489 279.616 328.278 279.395C327.085 279.19 326.097 278.926 325.312 278.602L327.767 270.472C329.045 270.864 330.196 271.077 331.219 271.111C332.259 271.145 333.153 270.906 333.903 270.395C334.67 269.884 335.293 269.014 335.77 267.787L336.409 266.125L322.321 225.727H333.776L341.906 254.568H342.315L350.523 225.727H362.054L346.79 269.244C346.057 271.358 345.06 273.199 343.798 274.767C342.554 276.352 340.977 277.571 339.068 278.423C337.159 279.293 334.858 279.727 332.165 279.727Z" fill="white"/>
<defs>
<filter id="filter0_d_120_234" x="0" y="0" width="516" height="516" filterUnits="userSpaceOnUse" color-interpolation-filters="sRGB">
<feFlood flood-opacity="0" result="BackgroundImageFix"/>
<feColorMatrix in="SourceAlpha" type="matrix" values="0 0 0 0 0 0 0 0 0 0 0 0 0 0 0 0 0 0 127 0" result="hardAlpha"/>
<feOffset dx="-12" dy="12"/>
<feGaussianBlur stdDeviation="24"/>
<feComposite in2="hardAlpha" operator="out"/>
<feColorMatrix type="matrix" values="0 0 0 0 0 0 0 0 0 0 0 0 0 0 0 0 0 0 0.25 0"/>
<feBlend mode="normal" in2="BackgroundImageFix" result="effect1_dropShadow_120_234"/>
<feBlend mode="normal" in="SourceGraphic" in2="effect1_dropShadow_120_234" result="shape"/>
</filter>
<filter id="filter1_d_120_234" x="0" y="0" width="516" height="516" filterUnits="userSpaceOnUse" color-interpolation-filters="sRGB">
<feFlood flood-opacity="0" result="BackgroundImageFix"/>
<feColorMatrix in="SourceAlpha" type="matrix" values="0 0 0 0 0 0 0 0 0 0 0 0 0 0 0 0 0 0 127 0" result="hardAlpha"/>
<feOffset dx="-12" dy="12"/>
<feGaussianBlur stdDeviation="24"/>
<feComposite in2="hardAlpha" operator="out"/>
<feColorMatrix type="matrix" values="0 0 0 0 0 0 0 0 0 0 0 0 0 0 0 0 0 0 0.25 0"/>
<feBlend mode="normal" in2="BackgroundImageFix" result="effect1_dropShadow_120_234"/>
<feBlend mode="normal" in="SourceGraphic" in2="effect1_dropShadow_120_234" result="shape"/>
</filter>
<clipPath id="clip0_120_234">
<rect width="84" height="84" fill="white" transform="translate(111 96)"/>
</clipPath>
</defs>
</svg>
