<svg width="516" height="516" viewBox="0 0 516 516" fill="none" xmlns="http://www.w3.org/2000/svg">
<g filter="url(#filter0_d_120_247)">
<rect x="60" y="36" width="420" height="420" fill="#091F48"/>
</g>
<path d="M138.026 209.636V262H126.955V220.145H126.648L114.656 227.662V217.844L127.619 209.636H138.026ZM170.005 262.716C166.067 262.716 162.565 262.077 159.496 260.798C156.445 259.503 154.05 257.739 152.312 255.506C150.573 253.273 149.704 250.741 149.704 247.912C149.704 245.73 150.198 243.727 151.187 241.903C152.192 240.062 153.556 238.537 155.278 237.327C156.999 236.099 158.925 235.315 161.056 234.974V234.616C158.261 234.054 155.994 232.699 154.255 230.551C152.516 228.386 151.647 225.872 151.647 223.009C151.647 220.298 152.44 217.886 154.025 215.773C155.61 213.642 157.783 211.972 160.545 210.761C163.323 209.534 166.477 208.92 170.005 208.92C173.533 208.92 176.678 209.534 179.44 210.761C182.218 211.989 184.4 213.668 185.985 215.798C187.57 217.912 188.371 220.315 188.388 223.009C188.371 225.889 187.485 228.403 185.729 230.551C183.974 232.699 181.724 234.054 178.979 234.616V234.974C181.076 235.315 182.977 236.099 184.681 237.327C186.403 238.537 187.766 240.062 188.772 241.903C189.795 243.727 190.315 245.73 190.332 247.912C190.315 250.741 189.437 253.273 187.698 255.506C185.96 257.739 183.556 259.503 180.488 260.798C177.437 262.077 173.942 262.716 170.005 262.716ZM170.005 254.585C171.761 254.585 173.295 254.27 174.607 253.639C175.92 252.991 176.942 252.105 177.675 250.98C178.425 249.838 178.8 248.526 178.8 247.043C178.8 245.526 178.417 244.188 177.65 243.028C176.883 241.852 175.843 240.932 174.531 240.267C173.218 239.585 171.71 239.244 170.005 239.244C168.317 239.244 166.809 239.585 165.479 240.267C164.15 240.932 163.102 241.852 162.335 243.028C161.585 244.188 161.21 245.526 161.21 247.043C161.21 248.526 161.576 249.838 162.309 250.98C163.042 252.105 164.073 252.991 165.403 253.639C166.732 254.27 168.266 254.585 170.005 254.585ZM170.005 231.19C171.471 231.19 172.775 230.892 173.917 230.295C175.059 229.699 175.954 228.872 176.602 227.815C177.249 226.759 177.573 225.54 177.573 224.159C177.573 222.795 177.249 221.602 176.602 220.58C175.954 219.54 175.067 218.73 173.942 218.151C172.817 217.554 171.505 217.256 170.005 217.256C168.522 217.256 167.21 217.554 166.067 218.151C164.925 218.73 164.031 219.54 163.383 220.58C162.752 221.602 162.437 222.795 162.437 224.159C162.437 225.54 162.761 226.759 163.408 227.815C164.056 228.872 164.951 229.699 166.093 230.295C167.235 230.892 168.539 231.19 170.005 231.19ZM221.563 276.727C220.183 276.727 218.887 276.616 217.677 276.395C216.484 276.19 215.495 275.926 214.711 275.602L217.165 267.472C218.444 267.864 219.594 268.077 220.617 268.111C221.657 268.145 222.552 267.906 223.302 267.395C224.069 266.884 224.691 266.014 225.168 264.787L225.808 263.125L211.719 222.727H223.174L231.305 251.568H231.714L239.921 222.727H251.452L236.188 266.244C235.455 268.358 234.458 270.199 233.197 271.767C231.952 273.352 230.376 274.571 228.467 275.423C226.558 276.293 224.256 276.727 221.563 276.727ZM257.026 262V222.727H267.586V229.58H267.995C268.711 227.142 269.913 225.301 271.6 224.057C273.288 222.795 275.231 222.165 277.43 222.165C277.975 222.165 278.563 222.199 279.194 222.267C279.825 222.335 280.379 222.429 280.856 222.548V232.213C280.344 232.06 279.637 231.923 278.734 231.804C277.83 231.685 277.004 231.625 276.254 231.625C274.651 231.625 273.219 231.974 271.958 232.673C270.714 233.355 269.725 234.31 268.992 235.537C268.276 236.764 267.918 238.179 267.918 239.781V262H257.026ZM319.163 233.926L309.192 234.54C309.021 233.687 308.655 232.92 308.092 232.239C307.53 231.54 306.788 230.986 305.868 230.577C304.964 230.151 303.882 229.938 302.621 229.938C300.933 229.938 299.51 230.295 298.351 231.011C297.192 231.71 296.612 232.648 296.612 233.824C296.612 234.761 296.987 235.554 297.737 236.202C298.487 236.849 299.774 237.369 301.598 237.761L308.706 239.193C312.524 239.977 315.371 241.239 317.246 242.977C319.121 244.716 320.058 247 320.058 249.83C320.058 252.403 319.3 254.662 317.783 256.605C316.283 258.548 314.22 260.065 311.595 261.156C308.987 262.23 305.979 262.767 302.57 262.767C297.371 262.767 293.229 261.685 290.143 259.52C287.075 257.338 285.277 254.372 284.749 250.622L295.462 250.06C295.786 251.645 296.57 252.855 297.814 253.69C299.058 254.509 300.652 254.918 302.595 254.918C304.504 254.918 306.038 254.551 307.197 253.818C308.374 253.068 308.97 252.105 308.987 250.929C308.97 249.94 308.553 249.131 307.734 248.5C306.916 247.852 305.655 247.358 303.95 247.017L297.149 245.662C293.314 244.895 290.459 243.565 288.584 241.673C286.726 239.781 285.797 237.369 285.797 234.438C285.797 231.915 286.479 229.741 287.842 227.918C289.223 226.094 291.158 224.688 293.646 223.699C296.152 222.71 299.084 222.216 302.442 222.216C307.402 222.216 311.305 223.264 314.152 225.361C317.016 227.457 318.686 230.312 319.163 233.926ZM359.126 259.162V222.957H368.28V259.162H359.126ZM345.601 245.636V236.483H381.805V245.636H345.601Z" fill="white"/>
<path d="M114.013 329V298.455H125.467C127.814 298.455 129.783 298.892 131.374 299.767C132.974 300.642 134.183 301.845 134.998 303.376C135.823 304.898 136.236 306.628 136.236 308.567C136.236 310.526 135.823 312.266 134.998 313.787C134.173 315.308 132.955 316.506 131.344 317.381C129.733 318.246 127.749 318.679 125.393 318.679H117.801V314.13H124.647C126.019 314.13 127.143 313.891 128.018 313.414C128.893 312.937 129.539 312.281 129.957 311.445C130.384 310.61 130.598 309.651 130.598 308.567C130.598 307.483 130.384 306.528 129.957 305.703C129.539 304.878 128.888 304.237 128.003 303.779C127.128 303.312 125.999 303.078 124.617 303.078H119.546V329H114.013ZM140.803 329V306.091H146.039V309.909H146.277C146.695 308.587 147.411 307.567 148.425 306.852C149.449 306.126 150.617 305.763 151.93 305.763C152.228 305.763 152.561 305.778 152.929 305.808C153.307 305.827 153.62 305.862 153.869 305.912V310.879C153.64 310.799 153.277 310.729 152.78 310.67C152.293 310.6 151.82 310.565 151.363 310.565C150.379 310.565 149.494 310.779 148.708 311.207C147.933 311.624 147.321 312.206 146.874 312.952C146.426 313.697 146.203 314.558 146.203 315.532V329H140.803ZM166.505 329.447C164.268 329.447 162.329 328.955 160.689 327.971C159.048 326.987 157.775 325.609 156.87 323.839C155.975 322.07 155.528 320.001 155.528 317.635C155.528 315.268 155.975 313.195 156.87 311.415C157.775 309.636 159.048 308.254 160.689 307.269C162.329 306.285 164.268 305.793 166.505 305.793C168.743 305.793 170.681 306.285 172.322 307.269C173.963 308.254 175.23 309.636 176.125 311.415C177.03 313.195 177.483 315.268 177.483 317.635C177.483 320.001 177.03 322.07 176.125 323.839C175.23 325.609 173.963 326.987 172.322 327.971C170.681 328.955 168.743 329.447 166.505 329.447ZM166.535 325.122C167.748 325.122 168.762 324.789 169.578 324.123C170.393 323.447 171 322.542 171.397 321.408C171.805 320.275 172.009 319.012 172.009 317.62C172.009 316.218 171.805 314.95 171.397 313.817C171 312.673 170.393 311.763 169.578 311.087C168.762 310.411 167.748 310.073 166.535 310.073C165.292 310.073 164.258 310.411 163.433 311.087C162.618 311.763 162.006 312.673 161.598 313.817C161.201 314.95 161.002 316.218 161.002 317.62C161.002 319.012 161.201 320.275 161.598 321.408C162.006 322.542 162.618 323.447 163.433 324.123C164.258 324.789 165.292 325.122 166.535 325.122ZM193.669 306.091V310.267H180.126V306.091H193.669ZM183.512 329V303.928C183.512 302.387 183.83 301.104 184.466 300.08C185.113 299.056 185.978 298.29 187.062 297.783C188.145 297.276 189.349 297.023 190.671 297.023C191.606 297.023 192.436 297.097 193.162 297.246C193.888 297.396 194.425 297.53 194.773 297.649L193.699 301.825C193.47 301.756 193.182 301.686 192.834 301.616C192.486 301.537 192.098 301.497 191.67 301.497C190.666 301.497 189.955 301.741 189.537 302.228C189.13 302.705 188.926 303.391 188.926 304.286V329H183.512ZM207.178 329.447C204.881 329.447 202.897 328.97 201.227 328.016C199.566 327.051 198.289 325.689 197.394 323.929C196.499 322.159 196.051 320.076 196.051 317.68C196.051 315.323 196.499 313.255 197.394 311.475C198.299 309.685 199.561 308.293 201.182 307.299C202.803 306.295 204.707 305.793 206.895 305.793C208.306 305.793 209.639 306.021 210.892 306.479C212.154 306.926 213.268 307.622 214.233 308.567C215.207 309.511 215.973 310.714 216.529 312.176C217.086 313.628 217.365 315.358 217.365 317.366V319.022H198.587V315.383H212.189C212.179 314.349 211.956 313.429 211.518 312.624C211.081 311.808 210.469 311.167 209.684 310.7C208.908 310.232 208.003 309.999 206.969 309.999C205.865 309.999 204.896 310.267 204.061 310.804C203.225 311.331 202.574 312.027 202.107 312.892C201.65 313.747 201.416 314.687 201.406 315.711V318.888C201.406 320.22 201.65 321.364 202.137 322.318C202.624 323.263 203.305 323.989 204.18 324.496C205.055 324.993 206.079 325.241 207.252 325.241C208.038 325.241 208.749 325.132 209.385 324.913C210.022 324.685 210.574 324.352 211.041 323.914C211.508 323.477 211.861 322.935 212.1 322.288L217.141 322.855C216.823 324.187 216.216 325.351 215.321 326.345C214.436 327.33 213.303 328.095 211.921 328.642C210.539 329.179 208.958 329.447 207.178 329.447ZM240.039 312.146L235.117 312.683C234.978 312.186 234.734 311.719 234.386 311.281C234.048 310.844 233.591 310.491 233.014 310.222C232.437 309.954 231.731 309.82 230.896 309.82C229.773 309.82 228.828 310.063 228.062 310.55C227.307 311.038 226.934 311.669 226.944 312.445C226.934 313.111 227.177 313.653 227.675 314.07C228.182 314.488 229.017 314.831 230.18 315.099L234.088 315.935C236.256 316.402 237.866 317.143 238.92 318.157C239.984 319.171 240.521 320.499 240.531 322.139C240.521 323.581 240.099 324.854 239.263 325.957C238.438 327.051 237.29 327.906 235.818 328.523C234.346 329.139 232.656 329.447 230.747 329.447C227.943 329.447 225.686 328.861 223.976 327.688C222.265 326.504 221.246 324.859 220.918 322.751L226.183 322.244C226.422 323.278 226.929 324.058 227.704 324.585C228.48 325.112 229.489 325.376 230.732 325.376C232.015 325.376 233.044 325.112 233.819 324.585C234.605 324.058 234.998 323.407 234.998 322.631C234.998 321.975 234.744 321.433 234.237 321.006C233.74 320.578 232.964 320.25 231.91 320.021L228.003 319.201C225.805 318.744 224.18 317.973 223.126 316.889C222.072 315.795 221.55 314.413 221.559 312.743C221.55 311.331 221.932 310.108 222.708 309.074C223.493 308.03 224.582 307.224 225.974 306.658C227.376 306.081 228.992 305.793 230.822 305.793C233.506 305.793 235.619 306.364 237.16 307.508C238.711 308.651 239.671 310.197 240.039 312.146ZM263.09 312.146L258.168 312.683C258.029 312.186 257.785 311.719 257.437 311.281C257.099 310.844 256.642 310.491 256.065 310.222C255.488 309.954 254.782 309.82 253.947 309.82C252.823 309.82 251.879 310.063 251.113 310.55C250.357 311.038 249.985 311.669 249.994 312.445C249.985 313.111 250.228 313.653 250.725 314.07C251.232 314.488 252.068 314.831 253.231 315.099L257.139 315.935C259.306 316.402 260.917 317.143 261.971 318.157C263.035 319.171 263.572 320.499 263.582 322.139C263.572 323.581 263.149 324.854 262.314 325.957C261.489 327.051 260.34 327.906 258.869 328.523C257.397 329.139 255.707 329.447 253.798 329.447C250.994 329.447 248.737 328.861 247.026 327.688C245.316 326.504 244.297 324.859 243.969 322.751L249.234 322.244C249.472 323.278 249.98 324.058 250.755 324.585C251.531 325.112 252.54 325.376 253.783 325.376C255.066 325.376 256.095 325.112 256.87 324.585C257.656 324.058 258.048 323.407 258.048 322.631C258.048 321.975 257.795 321.433 257.288 321.006C256.791 320.578 256.015 320.25 254.961 320.021L251.053 319.201C248.856 318.744 247.23 317.973 246.176 316.889C245.122 315.795 244.6 314.413 244.61 312.743C244.6 311.331 244.983 310.108 245.759 309.074C246.544 308.03 247.633 307.224 249.025 306.658C250.427 306.081 252.043 305.793 253.872 305.793C256.557 305.793 258.67 306.364 260.211 307.508C261.762 308.651 262.722 310.197 263.09 312.146ZM268.034 329V306.091H273.433V329H268.034ZM270.748 302.839C269.893 302.839 269.157 302.556 268.541 301.989C267.925 301.413 267.616 300.722 267.616 299.916C267.616 299.101 267.925 298.41 268.541 297.843C269.157 297.266 269.893 296.978 270.748 296.978C271.613 296.978 272.349 297.266 272.956 297.843C273.572 298.41 273.881 299.101 273.881 299.916C273.881 300.722 273.572 301.413 272.956 301.989C272.349 302.556 271.613 302.839 270.748 302.839ZM288.978 329.447C286.741 329.447 284.802 328.955 283.161 327.971C281.521 326.987 280.248 325.609 279.343 323.839C278.448 322.07 278.001 320.001 278.001 317.635C278.001 315.268 278.448 313.195 279.343 311.415C280.248 309.636 281.521 308.254 283.161 307.269C284.802 306.285 286.741 305.793 288.978 305.793C291.215 305.793 293.154 306.285 294.795 307.269C296.435 308.254 297.703 309.636 298.598 311.415C299.503 313.195 299.955 315.268 299.955 317.635C299.955 320.001 299.503 322.07 298.598 323.839C297.703 325.609 296.435 326.987 294.795 327.971C293.154 328.955 291.215 329.447 288.978 329.447ZM289.008 325.122C290.221 325.122 291.235 324.789 292.05 324.123C292.866 323.447 293.472 322.542 293.87 321.408C294.278 320.275 294.482 319.012 294.482 317.62C294.482 316.218 294.278 314.95 293.87 313.817C293.472 312.673 292.866 311.763 292.05 311.087C291.235 310.411 290.221 310.073 289.008 310.073C287.765 310.073 286.731 310.411 285.906 311.087C285.09 311.763 284.479 312.673 284.071 313.817C283.673 314.95 283.474 316.218 283.474 317.62C283.474 319.012 283.673 320.275 284.071 321.408C284.479 322.542 285.09 323.447 285.906 324.123C286.731 324.789 287.765 325.122 289.008 325.122ZM309.937 315.577V329H304.538V306.091H309.698V309.984H309.967C310.494 308.701 311.334 307.682 312.487 306.926C313.651 306.17 315.088 305.793 316.798 305.793C318.379 305.793 319.756 306.131 320.929 306.807C322.112 307.483 323.027 308.462 323.673 309.745C324.33 311.028 324.653 312.584 324.643 314.413V329H319.244V315.249C319.244 313.717 318.846 312.519 318.051 311.654C317.265 310.789 316.176 310.357 314.784 310.357C313.84 310.357 312.999 310.565 312.264 310.983C311.538 311.391 310.966 311.982 310.548 312.758C310.141 313.533 309.937 314.473 309.937 315.577ZM336.724 329.462C335.272 329.462 333.965 329.204 332.801 328.687C331.648 328.16 330.733 327.384 330.057 326.36C329.391 325.336 329.058 324.073 329.058 322.572C329.058 321.279 329.296 320.21 329.774 319.365C330.251 318.52 330.902 317.844 331.727 317.337C332.553 316.83 333.482 316.447 334.517 316.188C335.561 315.92 336.639 315.726 337.753 315.607C339.095 315.467 340.184 315.343 341.019 315.234C341.855 315.114 342.461 314.935 342.839 314.697C343.227 314.448 343.421 314.065 343.421 313.548V313.459C343.421 312.335 343.088 311.465 342.421 310.849C341.755 310.232 340.796 309.924 339.543 309.924C338.22 309.924 337.171 310.212 336.396 310.789C335.63 311.366 335.113 312.047 334.845 312.832L329.803 312.116C330.201 310.724 330.857 309.561 331.772 308.626C332.687 307.682 333.806 306.976 335.128 306.509C336.45 306.031 337.912 305.793 339.513 305.793C340.617 305.793 341.715 305.922 342.809 306.18C343.903 306.439 344.902 306.866 345.807 307.463C346.712 308.05 347.438 308.85 347.985 309.864C348.541 310.879 348.82 312.146 348.82 313.668V329H343.629V325.853H343.45C343.122 326.489 342.66 327.086 342.063 327.643C341.477 328.19 340.736 328.632 339.841 328.97C338.956 329.298 337.917 329.462 336.724 329.462ZM338.126 325.495C339.21 325.495 340.149 325.281 340.945 324.854C341.74 324.416 342.352 323.839 342.779 323.124C343.217 322.408 343.436 321.627 343.436 320.782V318.082C343.267 318.222 342.978 318.351 342.57 318.47C342.173 318.589 341.725 318.694 341.228 318.783C340.731 318.873 340.239 318.952 339.752 319.022C339.264 319.092 338.842 319.151 338.484 319.201C337.678 319.31 336.958 319.489 336.321 319.738C335.685 319.987 335.183 320.335 334.815 320.782C334.447 321.219 334.263 321.786 334.263 322.482C334.263 323.477 334.626 324.227 335.352 324.734C336.078 325.241 337.002 325.495 338.126 325.495ZM359.648 298.455V329H354.249V298.455H359.648ZM114.013 380V349.455H133.879V354.093H119.546V362.386H132.85V367.024H119.546V375.362H133.999V380H114.013ZM143.701 357.091L148.324 365.548L153.022 357.091H158.735L151.829 368.545L158.854 380H153.172L148.324 371.752L143.522 380H137.794L144.775 368.545L137.973 357.091H143.701ZM162.911 388.591V357.091H168.221V360.879H168.534C168.812 360.322 169.205 359.731 169.712 359.104C170.219 358.468 170.905 357.926 171.77 357.479C172.635 357.021 173.739 356.793 175.081 356.793C176.851 356.793 178.447 357.245 179.869 358.15C181.301 359.045 182.434 360.372 183.27 362.132C184.115 363.882 184.537 366.03 184.537 368.575C184.537 371.091 184.125 373.229 183.299 374.989C182.474 376.749 181.35 378.091 179.929 379.016C178.507 379.94 176.896 380.403 175.096 380.403C173.784 380.403 172.695 380.184 171.83 379.746C170.965 379.309 170.269 378.782 169.742 378.165C169.225 377.539 168.822 376.947 168.534 376.391H168.31V388.591H162.911ZM168.206 368.545C168.206 370.027 168.414 371.325 168.832 372.438C169.26 373.552 169.871 374.422 170.667 375.048C171.472 375.665 172.446 375.973 173.59 375.973C174.783 375.973 175.782 375.655 176.588 375.018C177.393 374.372 178 373.492 178.407 372.379C178.825 371.255 179.034 369.977 179.034 368.545C179.034 367.124 178.83 365.861 178.422 364.757C178.015 363.653 177.408 362.788 176.603 362.162C175.797 361.536 174.793 361.222 173.59 361.222C172.436 361.222 171.457 361.526 170.652 362.132C169.846 362.739 169.235 363.589 168.817 364.683C168.409 365.776 168.206 367.064 168.206 368.545ZM199.303 380.447C197.006 380.447 195.022 379.97 193.352 379.016C191.691 378.051 190.414 376.689 189.519 374.929C188.624 373.159 188.176 371.076 188.176 368.68C188.176 366.323 188.624 364.255 189.519 362.475C190.424 360.685 191.686 359.293 193.307 358.299C194.928 357.295 196.832 356.793 199.02 356.793C200.431 356.793 201.764 357.021 203.017 357.479C204.279 357.926 205.393 358.622 206.358 359.567C207.332 360.511 208.098 361.714 208.654 363.176C209.211 364.628 209.49 366.358 209.49 368.366V370.022H190.712V366.383H204.314C204.304 365.349 204.081 364.429 203.643 363.624C203.206 362.808 202.594 362.167 201.809 361.7C201.033 361.232 200.128 360.999 199.094 360.999C197.99 360.999 197.021 361.267 196.186 361.804C195.35 362.331 194.699 363.027 194.232 363.892C193.775 364.747 193.541 365.687 193.531 366.711V369.888C193.531 371.22 193.775 372.364 194.262 373.318C194.749 374.263 195.43 374.989 196.305 375.496C197.18 375.993 198.204 376.241 199.377 376.241C200.163 376.241 200.874 376.132 201.51 375.913C202.147 375.685 202.699 375.352 203.166 374.914C203.633 374.477 203.986 373.935 204.225 373.288L209.266 373.855C208.948 375.187 208.341 376.351 207.446 377.345C206.561 378.33 205.428 379.095 204.046 379.642C202.664 380.179 201.083 380.447 199.303 380.447ZM214.057 380V357.091H219.292V360.909H219.531C219.949 359.587 220.665 358.567 221.679 357.852C222.703 357.126 223.871 356.763 225.184 356.763C225.482 356.763 225.815 356.778 226.183 356.808C226.561 356.827 226.874 356.862 227.123 356.912V361.879C226.894 361.799 226.531 361.729 226.034 361.67C225.547 361.6 225.074 361.565 224.617 361.565C223.633 361.565 222.748 361.779 221.962 362.207C221.187 362.624 220.575 363.206 220.128 363.952C219.68 364.697 219.456 365.558 219.456 366.532V380H214.057ZM230.71 380V357.091H236.109V380H230.71ZM233.424 353.839C232.569 353.839 231.833 353.556 231.217 352.989C230.6 352.413 230.292 351.722 230.292 350.916C230.292 350.101 230.6 349.41 231.217 348.843C231.833 348.266 232.569 347.978 233.424 347.978C234.289 347.978 235.025 348.266 235.632 348.843C236.248 349.41 236.556 350.101 236.556 350.916C236.556 351.722 236.248 352.413 235.632 352.989C235.025 353.556 234.289 353.839 233.424 353.839ZM251.803 380.447C249.506 380.447 247.522 379.97 245.852 379.016C244.191 378.051 242.914 376.689 242.019 374.929C241.124 373.159 240.676 371.076 240.676 368.68C240.676 366.323 241.124 364.255 242.019 362.475C242.924 360.685 244.186 359.293 245.807 358.299C247.428 357.295 249.332 356.793 251.52 356.793C252.931 356.793 254.264 357.021 255.517 357.479C256.779 357.926 257.893 358.622 258.858 359.567C259.832 360.511 260.598 361.714 261.154 363.176C261.711 364.628 261.99 366.358 261.99 368.366V370.022H243.212V366.383H256.814C256.804 365.349 256.581 364.429 256.143 363.624C255.706 362.808 255.094 362.167 254.309 361.7C253.533 361.232 252.628 360.999 251.594 360.999C250.49 360.999 249.521 361.267 248.686 361.804C247.85 362.331 247.199 363.027 246.732 363.892C246.275 364.747 246.041 365.687 246.031 366.711V369.888C246.031 371.22 246.275 372.364 246.762 373.318C247.249 374.263 247.93 374.989 248.805 375.496C249.68 375.993 250.704 376.241 251.877 376.241C252.663 376.241 253.374 376.132 254.01 375.913C254.647 375.685 255.199 375.352 255.666 374.914C256.133 374.477 256.486 373.935 256.725 373.288L261.766 373.855C261.448 375.187 260.841 376.351 259.946 377.345C259.061 378.33 257.928 379.095 256.546 379.642C255.164 380.179 253.583 380.447 251.803 380.447ZM271.956 366.577V380H266.557V357.091H271.718V360.984H271.986C272.513 359.701 273.354 358.682 274.507 357.926C275.67 357.17 277.107 356.793 278.817 356.793C280.398 356.793 281.775 357.131 282.949 357.807C284.132 358.483 285.047 359.462 285.693 360.745C286.349 362.028 286.672 363.584 286.662 365.413V380H281.263V366.249C281.263 364.717 280.866 363.519 280.07 362.654C279.285 361.789 278.196 361.357 276.804 361.357C275.859 361.357 275.019 361.565 274.283 361.983C273.557 362.391 272.986 362.982 272.568 363.758C272.16 364.533 271.956 365.473 271.956 366.577ZM302.144 380.447C299.857 380.447 297.893 379.945 296.253 378.941C294.622 377.937 293.364 376.55 292.479 374.78C291.604 373 291.167 370.952 291.167 368.635C291.167 366.308 291.614 364.255 292.509 362.475C293.404 360.685 294.667 359.293 296.297 358.299C297.938 357.295 299.877 356.793 302.114 356.793C303.974 356.793 305.619 357.136 307.051 357.822C308.493 358.498 309.641 359.457 310.496 360.7C311.351 361.933 311.839 363.375 311.958 365.026H306.797C306.589 363.922 306.091 363.002 305.306 362.266C304.53 361.521 303.491 361.148 302.189 361.148C301.085 361.148 300.116 361.446 299.28 362.043C298.445 362.629 297.794 363.474 297.327 364.578C296.869 365.682 296.64 367.004 296.64 368.545C296.64 370.107 296.869 371.449 297.327 372.572C297.784 373.686 298.425 374.546 299.251 375.153C300.086 375.749 301.065 376.048 302.189 376.048C302.984 376.048 303.695 375.898 304.322 375.6C304.958 375.292 305.49 374.849 305.917 374.273C306.345 373.696 306.638 372.995 306.797 372.17H311.958C311.829 373.79 311.351 375.227 310.526 376.48C309.701 377.723 308.577 378.697 307.155 379.403C305.733 380.099 304.063 380.447 302.144 380.447ZM326.533 380.447C324.237 380.447 322.253 379.97 320.582 379.016C318.922 378.051 317.644 376.689 316.749 374.929C315.854 373.159 315.407 371.076 315.407 368.68C315.407 366.323 315.854 364.255 316.749 362.475C317.654 360.685 318.917 359.293 320.538 358.299C322.158 357.295 324.062 356.793 326.25 356.793C327.662 356.793 328.994 357.021 330.247 357.479C331.51 357.926 332.624 358.622 333.588 359.567C334.563 360.511 335.328 361.714 335.885 363.176C336.442 364.628 336.72 366.358 336.72 368.366V370.022H317.942V366.383H331.545C331.535 365.349 331.311 364.429 330.874 363.624C330.436 362.808 329.825 362.167 329.039 361.7C328.263 361.232 327.359 360.999 326.325 360.999C325.221 360.999 324.251 361.267 323.416 361.804C322.581 362.331 321.93 363.027 321.462 363.892C321.005 364.747 320.771 365.687 320.761 366.711V369.888C320.761 371.22 321.005 372.364 321.492 373.318C321.979 374.263 322.661 374.989 323.536 375.496C324.411 375.993 325.435 376.241 326.608 376.241C327.393 376.241 328.104 376.132 328.741 375.913C329.377 375.685 329.929 375.352 330.396 374.914C330.864 374.477 331.217 373.935 331.455 373.288L336.496 373.855C336.178 375.187 335.572 376.351 334.677 377.345C333.792 378.33 332.658 379.095 331.276 379.642C329.894 380.179 328.313 380.447 326.533 380.447Z" fill="white"/>
<path d="M163.5 155.625H181.875V160.875H163.5V155.625ZM168.75 166.125H176.625V171.375H168.75V166.125ZM181.875 150.375H176.625C176.625 147.487 177.675 145.125 179.775 143.025L181.088 141.713C183.188 139.613 184.5 136.463 184.5 133.312C184.5 126.75 179.25 121.5 172.688 121.5C166.125 121.5 160.875 126.75 160.875 133.312C160.875 136.463 162.187 139.35 164.287 141.713L165.6 143.025C167.7 145.125 168.75 147.487 168.75 150.375H163.5C163.5 149.062 162.975 147.75 161.925 146.7L160.612 145.388C157.462 142.238 155.625 137.775 155.625 133.312C155.625 123.863 163.238 116.25 172.688 116.25C182.137 116.25 189.75 123.863 189.75 133.312C189.75 137.775 187.913 142.238 184.763 145.388L183.45 146.7C182.4 147.75 181.875 149.062 181.875 150.375ZM126.75 147.75H147.75V153H126.75V147.75Z" fill="#FAD100"/>
<path d="M142.5 142.5C143.95 142.5 145.125 141.325 145.125 139.875C145.125 138.425 143.95 137.25 142.5 137.25C141.05 137.25 139.875 138.425 139.875 139.875C139.875 141.325 141.05 142.5 142.5 142.5Z" fill="#FAD100"/>
<path d="M126.75 137.25H134.625V142.5H126.75V137.25ZM126.75 126.75H145.125V132H126.75V126.75ZM137.25 116.25H155.625V121.5H137.25V116.25Z" fill="#FAD100"/>
<path d="M129.375 121.5C130.825 121.5 132 120.325 132 118.875C132 117.425 130.825 116.25 129.375 116.25C127.925 116.25 126.75 117.425 126.75 118.875C126.75 120.325 127.925 121.5 129.375 121.5Z" fill="#FAD100"/>
<path d="M153 105.75H163.5V111H153V105.75Z" fill="#FAD100"/>
<path d="M145.125 111C146.575 111 147.75 109.825 147.75 108.375C147.75 106.925 146.575 105.75 145.125 105.75C143.675 105.75 142.5 106.925 142.5 108.375C142.5 109.825 143.675 111 145.125 111Z" fill="#FAD100"/>
<path d="M126.75 105.75H137.25V111H126.75V105.75Z" fill="#FAD100"/>
<path d="M158.25 163.5H121.5V100.5H168.75V111H174V100.5C174 97.6125 171.638 95.25 168.75 95.25H121.5C118.612 95.25 116.25 97.6125 116.25 100.5V163.5C116.25 166.388 118.612 168.75 121.5 168.75H158.25V163.5Z" fill="#FAD100"/>
<defs>
<filter id="filter0_d_120_247" x="0" y="0" width="516" height="516" filterUnits="userSpaceOnUse" color-interpolation-filters="sRGB">
<feFlood flood-opacity="0" result="BackgroundImageFix"/>
<feColorMatrix in="SourceAlpha" type="matrix" values="0 0 0 0 0 0 0 0 0 0 0 0 0 0 0 0 0 0 127 0" result="hardAlpha"/>
<feOffset dx="-12" dy="12"/>
<feGaussianBlur stdDeviation="24"/>
<feComposite in2="hardAlpha" operator="out"/>
<feColorMatrix type="matrix" values="0 0 0 0 0 0 0 0 0 0 0 0 0 0 0 0 0 0 0.25 0"/>
<feBlend mode="normal" in2="BackgroundImageFix" result="effect1_dropShadow_120_247"/>
<feBlend mode="normal" in="SourceGraphic" in2="effect1_dropShadow_120_247" result="shape"/>
</filter>
</defs>
</svg>
