<svg width="516" height="516" viewBox="0 0 516 516" fill="none" xmlns="http://www.w3.org/2000/svg">
<g filter="url(#filter0_d_120_200)">
<rect x="60" y="36" width="420" height="420" fill="#091F48"/>
</g>
<path d="M134.599 262.716C130.781 262.716 127.381 262.06 124.398 260.747C121.432 259.418 119.088 257.594 117.366 255.276C115.662 252.94 114.784 250.247 114.733 247.196H125.881C125.949 248.474 126.366 249.599 127.134 250.571C127.918 251.526 128.957 252.267 130.253 252.795C131.548 253.324 133.006 253.588 134.625 253.588C136.312 253.588 137.804 253.29 139.099 252.693C140.395 252.097 141.409 251.27 142.142 250.213C142.875 249.156 143.241 247.937 143.241 246.557C143.241 245.159 142.849 243.923 142.065 242.849C141.298 241.759 140.19 240.906 138.741 240.293C137.31 239.679 135.605 239.372 133.628 239.372H128.744V231.241H133.628C135.298 231.241 136.773 230.952 138.051 230.372C139.347 229.793 140.352 228.991 141.068 227.969C141.784 226.929 142.142 225.719 142.142 224.338C142.142 223.026 141.827 221.875 141.196 220.886C140.582 219.881 139.713 219.097 138.588 218.534C137.48 217.972 136.185 217.69 134.702 217.69C133.202 217.69 131.83 217.963 130.585 218.509C129.341 219.037 128.344 219.795 127.594 220.784C126.844 221.773 126.443 222.932 126.392 224.261H115.781C115.832 221.244 116.693 218.585 118.364 216.284C120.034 213.983 122.284 212.185 125.114 210.889C127.96 209.577 131.173 208.92 134.753 208.92C138.366 208.92 141.528 209.577 144.239 210.889C146.949 212.202 149.054 213.974 150.554 216.207C152.071 218.423 152.821 220.912 152.804 223.673C152.821 226.605 151.909 229.051 150.068 231.011C148.244 232.972 145.866 234.216 142.935 234.744V235.153C146.787 235.648 149.719 236.986 151.73 239.168C153.759 241.332 154.764 244.043 154.747 247.298C154.764 250.281 153.903 252.932 152.165 255.25C150.443 257.568 148.065 259.392 145.031 260.722C141.997 262.051 138.52 262.716 134.599 262.716ZM181.83 262.716C178.217 262.716 174.995 262.051 172.165 260.722C169.353 259.392 167.12 257.56 165.467 255.224C163.813 252.889 162.952 250.213 162.884 247.196H173.623C173.742 249.224 174.594 250.869 176.18 252.131C177.765 253.392 179.648 254.023 181.83 254.023C183.569 254.023 185.103 253.639 186.433 252.872C187.779 252.088 188.827 251.006 189.577 249.625C190.344 248.227 190.728 246.625 190.728 244.818C190.728 242.977 190.336 241.358 189.552 239.96C188.785 238.562 187.719 237.472 186.356 236.688C184.992 235.903 183.433 235.503 181.677 235.486C180.143 235.486 178.651 235.801 177.202 236.432C175.771 237.062 174.654 237.923 173.853 239.014L164.009 237.25L166.489 209.636H198.501V218.688H175.617L174.262 231.804H174.569C175.489 230.509 176.879 229.435 178.737 228.582C180.594 227.73 182.674 227.304 184.975 227.304C188.129 227.304 190.941 228.045 193.413 229.528C195.884 231.011 197.836 233.048 199.268 235.639C200.7 238.213 201.407 241.179 201.39 244.537C201.407 248.065 200.589 251.202 198.935 253.946C197.299 256.673 195.006 258.821 192.058 260.389C189.126 261.94 185.717 262.716 181.83 262.716ZM229.643 263.151C225.245 263.134 221.461 262.051 218.29 259.903C215.137 257.756 212.708 254.645 211.004 250.571C209.316 246.497 208.481 241.597 208.498 235.869C208.498 230.159 209.342 225.293 211.029 221.27C212.734 217.247 215.163 214.187 218.316 212.091C221.487 209.977 225.262 208.92 229.643 208.92C234.023 208.92 237.79 209.977 240.944 212.091C244.114 214.205 246.552 217.273 248.256 221.295C249.961 225.301 250.805 230.159 250.788 235.869C250.788 241.614 249.935 246.523 248.231 250.597C246.543 254.67 244.123 257.781 240.969 259.929C237.816 262.077 234.04 263.151 229.643 263.151ZM229.643 253.972C232.643 253.972 235.038 252.463 236.827 249.446C238.617 246.429 239.504 241.903 239.487 235.869C239.487 231.898 239.077 228.591 238.259 225.949C237.458 223.307 236.316 221.321 234.833 219.991C233.367 218.662 231.637 217.997 229.643 217.997C226.66 217.997 224.273 219.489 222.484 222.472C220.694 225.455 219.79 229.92 219.773 235.869C219.773 239.892 220.174 243.25 220.975 245.943C221.793 248.619 222.944 250.631 224.427 251.977C225.91 253.307 227.648 253.972 229.643 253.972ZM258.989 262V209.636H270.06V232.724H270.75L289.594 209.636H302.864L283.432 233.082L303.094 262H289.849L275.506 240.472L270.06 247.119V262H258.989ZM320.806 254.023V217.818H329.96V254.023H320.806ZM307.281 240.497V231.344H343.485V240.497H307.281Z" fill="white"/>
<path d="M113.774 329V306.091H118.935V309.984H119.203C119.68 308.671 120.471 307.647 121.575 306.911C122.678 306.165 123.996 305.793 125.527 305.793C127.078 305.793 128.386 306.17 129.45 306.926C130.523 307.672 131.279 308.691 131.717 309.984H131.955C132.462 308.711 133.317 307.697 134.521 306.941C135.734 306.175 137.17 305.793 138.831 305.793C140.939 305.793 142.659 306.459 143.991 307.791C145.324 309.124 145.99 311.067 145.99 313.623V329H140.576V314.458C140.576 313.036 140.198 311.997 139.442 311.341C138.687 310.675 137.762 310.342 136.668 310.342C135.366 310.342 134.347 310.749 133.611 311.565C132.885 312.37 132.522 313.419 132.522 314.712V329H127.227V314.234C127.227 313.051 126.869 312.107 126.153 311.401C125.447 310.695 124.523 310.342 123.379 310.342C122.604 310.342 121.898 310.54 121.261 310.938C120.625 311.326 120.118 311.878 119.74 312.594C119.362 313.3 119.173 314.125 119.173 315.07V329H113.774ZM158.06 329.462C156.608 329.462 155.301 329.204 154.137 328.687C152.984 328.16 152.069 327.384 151.393 326.36C150.727 325.336 150.394 324.073 150.394 322.572C150.394 321.279 150.632 320.21 151.11 319.365C151.587 318.52 152.238 317.844 153.063 317.337C153.889 316.83 154.818 316.447 155.852 316.188C156.896 315.92 157.975 315.726 159.089 315.607C160.431 315.467 161.52 315.343 162.355 315.234C163.191 315.114 163.797 314.935 164.175 314.697C164.563 314.448 164.757 314.065 164.757 313.548V313.459C164.757 312.335 164.423 311.465 163.757 310.849C163.091 310.232 162.132 309.924 160.879 309.924C159.556 309.924 158.507 310.212 157.732 310.789C156.966 311.366 156.449 312.047 156.181 312.832L151.139 312.116C151.537 310.724 152.193 309.561 153.108 308.626C154.023 307.682 155.142 306.976 156.464 306.509C157.786 306.031 159.248 305.793 160.849 305.793C161.953 305.793 163.051 305.922 164.145 306.18C165.239 306.439 166.238 306.866 167.143 307.463C168.048 308.05 168.774 308.85 169.32 309.864C169.877 310.879 170.156 312.146 170.156 313.668V329H164.965V325.853H164.786C164.458 326.489 163.996 327.086 163.399 327.643C162.813 328.19 162.072 328.632 161.177 328.97C160.292 329.298 159.253 329.462 158.06 329.462ZM159.462 325.495C160.546 325.495 161.485 325.281 162.281 324.854C163.076 324.416 163.688 323.839 164.115 323.124C164.553 322.408 164.771 321.627 164.771 320.782V318.082C164.602 318.222 164.314 318.351 163.906 318.47C163.509 318.589 163.061 318.694 162.564 318.783C162.067 318.873 161.575 318.952 161.088 319.022C160.6 319.092 160.178 319.151 159.82 319.201C159.014 319.31 158.294 319.489 157.657 319.738C157.021 319.987 156.519 320.335 156.151 320.782C155.783 321.219 155.599 321.786 155.599 322.482C155.599 323.477 155.962 324.227 156.688 324.734C157.414 325.241 158.338 325.495 159.462 325.495ZM180.984 315.577V329H175.585V306.091H180.745V309.984H181.014C181.541 308.701 182.381 307.682 183.534 306.926C184.698 306.17 186.134 305.793 187.845 305.793C189.426 305.793 190.803 306.131 191.976 306.807C193.159 307.483 194.074 308.462 194.72 309.745C195.377 311.028 195.7 312.584 195.69 314.413V329H190.291V315.249C190.291 313.717 189.893 312.519 189.097 311.654C188.312 310.789 187.223 310.357 185.831 310.357C184.887 310.357 184.046 310.565 183.311 310.983C182.585 311.391 182.013 311.982 181.595 312.758C181.188 313.533 180.984 314.473 180.984 315.577ZM215.78 319.365V306.091H221.179V329H215.944V324.928H215.705C215.188 326.211 214.338 327.26 213.155 328.075C211.982 328.891 210.535 329.298 208.815 329.298C207.313 329.298 205.986 328.965 204.833 328.299C203.689 327.623 202.794 326.643 202.148 325.361C201.502 324.068 201.178 322.507 201.178 320.678V306.091H206.578V319.842C206.578 321.294 206.975 322.447 207.771 323.303C208.566 324.158 209.61 324.585 210.903 324.585C211.698 324.585 212.469 324.391 213.215 324.004C213.96 323.616 214.572 323.039 215.049 322.273C215.536 321.498 215.78 320.528 215.78 319.365ZM238.335 306.091V310.267H224.792V306.091H238.335ZM228.178 329V303.928C228.178 302.387 228.496 301.104 229.132 300.08C229.779 299.056 230.644 298.29 231.728 297.783C232.811 297.276 234.015 297.023 235.337 297.023C236.272 297.023 237.102 297.097 237.828 297.246C238.554 297.396 239.091 297.53 239.439 297.649L238.365 301.825C238.136 301.756 237.848 301.686 237.5 301.616C237.152 301.537 236.764 301.497 236.336 301.497C235.332 301.497 234.621 301.741 234.203 302.228C233.796 302.705 233.592 303.391 233.592 304.286V329H228.178ZM248.376 329.462C246.925 329.462 245.617 329.204 244.454 328.687C243.3 328.16 242.385 327.384 241.709 326.36C241.043 325.336 240.71 324.073 240.71 322.572C240.71 321.279 240.949 320.21 241.426 319.365C241.903 318.52 242.555 317.844 243.38 317.337C244.205 316.83 245.135 316.447 246.169 316.188C247.213 315.92 248.292 315.726 249.405 315.607C250.748 315.467 251.836 315.343 252.672 315.234C253.507 315.114 254.113 314.935 254.491 314.697C254.879 314.448 255.073 314.065 255.073 313.548V313.459C255.073 312.335 254.74 311.465 254.074 310.849C253.407 310.232 252.448 309.924 251.195 309.924C249.873 309.924 248.824 310.212 248.048 310.789C247.282 311.366 246.765 312.047 246.497 312.832L241.456 312.116C241.854 310.724 242.51 309.561 243.425 308.626C244.339 307.682 245.458 306.976 246.78 306.509C248.103 306.031 249.564 305.793 251.165 305.793C252.269 305.793 253.368 305.922 254.461 306.18C255.555 306.439 256.555 306.866 257.459 307.463C258.364 308.05 259.09 308.85 259.637 309.864C260.194 310.879 260.472 312.146 260.472 313.668V329H255.282V325.853H255.103C254.775 326.489 254.312 327.086 253.716 327.643C253.129 328.19 252.388 328.632 251.493 328.97C250.608 329.298 249.569 329.462 248.376 329.462ZM249.778 325.495C250.862 325.495 251.802 325.281 252.597 324.854C253.393 324.416 254.004 323.839 254.432 323.124C254.869 322.408 255.088 321.627 255.088 320.782V318.082C254.919 318.222 254.631 318.351 254.223 318.47C253.825 318.589 253.378 318.694 252.881 318.783C252.383 318.873 251.891 318.952 251.404 319.022C250.917 319.092 250.494 319.151 250.136 319.201C249.331 319.31 248.61 319.489 247.974 319.738C247.337 319.987 246.835 320.335 246.467 320.782C246.099 321.219 245.915 321.786 245.915 322.482C245.915 323.477 246.278 324.227 247.004 324.734C247.73 325.241 248.655 325.495 249.778 325.495ZM275.894 329.447C273.607 329.447 271.643 328.945 270.003 327.941C268.372 326.937 267.114 325.55 266.229 323.78C265.354 322 264.917 319.952 264.917 317.635C264.917 315.308 265.364 313.255 266.259 311.475C267.154 309.685 268.417 308.293 270.047 307.299C271.688 306.295 273.627 305.793 275.864 305.793C277.724 305.793 279.369 306.136 280.801 306.822C282.243 307.498 283.391 308.457 284.246 309.7C285.101 310.933 285.589 312.375 285.708 314.026H280.547C280.339 312.922 279.841 312.002 279.056 311.266C278.28 310.521 277.241 310.148 275.939 310.148C274.835 310.148 273.866 310.446 273.03 311.043C272.195 311.629 271.544 312.474 271.077 313.578C270.619 314.682 270.39 316.004 270.39 317.545C270.39 319.107 270.619 320.449 271.077 321.572C271.534 322.686 272.175 323.546 273.001 324.153C273.836 324.749 274.815 325.048 275.939 325.048C276.734 325.048 277.445 324.898 278.072 324.6C278.708 324.292 279.24 323.849 279.667 323.273C280.095 322.696 280.388 321.995 280.547 321.17H285.708C285.579 322.79 285.101 324.227 284.276 325.48C283.451 326.723 282.327 327.697 280.905 328.403C279.483 329.099 277.813 329.447 275.894 329.447ZM301.581 306.091V310.267H288.411V306.091H301.581ZM291.663 300.602H297.062V322.109C297.062 322.835 297.171 323.392 297.39 323.78C297.619 324.158 297.917 324.416 298.285 324.555C298.653 324.695 299.06 324.764 299.508 324.764C299.846 324.764 300.154 324.739 300.433 324.69C300.721 324.64 300.94 324.595 301.089 324.555L301.999 328.776C301.71 328.876 301.298 328.985 300.761 329.104C300.234 329.224 299.587 329.293 298.822 329.313C297.469 329.353 296.251 329.149 295.168 328.702C294.084 328.244 293.224 327.538 292.587 326.584C291.961 325.629 291.653 324.436 291.663 323.004V300.602ZM320.698 319.365V306.091H326.097V329H320.862V324.928H320.623C320.106 326.211 319.256 327.26 318.073 328.075C316.9 328.891 315.453 329.298 313.733 329.298C312.231 329.298 310.904 328.965 309.751 328.299C308.607 327.623 307.712 326.643 307.066 325.361C306.42 324.068 306.096 322.507 306.096 320.678V306.091H311.496V319.842C311.496 321.294 311.893 322.447 312.689 323.303C313.484 324.158 314.528 324.585 315.821 324.585C316.616 324.585 317.387 324.391 318.133 324.004C318.878 323.616 319.49 323.039 319.967 322.273C320.454 321.498 320.698 320.528 320.698 319.365ZM331.649 329V306.091H336.884V309.909H337.123C337.54 308.587 338.256 307.567 339.271 306.852C340.295 306.126 341.463 305.763 342.776 305.763C343.074 305.763 343.407 305.778 343.775 305.808C344.153 305.827 344.466 305.862 344.714 305.912V310.879C344.486 310.799 344.123 310.729 343.626 310.67C343.138 310.6 342.666 310.565 342.209 310.565C341.224 310.565 340.339 310.779 339.554 311.207C338.778 311.624 338.167 312.206 337.719 312.952C337.272 313.697 337.048 314.558 337.048 315.532V329H331.649ZM357.5 329.447C355.203 329.447 353.22 328.97 351.549 328.016C349.889 327.051 348.611 325.689 347.716 323.929C346.821 322.159 346.374 320.076 346.374 317.68C346.374 315.323 346.821 313.255 347.716 311.475C348.621 309.685 349.884 308.293 351.504 307.299C353.125 306.295 355.029 305.793 357.217 305.793C358.629 305.793 359.961 306.021 361.214 306.479C362.477 306.926 363.59 307.622 364.555 308.567C365.529 309.511 366.295 310.714 366.852 312.176C367.409 313.628 367.687 315.358 367.687 317.366V319.022H348.909V315.383H362.512C362.502 314.349 362.278 313.429 361.84 312.624C361.403 311.808 360.791 311.167 360.006 310.7C359.23 310.232 358.325 309.999 357.291 309.999C356.188 309.999 355.218 310.267 354.383 310.804C353.548 311.331 352.896 312.027 352.429 312.892C351.972 313.747 351.738 314.687 351.728 315.711V318.888C351.728 320.22 351.972 321.364 352.459 322.318C352.946 323.263 353.627 323.989 354.502 324.496C355.377 324.993 356.401 325.241 357.575 325.241C358.36 325.241 359.071 325.132 359.708 324.913C360.344 324.685 360.896 324.352 361.363 323.914C361.83 323.477 362.183 322.935 362.422 322.288L367.463 322.855C367.145 324.187 366.539 325.351 365.644 326.345C364.759 327.33 363.625 328.095 362.243 328.642C360.861 329.179 359.28 329.447 357.5 329.447ZM380.756 329.403C378.956 329.403 377.346 328.94 375.924 328.016C374.502 327.091 373.378 325.749 372.553 323.989C371.728 322.229 371.315 320.091 371.315 317.575C371.315 315.03 371.733 312.882 372.568 311.132C373.413 309.372 374.551 308.045 375.983 307.15C377.415 306.245 379.011 305.793 380.771 305.793C382.113 305.793 383.217 306.021 384.082 306.479C384.947 306.926 385.633 307.468 386.14 308.104C386.647 308.731 387.04 309.322 387.319 309.879H387.542V298.455H392.956V329H387.647V325.391H387.319C387.04 325.947 386.637 326.539 386.11 327.165C385.583 327.782 384.887 328.309 384.022 328.746C383.157 329.184 382.069 329.403 380.756 329.403ZM382.262 324.973C383.406 324.973 384.38 324.665 385.186 324.048C385.991 323.422 386.603 322.552 387.02 321.438C387.438 320.325 387.647 319.027 387.647 317.545C387.647 316.064 387.438 314.776 387.02 313.683C386.613 312.589 386.006 311.739 385.201 311.132C384.405 310.526 383.426 310.222 382.262 310.222C381.059 310.222 380.055 310.536 379.25 311.162C378.444 311.788 377.838 312.653 377.43 313.757C377.022 314.861 376.819 316.124 376.819 317.545C376.819 318.977 377.022 320.255 377.43 321.379C377.848 322.492 378.459 323.372 379.265 324.018C380.08 324.655 381.079 324.973 382.262 324.973ZM113.774 388.591V357.091H119.084V360.879H119.397C119.675 360.322 120.068 359.731 120.575 359.104C121.082 358.468 121.768 357.926 122.634 357.479C123.499 357.021 124.602 356.793 125.945 356.793C127.714 356.793 129.31 357.245 130.732 358.15C132.164 359.045 133.298 360.372 134.133 362.132C134.978 363.882 135.401 366.03 135.401 368.575C135.401 371.091 134.988 373.229 134.163 374.989C133.337 376.749 132.214 378.091 130.792 379.016C129.37 379.94 127.759 380.403 125.96 380.403C124.647 380.403 123.558 380.184 122.693 379.746C121.828 379.309 121.132 378.782 120.605 378.165C120.088 377.539 119.685 376.947 119.397 376.391H119.173V388.591H113.774ZM119.069 368.545C119.069 370.027 119.278 371.325 119.695 372.438C120.123 373.552 120.734 374.422 121.53 375.048C122.335 375.665 123.31 375.973 124.453 375.973C125.646 375.973 126.646 375.655 127.451 375.018C128.256 374.372 128.863 373.492 129.271 372.379C129.688 371.255 129.897 369.977 129.897 368.545C129.897 367.124 129.693 365.861 129.286 364.757C128.878 363.653 128.271 362.788 127.466 362.162C126.661 361.536 125.656 361.222 124.453 361.222C123.3 361.222 122.32 361.526 121.515 362.132C120.71 362.739 120.098 363.589 119.68 364.683C119.273 365.776 119.069 367.064 119.069 368.545ZM146.616 380.462C145.165 380.462 143.857 380.204 142.694 379.687C141.54 379.16 140.626 378.384 139.95 377.36C139.283 376.336 138.95 375.073 138.95 373.572C138.95 372.279 139.189 371.21 139.666 370.365C140.143 369.52 140.795 368.844 141.62 368.337C142.445 367.83 143.375 367.447 144.409 367.188C145.453 366.92 146.532 366.726 147.646 366.607C148.988 366.467 150.077 366.343 150.912 366.234C151.747 366.114 152.354 365.935 152.732 365.697C153.119 365.448 153.313 365.065 153.313 364.548V364.459C153.313 363.335 152.98 362.465 152.314 361.849C151.648 361.232 150.688 360.924 149.435 360.924C148.113 360.924 147.064 361.212 146.288 361.789C145.523 362.366 145.006 363.047 144.737 363.832L139.696 363.116C140.094 361.724 140.75 360.561 141.665 359.626C142.58 358.682 143.698 357.976 145.021 357.509C146.343 357.031 147.805 356.793 149.406 356.793C150.509 356.793 151.608 356.922 152.702 357.18C153.795 357.439 154.795 357.866 155.7 358.463C156.604 359.05 157.33 359.85 157.877 360.864C158.434 361.879 158.712 363.146 158.712 364.668V380H153.522V376.853H153.343C153.015 377.489 152.553 378.086 151.956 378.643C151.369 379.19 150.629 379.632 149.734 379.97C148.849 380.298 147.81 380.462 146.616 380.462ZM148.018 376.495C149.102 376.495 150.042 376.281 150.837 375.854C151.633 375.416 152.244 374.839 152.672 374.124C153.109 373.408 153.328 372.627 153.328 371.782V369.082C153.159 369.222 152.871 369.351 152.463 369.47C152.065 369.589 151.618 369.694 151.121 369.783C150.624 369.873 150.131 369.952 149.644 370.022C149.157 370.092 148.734 370.151 148.376 370.201C147.571 370.31 146.85 370.489 146.214 370.738C145.577 370.987 145.075 371.335 144.707 371.782C144.339 372.219 144.156 372.786 144.156 373.482C144.156 374.477 144.518 375.227 145.244 375.734C145.97 376.241 146.895 376.495 148.018 376.495ZM164.141 380V357.091H169.376V360.909H169.615C170.033 359.587 170.749 358.567 171.763 357.852C172.787 357.126 173.955 356.763 175.268 356.763C175.566 356.763 175.899 356.778 176.267 356.808C176.645 356.827 176.958 356.862 177.207 356.912V361.879C176.978 361.799 176.615 361.729 176.118 361.67C175.631 361.6 175.158 361.565 174.701 361.565C173.717 361.565 172.832 361.779 172.046 362.207C171.271 362.624 170.659 363.206 170.212 363.952C169.764 364.697 169.54 365.558 169.54 366.532V380H164.141ZM193.464 357.091V361.267H180.294V357.091H193.464ZM183.545 351.602H188.945V373.109C188.945 373.835 189.054 374.392 189.273 374.78C189.501 375.158 189.8 375.416 190.168 375.555C190.536 375.695 190.943 375.764 191.391 375.764C191.729 375.764 192.037 375.739 192.315 375.69C192.604 375.64 192.822 375.595 192.972 375.555L193.881 379.776C193.593 379.876 193.18 379.985 192.643 380.104C192.116 380.224 191.47 380.293 190.705 380.313C189.352 380.353 188.134 380.149 187.05 379.702C185.967 379.244 185.107 378.538 184.47 377.584C183.844 376.629 183.536 375.436 183.545 374.004V351.602ZM215.758 363.146L210.836 363.683C210.697 363.186 210.453 362.719 210.105 362.281C209.767 361.844 209.309 361.491 208.733 361.222C208.156 360.954 207.45 360.82 206.615 360.82C205.491 360.82 204.547 361.063 203.781 361.55C203.025 362.038 202.653 362.669 202.662 363.445C202.653 364.111 202.896 364.653 203.393 365.07C203.9 365.488 204.736 365.831 205.899 366.099L209.807 366.935C211.974 367.402 213.585 368.143 214.639 369.157C215.703 370.171 216.24 371.499 216.25 373.139C216.24 374.581 215.817 375.854 214.982 376.957C214.157 378.051 213.008 378.906 211.537 379.523C210.065 380.139 208.375 380.447 206.466 380.447C203.662 380.447 201.405 379.861 199.694 378.688C197.984 377.504 196.965 375.859 196.637 373.751L201.902 373.244C202.14 374.278 202.648 375.058 203.423 375.585C204.199 376.112 205.208 376.376 206.451 376.376C207.733 376.376 208.763 376.112 209.538 375.585C210.324 375.058 210.716 374.407 210.716 373.631C210.716 372.975 210.463 372.433 209.956 372.006C209.459 371.578 208.683 371.25 207.629 371.021L203.721 370.201C201.524 369.744 199.898 368.973 198.844 367.889C197.79 366.795 197.268 365.413 197.278 363.743C197.268 362.331 197.651 361.108 198.427 360.074C199.212 359.03 200.301 358.224 201.693 357.658C203.095 357.081 204.711 356.793 206.54 356.793C209.225 356.793 211.338 357.364 212.879 358.508C214.43 359.651 215.39 361.197 215.758 363.146Z" fill="white"/>
<path d="M121.5 101.25C121.5 99.8576 122.053 98.5223 123.038 97.5377C124.022 96.5531 125.358 96 126.75 96H179.25C180.642 96 181.978 96.5531 182.962 97.5377C183.947 98.5223 184.5 99.8576 184.5 101.25V135.375C184.5 136.071 184.223 136.739 183.731 137.231C183.239 137.723 182.571 138 181.875 138C181.179 138 180.511 137.723 180.019 137.231C179.527 136.739 179.25 136.071 179.25 135.375V101.25H126.75V174.75H142.5V161.625C142.5 160.929 142.777 160.261 143.269 159.769C143.761 159.277 144.429 159 145.125 159H153V180H126.75C125.358 180 124.022 179.447 123.038 178.462C122.053 177.478 121.5 176.142 121.5 174.75V101.25Z" fill="#FAD100"/>
<path d="M134.625 106.5C133.929 106.5 133.261 106.777 132.769 107.269C132.277 107.761 132 108.429 132 109.125V114.375C132 115.071 132.277 115.739 132.769 116.231C133.261 116.723 133.929 117 134.625 117H139.875C140.571 117 141.239 116.723 141.731 116.231C142.223 115.739 142.5 115.071 142.5 114.375V109.125C142.5 108.429 142.223 107.761 141.731 107.269C141.239 106.777 140.571 106.5 139.875 106.5H134.625ZM150.375 106.5C149.679 106.5 149.011 106.777 148.519 107.269C148.027 107.761 147.75 108.429 147.75 109.125V114.375C147.75 115.071 148.027 115.739 148.519 116.231C149.011 116.723 149.679 117 150.375 117H155.625C156.321 117 156.989 116.723 157.481 116.231C157.973 115.739 158.25 115.071 158.25 114.375V109.125C158.25 108.429 157.973 107.761 157.481 107.269C156.989 106.777 156.321 106.5 155.625 106.5H150.375ZM166.125 106.5C165.429 106.5 164.761 106.777 164.269 107.269C163.777 107.761 163.5 108.429 163.5 109.125V114.375C163.5 115.071 163.777 115.739 164.269 116.231C164.761 116.723 165.429 117 166.125 117H171.375C172.071 117 172.739 116.723 173.231 116.231C173.723 115.739 174 115.071 174 114.375V109.125C174 108.429 173.723 107.761 173.231 107.269C172.739 106.777 172.071 106.5 171.375 106.5H166.125ZM134.625 122.25C133.929 122.25 133.261 122.527 132.769 123.019C132.277 123.511 132 124.179 132 124.875V130.125C132 130.821 132.277 131.489 132.769 131.981C133.261 132.473 133.929 132.75 134.625 132.75H139.875C140.571 132.75 141.239 132.473 141.731 131.981C142.223 131.489 142.5 130.821 142.5 130.125V124.875C142.5 124.179 142.223 123.511 141.731 123.019C141.239 122.527 140.571 122.25 139.875 122.25H134.625ZM150.375 122.25C149.679 122.25 149.011 122.527 148.519 123.019C148.027 123.511 147.75 124.179 147.75 124.875V130.125C147.75 130.821 148.027 131.489 148.519 131.981C149.011 132.473 149.679 132.75 150.375 132.75H155.625C156.321 132.75 156.989 132.473 157.481 131.981C157.973 131.489 158.25 130.821 158.25 130.125V124.875C158.25 124.179 157.973 123.511 157.481 123.019C156.989 122.527 156.321 122.25 155.625 122.25H150.375ZM166.125 122.25C165.429 122.25 164.761 122.527 164.269 123.019C163.777 123.511 163.5 124.179 163.5 124.875V130.125C163.5 130.821 163.777 131.489 164.269 131.981C164.761 132.473 165.429 132.75 166.125 132.75H171.375C172.071 132.75 172.739 132.473 173.231 131.981C173.723 131.489 174 130.821 174 130.125V124.875C174 124.179 173.723 123.511 173.231 123.019C172.739 122.527 172.071 122.25 171.375 122.25H166.125ZM134.625 138C133.929 138 133.261 138.277 132.769 138.769C132.277 139.261 132 139.929 132 140.625V145.875C132 146.571 132.277 147.239 132.769 147.731C133.261 148.223 133.929 148.5 134.625 148.5H139.875C140.571 148.5 141.239 148.223 141.731 147.731C142.223 147.239 142.5 146.571 142.5 145.875V140.625C142.5 139.929 142.223 139.261 141.731 138.769C141.239 138.277 140.571 138 139.875 138H134.625ZM150.375 138C149.679 138 149.011 138.277 148.519 138.769C148.027 139.261 147.75 139.929 147.75 140.625V145.875C147.75 146.571 148.027 147.239 148.519 147.731C149.011 148.223 149.679 148.5 150.375 148.5H155.625C156.321 148.5 156.989 148.223 157.481 147.731C157.973 147.239 158.25 146.571 158.25 145.875V140.625C158.25 139.929 157.973 139.261 157.481 138.769C156.989 138.277 156.321 138 155.625 138H150.375ZM173.401 145.665C174.346 142.447 178.903 142.447 179.854 145.665L180.079 146.442C180.221 146.924 180.468 147.368 180.803 147.742C181.138 148.116 181.553 148.41 182.017 148.602C182.481 148.795 182.982 148.881 183.483 148.854C183.985 148.827 184.474 148.688 184.915 148.447L185.629 148.059C188.574 146.453 191.798 149.676 190.196 152.621L189.803 153.335C189.563 153.776 189.425 154.264 189.398 154.765C189.372 155.266 189.458 155.766 189.651 156.23C189.843 156.693 190.137 157.107 190.51 157.442C190.883 157.777 191.327 158.024 191.808 158.165L192.59 158.401C195.803 159.346 195.803 163.903 192.59 164.854L191.803 165.079C191.322 165.222 190.879 165.47 190.506 165.806C190.133 166.141 189.841 166.556 189.649 167.02C189.458 167.484 189.373 167.985 189.4 168.485C189.428 168.986 189.567 169.475 189.808 169.915L190.196 170.629C191.798 173.574 188.574 176.798 185.629 175.196L184.915 174.803C184.474 174.563 183.986 174.425 183.485 174.398C182.984 174.372 182.484 174.458 182.02 174.651C181.557 174.843 181.143 175.137 180.808 175.51C180.473 175.883 180.226 176.327 180.085 176.808L179.849 177.59C178.904 180.803 174.347 180.803 173.396 177.59L173.171 176.803C173.028 176.322 172.78 175.879 172.444 175.506C172.109 175.133 171.694 174.841 171.23 174.649C170.766 174.458 170.265 174.373 169.765 174.4C169.264 174.428 168.775 174.567 168.335 174.808L167.621 175.196C164.676 176.798 161.452 173.574 163.054 170.629L163.447 169.915C163.687 169.474 163.825 168.986 163.852 168.485C163.878 167.984 163.792 167.484 163.599 167.02C163.407 166.557 163.113 166.143 162.74 165.808C162.367 165.473 161.923 165.226 161.442 165.085L160.665 164.849C157.447 163.904 157.447 159.347 160.665 158.396L161.442 158.171C161.924 158.029 162.368 157.782 162.742 157.447C163.116 157.112 163.41 156.697 163.602 156.233C163.795 155.769 163.881 155.268 163.854 154.767C163.827 154.265 163.688 153.776 163.447 153.335L163.059 152.621C161.453 149.676 164.676 146.452 167.621 148.054L168.335 148.447C168.776 148.687 169.264 148.825 169.765 148.852C170.266 148.878 170.766 148.792 171.23 148.599C171.693 148.407 172.107 148.113 172.442 147.74C172.777 147.367 173.024 146.923 173.165 146.442L173.401 145.665V145.665ZM184.5 161.625C184.5 160.591 184.296 159.567 183.901 158.611C183.505 157.656 182.925 156.788 182.193 156.057C181.462 155.325 180.594 154.745 179.639 154.349C178.683 153.954 177.659 153.75 176.625 153.75C175.591 153.75 174.567 153.954 173.611 154.349C172.656 154.745 171.788 155.325 171.057 156.057C170.325 156.788 169.745 157.656 169.349 158.611C168.954 159.567 168.75 160.591 168.75 161.625C168.75 163.714 169.58 165.717 171.057 167.193C172.533 168.67 174.536 169.5 176.625 169.5C178.714 169.5 180.717 168.67 182.193 167.193C183.67 165.717 184.5 163.714 184.5 161.625V161.625Z" fill="#FAD100"/>
<defs>
<filter id="filter0_d_120_200" x="0" y="0" width="516" height="516" filterUnits="userSpaceOnUse" color-interpolation-filters="sRGB">
<feFlood flood-opacity="0" result="BackgroundImageFix"/>
<feColorMatrix in="SourceAlpha" type="matrix" values="0 0 0 0 0 0 0 0 0 0 0 0 0 0 0 0 0 0 127 0" result="hardAlpha"/>
<feOffset dx="-12" dy="12"/>
<feGaussianBlur stdDeviation="24"/>
<feComposite in2="hardAlpha" operator="out"/>
<feColorMatrix type="matrix" values="0 0 0 0 0 0 0 0 0 0 0 0 0 0 0 0 0 0 0.25 0"/>
<feBlend mode="normal" in2="BackgroundImageFix" result="effect1_dropShadow_120_200"/>
<feBlend mode="normal" in="SourceGraphic" in2="effect1_dropShadow_120_200" result="shape"/>
</filter>
</defs>
</svg>
