<svg width="344" height="344" viewBox="0 0 344 344" fill="none" xmlns="http://www.w3.org/2000/svg">
<g filter="url(#filter0_d_286_61)">
<rect x="40" y="24" width="280" height="280" fill="white"/>
</g>
<path d="M89.733 174.477C87.1875 174.477 84.9205 174.04 82.9318 173.165C80.9545 172.278 79.392 171.062 78.2443 169.517C77.108 167.96 76.5227 166.165 76.4886 164.131H83.9205C83.9659 164.983 84.2443 165.733 84.7557 166.381C85.2784 167.017 85.9716 167.511 86.8352 167.864C87.6989 168.216 88.6705 168.392 89.75 168.392C90.875 168.392 91.8693 168.193 92.733 167.795C93.5966 167.398 94.2727 166.847 94.7614 166.142C95.25 165.437 95.4943 164.625 95.4943 163.705C95.4943 162.773 95.233 161.949 94.7102 161.233C94.1989 160.506 93.4602 159.937 92.4943 159.528C91.5398 159.119 90.4034 158.915 89.0852 158.915H85.8295V153.494H89.0852C90.1989 153.494 91.1818 153.301 92.0341 152.915C92.8977 152.528 93.5682 151.994 94.0455 151.312C94.5227 150.619 94.7614 149.812 94.7614 148.892C94.7614 148.017 94.5511 147.25 94.1307 146.591C93.7216 145.92 93.142 145.398 92.392 145.023C91.6534 144.648 90.7898 144.46 89.8011 144.46C88.8011 144.46 87.8864 144.642 87.0568 145.006C86.2273 145.358 85.5625 145.864 85.0625 146.523C84.5625 147.182 84.2955 147.955 84.2614 148.841H77.1875C77.2216 146.83 77.7955 145.057 78.9091 143.523C80.0227 141.989 81.5227 140.79 83.4091 139.926C85.3068 139.051 87.4489 138.614 89.8352 138.614C92.2443 138.614 94.3523 139.051 96.1591 139.926C97.9659 140.801 99.3693 141.983 100.369 143.472C101.381 144.949 101.881 146.608 101.869 148.449C101.881 150.403 101.273 152.034 100.045 153.341C98.8295 154.648 97.2443 155.477 95.2898 155.83V156.102C97.858 156.432 99.8125 157.324 101.153 158.778C102.506 160.222 103.176 162.028 103.165 164.199C103.176 166.188 102.602 167.955 101.443 169.5C100.295 171.045 98.7102 172.261 96.6875 173.148C94.6648 174.034 92.3466 174.477 89.733 174.477ZM121.22 174.477C118.811 174.477 116.663 174.034 114.777 173.148C112.902 172.261 111.413 171.04 110.311 169.483C109.209 167.926 108.635 166.142 108.589 164.131H115.749C115.828 165.483 116.396 166.58 117.453 167.42C118.51 168.261 119.766 168.682 121.22 168.682C122.379 168.682 123.402 168.426 124.288 167.915C125.186 167.392 125.885 166.67 126.385 165.75C126.896 164.818 127.152 163.75 127.152 162.545C127.152 161.318 126.891 160.239 126.368 159.307C125.857 158.375 125.146 157.648 124.237 157.125C123.328 156.602 122.288 156.335 121.118 156.324C120.095 156.324 119.101 156.534 118.135 156.955C117.18 157.375 116.436 157.949 115.902 158.676L109.339 157.5L110.993 139.091H132.334V145.125H117.078L116.175 153.869H116.379C116.993 153.006 117.919 152.29 119.158 151.722C120.396 151.153 121.783 150.869 123.317 150.869C125.419 150.869 127.294 151.364 128.942 152.352C130.589 153.341 131.891 154.699 132.845 156.426C133.8 158.142 134.271 160.119 134.26 162.358C134.271 164.71 133.726 166.801 132.624 168.631C131.533 170.449 130.004 171.881 128.038 172.926C126.084 173.96 123.811 174.477 121.22 174.477ZM153.095 174.767C150.163 174.756 147.641 174.034 145.527 172.602C143.425 171.17 141.805 169.097 140.669 166.381C139.544 163.665 138.987 160.398 138.999 156.58C138.999 152.773 139.561 149.528 140.686 146.847C141.822 144.165 143.442 142.125 145.544 140.727C147.658 139.318 150.175 138.614 153.095 138.614C156.016 138.614 158.527 139.318 160.629 140.727C162.743 142.136 164.368 144.182 165.504 146.864C166.641 149.534 167.203 152.773 167.192 156.58C167.192 160.409 166.624 163.682 165.487 166.398C164.362 169.114 162.749 171.187 160.646 172.619C158.544 174.051 156.027 174.767 153.095 174.767ZM153.095 168.648C155.095 168.648 156.692 167.642 157.885 165.631C159.078 163.619 159.669 160.602 159.658 156.58C159.658 153.932 159.385 151.727 158.839 149.966C158.305 148.205 157.544 146.881 156.555 145.994C155.578 145.108 154.425 144.665 153.095 144.665C151.107 144.665 149.516 145.659 148.322 147.648C147.129 149.636 146.527 152.614 146.516 156.58C146.516 159.261 146.783 161.5 147.317 163.295C147.862 165.08 148.629 166.42 149.618 167.318C150.607 168.205 151.766 168.648 153.095 168.648ZM179.102 166.466L179.119 157.756H180.176L188.562 147.818H196.898L185.631 160.977H183.909L179.102 166.466ZM172.523 174V139.091H179.784V174H172.523ZM188.886 174L181.182 162.597L186.023 157.466L197.392 174H188.886ZM209.933 172.108V147.972H216.036V172.108H209.933ZM200.916 163.091V156.989H225.053V163.091H200.916Z" fill="#021126"/>
<path d="M75.8494 219V203.727H79.2898V206.322H79.4688C79.7869 205.447 80.3139 204.765 81.0497 204.274C81.7855 203.777 82.6638 203.528 83.6847 203.528C84.7188 203.528 85.5904 203.78 86.2997 204.284C87.0156 204.781 87.5194 205.461 87.8111 206.322H87.9702C88.3082 205.474 88.8783 204.798 89.6804 204.294C90.4891 203.784 91.447 203.528 92.554 203.528C93.9593 203.528 95.1061 203.973 95.9943 204.861C96.8826 205.749 97.3267 207.045 97.3267 208.749V219H93.7173V209.305C93.7173 208.357 93.4654 207.665 92.9616 207.227C92.4579 206.783 91.8414 206.561 91.1122 206.561C90.2438 206.561 89.5644 206.833 89.0739 207.376C88.59 207.913 88.348 208.613 88.348 209.474V219H84.8182V209.156C84.8182 208.367 84.5795 207.738 84.1023 207.267C83.6316 206.796 83.0152 206.561 82.2528 206.561C81.7358 206.561 81.2652 206.694 80.8409 206.959C80.4167 207.217 80.0786 207.585 79.8267 208.062C79.5748 208.533 79.4489 209.083 79.4489 209.713V219H75.8494ZM105.373 219.308C104.405 219.308 103.534 219.136 102.758 218.791C101.989 218.44 101.379 217.923 100.929 217.24C100.484 216.557 100.262 215.715 100.262 214.714C100.262 213.853 100.422 213.14 100.74 212.577C101.058 212.013 101.492 211.562 102.042 211.224C102.592 210.886 103.212 210.631 103.902 210.459C104.598 210.28 105.317 210.151 106.059 210.071C106.954 209.978 107.68 209.895 108.237 209.822C108.794 209.743 109.198 209.624 109.45 209.464C109.708 209.299 109.838 209.044 109.838 208.699V208.639C109.838 207.89 109.616 207.31 109.172 206.899C108.727 206.488 108.088 206.283 107.252 206.283C106.371 206.283 105.672 206.475 105.154 206.859C104.644 207.244 104.299 207.698 104.12 208.222L100.76 207.744C101.025 206.816 101.462 206.041 102.072 205.418C102.682 204.788 103.428 204.317 104.309 204.006C105.191 203.688 106.165 203.528 107.233 203.528C107.968 203.528 108.701 203.615 109.43 203.787C110.159 203.959 110.825 204.244 111.429 204.642C112.032 205.033 112.516 205.567 112.88 206.243C113.252 206.919 113.437 207.764 113.437 208.778V219H109.977V216.902H109.858C109.639 217.326 109.331 217.724 108.933 218.095C108.542 218.46 108.048 218.755 107.451 218.98C106.861 219.199 106.169 219.308 105.373 219.308ZM106.308 216.663C107.03 216.663 107.657 216.521 108.187 216.236C108.717 215.944 109.125 215.56 109.41 215.082C109.702 214.605 109.848 214.085 109.848 213.521V211.722C109.735 211.814 109.543 211.901 109.271 211.98C109.006 212.06 108.708 212.129 108.376 212.189C108.045 212.249 107.717 212.302 107.392 212.348C107.067 212.394 106.785 212.434 106.547 212.467C106.01 212.54 105.529 212.66 105.105 212.825C104.681 212.991 104.346 213.223 104.1 213.521C103.855 213.813 103.733 214.191 103.733 214.655C103.733 215.318 103.975 215.818 104.458 216.156C104.942 216.494 105.559 216.663 106.308 216.663ZM120.656 210.051V219H117.056V203.727H120.497V206.322H120.676C121.027 205.467 121.587 204.788 122.356 204.284C123.132 203.78 124.09 203.528 125.23 203.528C126.284 203.528 127.202 203.754 127.984 204.205C128.773 204.655 129.383 205.308 129.814 206.163C130.251 207.018 130.467 208.056 130.46 209.276V219H126.86V209.832C126.86 208.812 126.595 208.013 126.065 207.436C125.541 206.859 124.815 206.571 123.887 206.571C123.258 206.571 122.698 206.71 122.207 206.989C121.723 207.26 121.342 207.655 121.064 208.172C120.792 208.689 120.656 209.315 120.656 210.051ZM143.853 212.577V203.727H147.453V219H143.963V216.286H143.804C143.459 217.141 142.892 217.84 142.103 218.384C141.321 218.927 140.357 219.199 139.21 219.199C138.209 219.199 137.324 218.977 136.555 218.533C135.793 218.082 135.196 217.429 134.765 216.574C134.334 215.712 134.119 214.671 134.119 213.452V203.727H137.718V212.895C137.718 213.863 137.984 214.632 138.514 215.202C139.044 215.772 139.74 216.057 140.602 216.057C141.132 216.057 141.646 215.928 142.143 215.669C142.64 215.411 143.048 215.026 143.366 214.516C143.691 213.999 143.853 213.352 143.853 212.577ZM158.89 203.727V206.511H149.862V203.727H158.89ZM152.119 219V202.286C152.119 201.258 152.331 200.403 152.755 199.72C153.186 199.037 153.763 198.527 154.485 198.189C155.208 197.851 156.01 197.682 156.891 197.682C157.514 197.682 158.068 197.732 158.552 197.831C159.036 197.93 159.394 198.02 159.626 198.099L158.91 200.884C158.757 200.837 158.565 200.791 158.333 200.744C158.101 200.691 157.843 200.665 157.558 200.665C156.888 200.665 156.414 200.827 156.136 201.152C155.864 201.47 155.728 201.928 155.728 202.524V219H152.119ZM165.584 219.308C164.616 219.308 163.745 219.136 162.969 218.791C162.2 218.44 161.59 217.923 161.14 217.24C160.695 216.557 160.473 215.715 160.473 214.714C160.473 213.853 160.632 213.14 160.951 212.577C161.269 212.013 161.703 211.562 162.253 211.224C162.803 210.886 163.423 210.631 164.113 210.459C164.809 210.28 165.528 210.151 166.27 210.071C167.165 209.978 167.891 209.895 168.448 209.822C169.005 209.743 169.409 209.624 169.661 209.464C169.919 209.299 170.049 209.044 170.049 208.699V208.639C170.049 207.89 169.827 207.31 169.382 206.899C168.938 206.488 168.299 206.283 167.463 206.283C166.582 206.283 165.882 206.475 165.365 206.859C164.855 207.244 164.51 207.698 164.331 208.222L160.971 207.744C161.236 206.816 161.673 206.041 162.283 205.418C162.893 204.788 163.639 204.317 164.52 204.006C165.402 203.688 166.376 203.528 167.444 203.528C168.179 203.528 168.912 203.615 169.641 203.787C170.37 203.959 171.036 204.244 171.64 204.642C172.243 205.033 172.727 205.567 173.091 206.243C173.462 206.919 173.648 207.764 173.648 208.778V219H170.188V216.902H170.069C169.85 217.326 169.542 217.724 169.144 218.095C168.753 218.46 168.259 218.755 167.662 218.98C167.072 219.199 166.38 219.308 165.584 219.308ZM166.519 216.663C167.241 216.663 167.868 216.521 168.398 216.236C168.928 215.944 169.336 215.56 169.621 215.082C169.913 214.605 170.059 214.085 170.059 213.521V211.722C169.946 211.814 169.754 211.901 169.482 211.98C169.217 212.06 168.918 212.129 168.587 212.189C168.256 212.249 167.927 212.302 167.603 212.348C167.278 212.394 166.996 212.434 166.757 212.467C166.221 212.54 165.74 212.66 165.316 212.825C164.891 212.991 164.557 213.223 164.311 213.521C164.066 213.813 163.944 214.191 163.944 214.655C163.944 215.318 164.185 215.818 164.669 216.156C165.153 216.494 165.77 216.663 166.519 216.663ZM183.929 219.298C182.405 219.298 181.096 218.964 180.002 218.294C178.915 217.625 178.076 216.7 177.486 215.52C176.903 214.333 176.611 212.968 176.611 211.423C176.611 209.872 176.909 208.503 177.506 207.317C178.103 206.124 178.944 205.196 180.032 204.533C181.125 203.863 182.418 203.528 183.909 203.528C185.149 203.528 186.246 203.757 187.201 204.214C188.162 204.665 188.927 205.305 189.498 206.134C190.068 206.955 190.392 207.917 190.472 209.017H187.032C186.892 208.281 186.561 207.668 186.037 207.178C185.52 206.68 184.828 206.432 183.959 206.432C183.223 206.432 182.577 206.631 182.02 207.028C181.463 207.42 181.029 207.983 180.718 208.719C180.413 209.455 180.26 210.336 180.26 211.364C180.26 212.404 180.413 213.299 180.718 214.048C181.023 214.791 181.45 215.364 182 215.768C182.557 216.166 183.21 216.365 183.959 216.365C184.489 216.365 184.963 216.266 185.381 216.067C185.805 215.861 186.16 215.566 186.445 215.182C186.73 214.797 186.926 214.33 187.032 213.78H190.472C190.386 214.86 190.068 215.818 189.517 216.653C188.967 217.482 188.218 218.132 187.27 218.602C186.322 219.066 185.209 219.298 183.929 219.298ZM201.054 203.727V206.511H192.274V203.727H201.054ZM194.442 200.068H198.041V214.406C198.041 214.89 198.114 215.261 198.26 215.52C198.412 215.772 198.611 215.944 198.857 216.037C199.102 216.13 199.374 216.176 199.672 216.176C199.897 216.176 200.103 216.16 200.288 216.126C200.481 216.093 200.626 216.063 200.726 216.037L201.332 218.851C201.14 218.917 200.865 218.99 200.507 219.07C200.156 219.149 199.725 219.196 199.214 219.209C198.313 219.235 197.501 219.099 196.778 218.801C196.056 218.496 195.482 218.026 195.058 217.389C194.641 216.753 194.435 215.957 194.442 215.003V200.068ZM213.799 212.577V203.727H217.398V219H213.908V216.286H213.749C213.404 217.141 212.837 217.84 212.049 218.384C211.266 218.927 210.302 219.199 209.155 219.199C208.154 219.199 207.269 218.977 206.5 218.533C205.738 218.082 205.141 217.429 204.711 216.574C204.28 215.712 204.064 214.671 204.064 213.452V203.727H207.664V212.895C207.664 213.863 207.929 214.632 208.459 215.202C208.989 215.772 209.685 216.057 210.547 216.057C211.078 216.057 211.591 215.928 212.088 215.669C212.586 215.411 212.993 215.026 213.311 214.516C213.636 213.999 213.799 213.352 213.799 212.577ZM221.099 219V203.727H224.589V206.273H224.749C225.027 205.391 225.504 204.712 226.18 204.234C226.863 203.75 227.642 203.509 228.517 203.509C228.716 203.509 228.938 203.518 229.183 203.538C229.435 203.552 229.644 203.575 229.81 203.608V206.919C229.657 206.866 229.415 206.82 229.084 206.78C228.759 206.733 228.444 206.71 228.139 206.71C227.483 206.71 226.893 206.853 226.369 207.138C225.852 207.416 225.445 207.804 225.146 208.301C224.848 208.798 224.699 209.372 224.699 210.021V219H221.099ZM238.333 219.298C236.802 219.298 235.48 218.98 234.366 218.344C233.259 217.701 232.407 216.793 231.811 215.619C231.214 214.439 230.916 213.051 230.916 211.453C230.916 209.882 231.214 208.503 231.811 207.317C232.414 206.124 233.256 205.196 234.336 204.533C235.417 203.863 236.686 203.528 238.145 203.528C239.086 203.528 239.974 203.681 240.809 203.986C241.651 204.284 242.394 204.748 243.037 205.378C243.686 206.008 244.197 206.81 244.568 207.784C244.939 208.752 245.125 209.905 245.125 211.244V212.348H232.606V209.922H241.674C241.668 209.232 241.519 208.619 241.227 208.082C240.935 207.539 240.528 207.111 240.004 206.8C239.487 206.488 238.884 206.332 238.194 206.332C237.458 206.332 236.812 206.511 236.255 206.869C235.699 207.221 235.264 207.685 234.953 208.261C234.648 208.831 234.492 209.458 234.485 210.141V212.259C234.485 213.147 234.648 213.909 234.973 214.545C235.297 215.175 235.752 215.659 236.335 215.997C236.918 216.329 237.601 216.494 238.383 216.494C238.907 216.494 239.381 216.421 239.805 216.276C240.229 216.123 240.597 215.901 240.909 215.609C241.22 215.318 241.456 214.956 241.615 214.526L244.975 214.903C244.763 215.792 244.359 216.567 243.762 217.23C243.172 217.886 242.417 218.397 241.495 218.761C240.574 219.119 239.52 219.298 238.333 219.298ZM253.837 219.268C252.638 219.268 251.564 218.96 250.616 218.344C249.668 217.727 248.919 216.832 248.369 215.659C247.818 214.486 247.543 213.061 247.543 211.384C247.543 209.687 247.822 208.255 248.379 207.088C248.942 205.915 249.701 205.03 250.656 204.433C251.61 203.83 252.674 203.528 253.847 203.528C254.742 203.528 255.478 203.681 256.055 203.986C256.631 204.284 257.089 204.645 257.427 205.07C257.765 205.487 258.027 205.882 258.212 206.253H258.362V198.636H261.971V219H258.431V216.594H258.212C258.027 216.965 257.758 217.359 257.407 217.777C257.056 218.188 256.592 218.539 256.015 218.831C255.438 219.123 254.712 219.268 253.837 219.268ZM254.842 216.315C255.604 216.315 256.254 216.11 256.79 215.699C257.327 215.281 257.735 214.701 258.013 213.959C258.292 213.216 258.431 212.351 258.431 211.364C258.431 210.376 258.292 209.518 258.013 208.788C257.742 208.059 257.337 207.492 256.8 207.088C256.27 206.684 255.617 206.482 254.842 206.482C254.04 206.482 253.37 206.69 252.833 207.108C252.296 207.526 251.892 208.102 251.62 208.838C251.348 209.574 251.212 210.416 251.212 211.364C251.212 212.318 251.348 213.17 251.62 213.919C251.898 214.661 252.306 215.248 252.843 215.679C253.387 216.103 254.053 216.315 254.842 216.315ZM75.8494 258.727V237.727H79.3892V240.253H79.598C79.7836 239.882 80.0455 239.487 80.3835 239.07C80.7216 238.645 81.179 238.284 81.7557 237.986C82.3324 237.681 83.0682 237.528 83.9631 237.528C85.143 237.528 86.2069 237.83 87.1548 238.433C88.1094 239.03 88.8651 239.915 89.4219 241.088C89.9853 242.255 90.267 243.687 90.267 245.384C90.267 247.061 89.992 248.486 89.4418 249.659C88.8916 250.832 88.1425 251.727 87.1946 252.344C86.2467 252.96 85.1728 253.268 83.973 253.268C83.098 253.268 82.3722 253.123 81.7955 252.831C81.2188 252.539 80.7547 252.188 80.4034 251.777C80.0587 251.359 79.7902 250.965 79.598 250.594H79.4489V258.727H75.8494ZM79.3793 245.364C79.3793 246.351 79.5185 247.216 79.7969 247.959C80.0819 248.701 80.4896 249.281 81.0199 249.699C81.5568 250.11 82.2064 250.315 82.9688 250.315C83.7642 250.315 84.4304 250.103 84.9673 249.679C85.5043 249.248 85.9086 248.661 86.1804 247.919C86.4588 247.17 86.598 246.318 86.598 245.364C86.598 244.416 86.4621 243.574 86.1903 242.838C85.9186 242.102 85.5142 241.526 84.9773 241.108C84.4403 240.69 83.7708 240.482 82.9688 240.482C82.1998 240.482 81.5469 240.684 81.0099 241.088C80.473 241.492 80.0653 242.059 79.7869 242.788C79.5152 243.518 79.3793 244.376 79.3793 245.364ZM97.7443 253.308C96.7765 253.308 95.9048 253.136 95.1293 252.791C94.3603 252.44 93.7505 251.923 93.2997 251.24C92.8556 250.557 92.6335 249.715 92.6335 248.714C92.6335 247.853 92.7926 247.14 93.1108 246.577C93.429 246.013 93.8632 245.562 94.4134 245.224C94.9635 244.886 95.5833 244.631 96.2727 244.459C96.9688 244.28 97.688 244.151 98.4304 244.071C99.3253 243.978 100.051 243.895 100.608 243.822C101.165 243.743 101.569 243.624 101.821 243.464C102.08 243.299 102.209 243.044 102.209 242.699V242.639C102.209 241.89 101.987 241.31 101.543 240.899C101.098 240.488 100.459 240.283 99.6236 240.283C98.742 240.283 98.0426 240.475 97.5256 240.859C97.0152 241.244 96.6705 241.698 96.4915 242.222L93.1307 241.744C93.3958 240.816 93.8333 240.041 94.4432 239.418C95.053 238.788 95.7988 238.317 96.6804 238.006C97.562 237.688 98.5365 237.528 99.6037 237.528C100.339 237.528 101.072 237.615 101.801 237.787C102.53 237.959 103.196 238.244 103.8 238.642C104.403 239.033 104.887 239.567 105.251 240.243C105.623 240.919 105.808 241.764 105.808 242.778V253H102.348V250.902H102.229C102.01 251.326 101.702 251.724 101.304 252.095C100.913 252.46 100.419 252.755 99.8224 252.98C99.2325 253.199 98.5398 253.308 97.7443 253.308ZM98.679 250.663C99.4015 250.663 100.028 250.521 100.558 250.236C101.089 249.944 101.496 249.56 101.781 249.082C102.073 248.605 102.219 248.085 102.219 247.521V245.722C102.106 245.814 101.914 245.901 101.642 245.98C101.377 246.06 101.079 246.129 100.747 246.189C100.416 246.249 100.088 246.302 99.7628 246.348C99.438 246.394 99.1563 246.434 98.9176 246.467C98.3807 246.54 97.9001 246.66 97.4759 246.825C97.0516 246.991 96.7169 247.223 96.4716 247.521C96.2263 247.813 96.1037 248.191 96.1037 248.655C96.1037 249.318 96.3456 249.818 96.8295 250.156C97.3134 250.494 97.9299 250.663 98.679 250.663ZM109.428 253V237.727H112.918V240.273H113.077C113.355 239.391 113.832 238.712 114.509 238.234C115.191 237.75 115.97 237.509 116.845 237.509C117.044 237.509 117.266 237.518 117.511 237.538C117.763 237.552 117.972 237.575 118.138 237.608V240.919C117.985 240.866 117.743 240.82 117.412 240.78C117.087 240.733 116.772 240.71 116.467 240.71C115.811 240.71 115.221 240.853 114.697 241.138C114.18 241.416 113.773 241.804 113.474 242.301C113.176 242.798 113.027 243.372 113.027 244.021V253H109.428ZM128.976 237.727V240.511H120.196V237.727H128.976ZM122.364 234.068H125.963V248.406C125.963 248.89 126.036 249.261 126.182 249.52C126.334 249.772 126.533 249.944 126.778 250.037C127.024 250.13 127.295 250.176 127.594 250.176C127.819 250.176 128.025 250.16 128.21 250.126C128.402 250.093 128.548 250.063 128.648 250.037L129.254 252.851C129.062 252.917 128.787 252.99 128.429 253.07C128.078 253.149 127.647 253.196 127.136 253.209C126.235 253.235 125.423 253.099 124.7 252.801C123.978 252.496 123.404 252.026 122.98 251.389C122.563 250.753 122.357 249.957 122.364 249.003V234.068ZM143.838 241.764L140.557 242.122C140.464 241.791 140.302 241.479 140.07 241.188C139.845 240.896 139.54 240.661 139.155 240.482C138.771 240.303 138.3 240.213 137.743 240.213C136.994 240.213 136.364 240.375 135.854 240.7C135.35 241.025 135.102 241.446 135.108 241.963C135.102 242.407 135.264 242.768 135.596 243.047C135.934 243.325 136.49 243.554 137.266 243.733L139.871 244.29C141.316 244.601 142.39 245.095 143.093 245.771C143.802 246.447 144.16 247.332 144.167 248.426C144.16 249.387 143.878 250.236 143.321 250.972C142.771 251.701 142.006 252.271 141.025 252.682C140.043 253.093 138.917 253.298 137.644 253.298C135.775 253.298 134.27 252.907 133.13 252.125C131.989 251.336 131.31 250.239 131.091 248.834L134.601 248.496C134.76 249.185 135.098 249.705 135.615 250.057C136.132 250.408 136.805 250.584 137.634 250.584C138.489 250.584 139.175 250.408 139.692 250.057C140.216 249.705 140.478 249.271 140.478 248.754C140.478 248.317 140.309 247.955 139.971 247.67C139.639 247.385 139.122 247.167 138.419 247.014L135.814 246.467C134.349 246.162 133.266 245.649 132.563 244.926C131.86 244.197 131.512 243.276 131.519 242.162C131.512 241.221 131.767 240.405 132.284 239.716C132.808 239.02 133.534 238.483 134.462 238.105C135.397 237.721 136.474 237.528 137.694 237.528C139.483 237.528 140.892 237.91 141.919 238.672C142.953 239.434 143.593 240.465 143.838 241.764Z" fill="#021126"/>
<path d="M81 67.5C81 66.5717 81.3687 65.6815 82.0251 65.0251C82.6815 64.3687 83.5717 64 84.5 64H119.5C120.428 64 121.318 64.3687 121.975 65.0251C122.631 65.6815 123 66.5717 123 67.5V90.25C123 90.7141 122.816 91.1592 122.487 91.4874C122.159 91.8156 121.714 92 121.25 92C120.786 92 120.341 91.8156 120.013 91.4874C119.684 91.1592 119.5 90.7141 119.5 90.25V67.5H84.5V116.5H95V107.75C95 107.286 95.1844 106.841 95.5126 106.513C95.8408 106.184 96.2859 106 96.75 106H102V120H84.5C83.5717 120 82.6815 119.631 82.0251 118.975C81.3687 118.318 81 117.428 81 116.5V67.5Z" fill="#FAD100"/>
<path d="M89.75 71C89.2859 71 88.8408 71.1844 88.5126 71.5126C88.1844 71.8408 88 72.2859 88 72.75V76.25C88 76.7141 88.1844 77.1592 88.5126 77.4874C88.8408 77.8156 89.2859 78 89.75 78H93.25C93.7141 78 94.1592 77.8156 94.4874 77.4874C94.8156 77.1592 95 76.7141 95 76.25V72.75C95 72.2859 94.8156 71.8408 94.4874 71.5126C94.1592 71.1844 93.7141 71 93.25 71H89.75ZM100.25 71C99.7859 71 99.3408 71.1844 99.0126 71.5126C98.6844 71.8408 98.5 72.2859 98.5 72.75V76.25C98.5 76.7141 98.6844 77.1592 99.0126 77.4874C99.3408 77.8156 99.7859 78 100.25 78H103.75C104.214 78 104.659 77.8156 104.987 77.4874C105.316 77.1592 105.5 76.7141 105.5 76.25V72.75C105.5 72.2859 105.316 71.8408 104.987 71.5126C104.659 71.1844 104.214 71 103.75 71H100.25ZM110.75 71C110.286 71 109.841 71.1844 109.513 71.5126C109.184 71.8408 109 72.2859 109 72.75V76.25C109 76.7141 109.184 77.1592 109.513 77.4874C109.841 77.8156 110.286 78 110.75 78H114.25C114.714 78 115.159 77.8156 115.487 77.4874C115.816 77.1592 116 76.7141 116 76.25V72.75C116 72.2859 115.816 71.8408 115.487 71.5126C115.159 71.1844 114.714 71 114.25 71H110.75ZM89.75 81.5C89.2859 81.5 88.8408 81.6844 88.5126 82.0126C88.1844 82.3408 88 82.7859 88 83.25V86.75C88 87.2141 88.1844 87.6592 88.5126 87.9874C88.8408 88.3156 89.2859 88.5 89.75 88.5H93.25C93.7141 88.5 94.1592 88.3156 94.4874 87.9874C94.8156 87.6592 95 87.2141 95 86.75V83.25C95 82.7859 94.8156 82.3408 94.4874 82.0126C94.1592 81.6844 93.7141 81.5 93.25 81.5H89.75ZM100.25 81.5C99.7859 81.5 99.3408 81.6844 99.0126 82.0126C98.6844 82.3408 98.5 82.7859 98.5 83.25V86.75C98.5 87.2141 98.6844 87.6592 99.0126 87.9874C99.3408 88.3156 99.7859 88.5 100.25 88.5H103.75C104.214 88.5 104.659 88.3156 104.987 87.9874C105.316 87.6592 105.5 87.2141 105.5 86.75V83.25C105.5 82.7859 105.316 82.3408 104.987 82.0126C104.659 81.6844 104.214 81.5 103.75 81.5H100.25ZM110.75 81.5C110.286 81.5 109.841 81.6844 109.513 82.0126C109.184 82.3408 109 82.7859 109 83.25V86.75C109 87.2141 109.184 87.6592 109.513 87.9874C109.841 88.3156 110.286 88.5 110.75 88.5H114.25C114.714 88.5 115.159 88.3156 115.487 87.9874C115.816 87.6592 116 87.2141 116 86.75V83.25C116 82.7859 115.816 82.3408 115.487 82.0126C115.159 81.6844 114.714 81.5 114.25 81.5H110.75ZM89.75 92C89.2859 92 88.8408 92.1844 88.5126 92.5126C88.1844 92.8408 88 93.2859 88 93.75V97.25C88 97.7141 88.1844 98.1592 88.5126 98.4874C88.8408 98.8156 89.2859 99 89.75 99H93.25C93.7141 99 94.1592 98.8156 94.4874 98.4874C94.8156 98.1592 95 97.7141 95 97.25V93.75C95 93.2859 94.8156 92.8408 94.4874 92.5126C94.1592 92.1844 93.7141 92 93.25 92H89.75ZM100.25 92C99.7859 92 99.3408 92.1844 99.0126 92.5126C98.6844 92.8408 98.5 93.2859 98.5 93.75V97.25C98.5 97.7141 98.6844 98.1592 99.0126 98.4874C99.3408 98.8156 99.7859 99 100.25 99H103.75C104.214 99 104.659 98.8156 104.987 98.4874C105.316 98.1592 105.5 97.7141 105.5 97.25V93.75C105.5 93.2859 105.316 92.8408 104.987 92.5126C104.659 92.1844 104.214 92 103.75 92H100.25ZM115.601 97.11C116.231 94.9645 119.269 94.9645 119.902 97.11L120.053 97.628C120.147 97.9493 120.312 98.2455 120.535 98.4947C120.759 98.7439 121.035 98.9399 121.345 99.0681C121.654 99.1964 121.988 99.2537 122.322 99.2359C122.657 99.218 122.983 99.1255 123.277 98.965L123.753 98.706C125.716 97.635 127.865 99.784 126.798 101.747L126.535 102.223C126.375 102.517 126.283 102.843 126.266 103.177C126.248 103.511 126.306 103.844 126.434 104.153C126.562 104.462 126.758 104.738 127.007 104.961C127.255 105.185 127.551 105.349 127.872 105.443L128.394 105.601C130.536 106.231 130.536 109.269 128.394 109.902L127.868 110.053C127.548 110.148 127.252 110.313 127.004 110.537C126.756 110.761 126.56 111.038 126.433 111.347C126.305 111.656 126.249 111.99 126.267 112.324C126.285 112.658 126.378 112.983 126.538 113.277L126.798 113.753C127.865 115.716 125.716 117.865 123.753 116.798L123.277 116.535C122.983 116.375 122.657 116.283 122.323 116.266C121.989 116.248 121.656 116.306 121.347 116.434C121.038 116.562 120.762 116.758 120.539 117.007C120.315 117.255 120.151 117.551 120.057 117.872L119.899 118.394C119.269 120.536 116.231 120.536 115.598 118.394L115.447 117.868C115.352 117.548 115.187 117.252 114.963 117.004C114.739 116.756 114.462 116.56 114.153 116.433C113.844 116.305 113.51 116.249 113.176 116.267C112.842 116.285 112.517 116.378 112.223 116.538L111.747 116.798C109.784 117.865 107.635 115.716 108.702 113.753L108.965 113.277C109.125 112.983 109.217 112.657 109.234 112.323C109.252 111.989 109.194 111.656 109.066 111.347C108.938 111.038 108.742 110.762 108.493 110.539C108.245 110.315 107.949 110.151 107.628 110.057L107.11 109.899C104.965 109.269 104.965 106.231 107.11 105.598L107.628 105.447C107.949 105.353 108.245 105.188 108.495 104.965C108.744 104.741 108.94 104.465 109.068 104.155C109.196 103.846 109.254 103.512 109.236 103.178C109.218 102.843 109.125 102.517 108.965 102.223L108.706 101.747C107.635 99.784 109.784 97.635 111.747 98.7025L112.223 98.965C112.517 99.1248 112.843 99.2168 113.177 99.2343C113.511 99.2518 113.844 99.1944 114.153 99.0662C114.462 98.9379 114.738 98.7422 114.961 98.4934C115.185 98.2445 115.349 97.9488 115.443 97.628L115.601 97.11V97.11ZM123 107.75C123 107.061 122.864 106.378 122.6 105.741C122.337 105.104 121.95 104.525 121.462 104.038C120.975 103.55 120.396 103.163 119.759 102.9C119.122 102.636 118.439 102.5 117.75 102.5C117.061 102.5 116.378 102.636 115.741 102.9C115.104 103.163 114.525 103.55 114.038 104.038C113.55 104.525 113.163 105.104 112.9 105.741C112.636 106.378 112.5 107.061 112.5 107.75C112.5 109.142 113.053 110.478 114.038 111.462C115.022 112.447 116.358 113 117.75 113C119.142 113 120.478 112.447 121.462 111.462C122.447 110.478 123 109.142 123 107.75V107.75Z" fill="#FAD100"/>
<defs>
<filter id="filter0_d_286_61" x="0" y="0" width="344" height="344" filterUnits="userSpaceOnUse" color-interpolation-filters="sRGB">
<feFlood flood-opacity="0" result="BackgroundImageFix"/>
<feColorMatrix in="SourceAlpha" type="matrix" values="0 0 0 0 0 0 0 0 0 0 0 0 0 0 0 0 0 0 127 0" result="hardAlpha"/>
<feOffset dx="-8" dy="8"/>
<feGaussianBlur stdDeviation="16"/>
<feComposite in2="hardAlpha" operator="out"/>
<feColorMatrix type="matrix" values="0 0 0 0 0 0 0 0 0 0 0 0 0 0 0 0 0 0 0.25 0"/>
<feBlend mode="normal" in2="BackgroundImageFix" result="effect1_dropShadow_286_61"/>
<feBlend mode="normal" in="SourceGraphic" in2="effect1_dropShadow_286_61" result="shape"/>
</filter>
</defs>
</svg>
