<svg width="460" height="488" viewBox="0 0 460 488" fill="none" xmlns="http://www.w3.org/2000/svg">
<g filter="url(#filter0_d_318_24)">
<rect width="400" height="428" transform="translate(38 22)" fill="white"/>
<path d="M109.2 113.2L123.3 99.1L120.5 96.3L109.2 107.6L103.5 101.9L100.7 104.7L109.2 113.2ZM112 124C109.233 124 106.633 123.475 104.2 122.424C101.767 121.375 99.65 119.95 97.85 118.15C96.05 116.35 94.6253 114.233 93.576 111.8C92.5253 109.367 92 106.767 92 104C92 101.233 92.5253 98.6333 93.576 96.2C94.6253 93.7667 96.05 91.65 97.85 89.85C99.65 88.05 101.767 86.6247 104.2 85.574C106.633 84.5247 109.233 84 112 84C114.767 84 117.367 84.5247 119.8 85.574C122.233 86.6247 124.35 88.05 126.15 89.85C127.95 91.65 129.375 93.7667 130.424 96.2C131.475 98.6333 132 101.233 132 104C132 106.767 131.475 109.367 130.424 111.8C129.375 114.233 127.95 116.35 126.15 118.15C124.35 119.95 122.233 121.375 119.8 122.424C117.367 123.475 114.767 124 112 124Z" fill="#FAD100"/>
<path d="M164.287 105L160.588 91.9091H163.733L166.034 101.114H166.153L168.506 91.9091H171.616L173.969 101.062H174.097L176.364 91.9091H179.517L175.81 105H172.597L170.142 96.1534H169.963L167.509 105H164.287ZM188.686 105.256C187.408 105.256 186.3 104.974 185.363 104.412C184.425 103.849 183.698 103.062 183.181 102.051C182.669 101.04 182.414 99.858 182.414 98.5057C182.414 97.1534 182.669 95.9687 183.181 94.9517C183.698 93.9347 184.425 93.1449 185.363 92.5824C186.3 92.0199 187.408 91.7386 188.686 91.7386C189.965 91.7386 191.073 92.0199 192.01 92.5824C192.948 93.1449 193.672 93.9347 194.184 94.9517C194.701 95.9687 194.959 97.1534 194.959 98.5057C194.959 99.858 194.701 101.04 194.184 102.051C193.672 103.062 192.948 103.849 192.01 104.412C191.073 104.974 189.965 105.256 188.686 105.256ZM188.703 102.784C189.397 102.784 189.976 102.594 190.442 102.213C190.908 101.827 191.255 101.31 191.482 100.662C191.715 100.014 191.831 99.2926 191.831 98.4972C191.831 97.696 191.715 96.9716 191.482 96.3239C191.255 95.6705 190.908 95.1506 190.442 94.7642C189.976 94.3778 189.397 94.1847 188.703 94.1847C187.993 94.1847 187.402 94.3778 186.931 94.7642C186.465 95.1506 186.115 95.6705 185.882 96.3239C185.655 96.9716 185.542 97.696 185.542 98.4972C185.542 99.2926 185.655 100.014 185.882 100.662C186.115 101.31 186.465 101.827 186.931 102.213C187.402 102.594 187.993 102.784 188.703 102.784ZM199.258 105V91.9091H202.249V94.0909H202.386C202.624 93.3352 203.033 92.7528 203.613 92.3438C204.198 91.929 204.866 91.7216 205.616 91.7216C205.786 91.7216 205.976 91.7301 206.187 91.7472C206.403 91.7585 206.582 91.7784 206.724 91.8068V94.6449C206.593 94.5994 206.386 94.5597 206.101 94.5256C205.823 94.4858 205.553 94.4659 205.292 94.4659C204.729 94.4659 204.224 94.5881 203.775 94.8324C203.332 95.071 202.982 95.4034 202.726 95.8295C202.471 96.2557 202.343 96.7472 202.343 97.304V105H199.258ZM213.539 87.5455V105H210.453V87.5455H213.539ZM223.249 105.23C222.221 105.23 221.3 104.966 220.488 104.438C219.675 103.909 219.033 103.142 218.562 102.136C218.09 101.131 217.854 99.9091 217.854 98.4716C217.854 97.017 218.093 95.7898 218.57 94.7898C219.053 93.7841 219.704 93.0256 220.522 92.5142C221.34 91.9972 222.252 91.7386 223.258 91.7386C224.025 91.7386 224.655 91.8693 225.15 92.1307C225.644 92.3864 226.036 92.696 226.326 93.0597C226.616 93.4176 226.84 93.7557 226.999 94.0739H227.127V87.5455H230.221V105H227.187V102.938H226.999C226.84 103.256 226.61 103.594 226.309 103.952C226.008 104.304 225.61 104.605 225.116 104.855C224.621 105.105 223.999 105.23 223.249 105.23ZM224.11 102.699C224.763 102.699 225.32 102.523 225.78 102.17C226.241 101.812 226.59 101.315 226.829 100.679C227.067 100.043 227.187 99.3011 227.187 98.4545C227.187 97.608 227.067 96.8722 226.829 96.2472C226.596 95.6222 226.249 95.1364 225.789 94.7898C225.334 94.4432 224.775 94.2699 224.11 94.2699C223.422 94.2699 222.849 94.4489 222.388 94.8068C221.928 95.1648 221.582 95.6591 221.349 96.2898C221.116 96.9205 220.999 97.642 220.999 98.4545C220.999 99.2727 221.116 100.003 221.349 100.645C221.587 101.281 221.937 101.784 222.397 102.153C222.863 102.517 223.434 102.699 224.11 102.699ZM245.523 105L241.824 91.9091H244.969L247.27 101.114H247.39L249.742 91.9091H252.853L255.205 101.062H255.333L257.6 91.9091H260.753L257.046 105H253.833L251.378 96.1534H251.199L248.745 105H245.523ZM264.587 105V91.9091H267.673V105H264.587ZM266.139 90.0511C265.65 90.0511 265.229 89.8892 264.877 89.5653C264.525 89.2358 264.349 88.8409 264.349 88.3807C264.349 87.9148 264.525 87.5199 264.877 87.196C265.229 86.8665 265.65 86.7017 266.139 86.7017C266.633 86.7017 267.053 86.8665 267.4 87.196C267.752 87.5199 267.928 87.9148 267.928 88.3807C267.928 88.8409 267.752 89.2358 267.4 89.5653C267.053 89.8892 266.633 90.0511 266.139 90.0511ZM277.383 105.23C276.355 105.23 275.434 104.966 274.622 104.438C273.809 103.909 273.167 103.142 272.696 102.136C272.224 101.131 271.988 99.9091 271.988 98.4716C271.988 97.017 272.227 95.7898 272.704 94.7898C273.187 93.7841 273.838 93.0256 274.656 92.5142C275.474 91.9972 276.386 91.7386 277.392 91.7386C278.159 91.7386 278.789 91.8693 279.284 92.1307C279.778 92.3864 280.17 92.696 280.46 93.0597C280.75 93.4176 280.974 93.7557 281.133 94.0739H281.261V87.5455H284.355V105H281.321V102.938H281.133C280.974 103.256 280.744 103.594 280.443 103.952C280.142 104.304 279.744 104.605 279.25 104.855C278.755 105.105 278.133 105.23 277.383 105.23ZM278.244 102.699C278.897 102.699 279.454 102.523 279.914 102.17C280.375 101.812 280.724 101.315 280.963 100.679C281.201 100.043 281.321 99.3011 281.321 98.4545C281.321 97.608 281.201 96.8722 280.963 96.2472C280.73 95.6222 280.383 95.1364 279.923 94.7898C279.468 94.4432 278.909 94.2699 278.244 94.2699C277.556 94.2699 276.983 94.4489 276.522 94.8068C276.062 95.1648 275.716 95.6591 275.483 96.2898C275.25 96.9205 275.133 97.642 275.133 98.4545C275.133 99.2727 275.25 100.003 275.483 100.645C275.721 101.281 276.071 101.784 276.531 102.153C276.997 102.517 277.568 102.699 278.244 102.699ZM295.118 105.256C293.805 105.256 292.672 104.983 291.717 104.438C290.768 103.886 290.038 103.108 289.527 102.102C289.016 101.091 288.76 99.9006 288.76 98.5312C288.76 97.1847 289.016 96.0028 289.527 94.9858C290.044 93.9631 290.766 93.1676 291.692 92.5994C292.618 92.0256 293.706 91.7386 294.956 91.7386C295.763 91.7386 296.524 91.8693 297.24 92.1307C297.962 92.3864 298.598 92.7841 299.149 93.3239C299.706 93.8636 300.143 94.5511 300.462 95.3864C300.78 96.2159 300.939 97.2045 300.939 98.3523V99.2983H290.209V97.2188H297.982C297.976 96.6278 297.848 96.1023 297.598 95.642C297.348 95.1761 296.999 94.8097 296.55 94.5426C296.107 94.2756 295.589 94.142 294.999 94.142C294.368 94.142 293.814 94.2955 293.337 94.6023C292.859 94.9034 292.487 95.3011 292.22 95.7955C291.959 96.2841 291.825 96.821 291.82 97.4062V99.2216C291.82 99.983 291.959 100.636 292.237 101.182C292.516 101.722 292.905 102.136 293.405 102.426C293.905 102.71 294.49 102.852 295.16 102.852C295.609 102.852 296.016 102.79 296.379 102.665C296.743 102.534 297.058 102.344 297.325 102.094C297.592 101.844 297.794 101.534 297.93 101.165L300.811 101.489C300.629 102.25 300.283 102.915 299.771 103.483C299.266 104.045 298.618 104.483 297.828 104.795C297.038 105.102 296.135 105.256 295.118 105.256ZM161.585 134V120.909H164.577V123.091H164.713C164.952 122.335 165.361 121.753 165.94 121.344C166.526 120.929 167.193 120.722 167.943 120.722C168.114 120.722 168.304 120.73 168.514 120.747C168.73 120.759 168.909 120.778 169.051 120.807V123.645C168.92 123.599 168.713 123.56 168.429 123.526C168.151 123.486 167.881 123.466 167.619 123.466C167.057 123.466 166.551 123.588 166.102 123.832C165.659 124.071 165.31 124.403 165.054 124.83C164.798 125.256 164.67 125.747 164.67 126.304V134H161.585ZM178.037 134.256C176.725 134.256 175.591 133.983 174.637 133.438C173.688 132.886 172.958 132.108 172.446 131.102C171.935 130.091 171.679 128.901 171.679 127.531C171.679 126.185 171.935 125.003 172.446 123.986C172.963 122.963 173.685 122.168 174.611 121.599C175.537 121.026 176.625 120.739 177.875 120.739C178.682 120.739 179.443 120.869 180.159 121.131C180.881 121.386 181.517 121.784 182.068 122.324C182.625 122.864 183.063 123.551 183.381 124.386C183.699 125.216 183.858 126.205 183.858 127.352V128.298H173.128V126.219H180.901C180.895 125.628 180.767 125.102 180.517 124.642C180.267 124.176 179.918 123.81 179.469 123.543C179.026 123.276 178.509 123.142 177.918 123.142C177.287 123.142 176.733 123.295 176.256 123.602C175.779 123.903 175.407 124.301 175.14 124.795C174.878 125.284 174.745 125.821 174.739 126.406V128.222C174.739 128.983 174.878 129.636 175.157 130.182C175.435 130.722 175.824 131.136 176.324 131.426C176.824 131.71 177.409 131.852 178.08 131.852C178.529 131.852 178.935 131.79 179.299 131.665C179.662 131.534 179.978 131.344 180.245 131.094C180.512 130.844 180.713 130.534 180.85 130.165L183.73 130.489C183.549 131.25 183.202 131.915 182.691 132.483C182.185 133.045 181.537 133.483 180.747 133.795C179.958 134.102 179.054 134.256 178.037 134.256ZM191.915 134.264C191.086 134.264 190.339 134.116 189.674 133.821C189.015 133.52 188.492 133.077 188.106 132.491C187.725 131.906 187.535 131.185 187.535 130.327C187.535 129.588 187.671 128.977 187.944 128.494C188.217 128.011 188.589 127.625 189.06 127.335C189.532 127.045 190.063 126.827 190.654 126.679C191.251 126.526 191.867 126.415 192.503 126.347C193.271 126.267 193.893 126.196 194.37 126.134C194.847 126.065 195.194 125.963 195.41 125.827C195.631 125.685 195.742 125.466 195.742 125.17V125.119C195.742 124.477 195.552 123.98 195.171 123.628C194.79 123.276 194.242 123.099 193.526 123.099C192.771 123.099 192.171 123.264 191.728 123.594C191.29 123.923 190.995 124.312 190.842 124.761L187.961 124.352C188.188 123.557 188.563 122.892 189.086 122.358C189.609 121.818 190.248 121.415 191.003 121.148C191.759 120.875 192.594 120.739 193.509 120.739C194.14 120.739 194.768 120.812 195.393 120.96C196.018 121.108 196.589 121.352 197.106 121.693C197.623 122.028 198.038 122.486 198.35 123.065C198.668 123.645 198.827 124.369 198.827 125.239V134H195.861V132.202H195.759C195.572 132.565 195.307 132.906 194.967 133.224C194.631 133.537 194.208 133.79 193.697 133.983C193.191 134.17 192.597 134.264 191.915 134.264ZM192.717 131.997C193.336 131.997 193.873 131.875 194.327 131.631C194.782 131.381 195.131 131.051 195.376 130.642C195.626 130.233 195.751 129.787 195.751 129.304V127.761C195.654 127.841 195.489 127.915 195.256 127.983C195.029 128.051 194.773 128.111 194.489 128.162C194.205 128.213 193.924 128.259 193.646 128.298C193.367 128.338 193.126 128.372 192.921 128.401C192.461 128.463 192.049 128.565 191.685 128.707C191.322 128.849 191.035 129.048 190.824 129.304C190.614 129.554 190.509 129.878 190.509 130.276C190.509 130.844 190.717 131.273 191.131 131.562C191.546 131.852 192.074 131.997 192.717 131.997ZM209.32 134.256C208.013 134.256 206.891 133.969 205.953 133.395C205.022 132.821 204.303 132.028 203.797 131.017C203.297 130 203.047 128.83 203.047 127.506C203.047 126.176 203.303 125.003 203.814 123.986C204.326 122.963 205.047 122.168 205.979 121.599C206.916 121.026 208.024 120.739 209.303 120.739C210.365 120.739 211.306 120.935 212.124 121.327C212.948 121.713 213.604 122.261 214.093 122.972C214.581 123.676 214.86 124.5 214.928 125.443H211.979C211.86 124.812 211.576 124.287 211.127 123.866C210.683 123.44 210.09 123.227 209.345 123.227C208.715 123.227 208.161 123.398 207.683 123.739C207.206 124.074 206.834 124.557 206.567 125.188C206.306 125.818 206.175 126.574 206.175 127.455C206.175 128.347 206.306 129.114 206.567 129.756C206.828 130.392 207.195 130.884 207.666 131.23C208.144 131.571 208.703 131.741 209.345 131.741C209.8 131.741 210.206 131.656 210.564 131.486C210.928 131.31 211.232 131.057 211.476 130.727C211.72 130.398 211.888 129.997 211.979 129.526H214.928C214.854 130.452 214.581 131.273 214.11 131.989C213.638 132.699 212.996 133.256 212.183 133.659C211.371 134.057 210.416 134.256 209.32 134.256ZM222.226 126.33V134H219.141V116.545H222.158V123.134H222.312C222.618 122.395 223.093 121.812 223.735 121.386C224.383 120.955 225.207 120.739 226.207 120.739C227.116 120.739 227.908 120.929 228.584 121.31C229.26 121.69 229.783 122.247 230.153 122.98C230.528 123.713 230.715 124.608 230.715 125.665V134H227.63V126.142C227.63 125.261 227.403 124.577 226.948 124.088C226.499 123.594 225.868 123.347 225.056 123.347C224.51 123.347 224.022 123.466 223.59 123.705C223.164 123.937 222.829 124.276 222.584 124.719C222.346 125.162 222.226 125.699 222.226 126.33Z" fill="#021126"/>
<path d="M161.585 172V158.909H169.486V160.315H163.17V164.739H169.077V166.145H163.17V170.594H169.588V172H161.585ZM174.523 162.182L176.876 166.196L179.228 162.182H180.967L177.796 167.091L180.967 172H179.228L176.876 168.19L174.523 172H172.785L175.904 167.091L172.785 162.182H174.523ZM188.649 162.182V163.46H183.561V162.182H188.649ZM185.044 159.83H186.552V169.188C186.552 169.614 186.614 169.933 186.738 170.146C186.866 170.355 187.028 170.496 187.224 170.568C187.424 170.636 187.635 170.67 187.856 170.67C188.023 170.67 188.159 170.662 188.266 170.645C188.372 170.624 188.457 170.607 188.521 170.594L188.828 171.949C188.726 171.987 188.583 172.026 188.4 172.064C188.217 172.107 187.984 172.128 187.703 172.128C187.277 172.128 186.859 172.036 186.45 171.853C186.045 171.67 185.709 171.391 185.44 171.016C185.176 170.641 185.044 170.168 185.044 169.597V159.83ZM196.189 172.205C195.243 172.205 194.427 171.996 193.741 171.578C193.059 171.156 192.533 170.568 192.162 169.814C191.796 169.055 191.613 168.173 191.613 167.168C191.613 166.162 191.796 165.276 192.162 164.509C192.533 163.737 193.049 163.136 193.709 162.706C194.374 162.271 195.149 162.054 196.036 162.054C196.547 162.054 197.052 162.139 197.551 162.31C198.049 162.48 198.503 162.757 198.912 163.141C199.321 163.52 199.647 164.023 199.89 164.649C200.133 165.276 200.255 166.047 200.255 166.963V167.602H192.686V166.298H198.721C198.721 165.744 198.61 165.25 198.388 164.815C198.171 164.381 197.86 164.038 197.455 163.786C197.054 163.535 196.581 163.409 196.036 163.409C195.435 163.409 194.915 163.558 194.476 163.857C194.042 164.151 193.707 164.534 193.473 165.007C193.238 165.48 193.121 165.987 193.121 166.528V167.398C193.121 168.139 193.249 168.768 193.505 169.283C193.765 169.795 194.125 170.185 194.585 170.453C195.045 170.717 195.58 170.849 196.189 170.849C196.586 170.849 196.944 170.794 197.263 170.683C197.587 170.568 197.866 170.398 198.1 170.172C198.335 169.942 198.516 169.656 198.644 169.315L200.101 169.724C199.948 170.219 199.69 170.653 199.328 171.028C198.966 171.399 198.518 171.689 197.985 171.898C197.453 172.102 196.854 172.205 196.189 172.205ZM205.318 166.094V172H203.809V162.182H205.267V163.716H205.395C205.625 163.217 205.974 162.817 206.443 162.514C206.912 162.207 207.517 162.054 208.258 162.054C208.923 162.054 209.505 162.19 210.003 162.463C210.502 162.732 210.89 163.141 211.167 163.69C211.444 164.236 211.582 164.926 211.582 165.761V172H210.074V165.864C210.074 165.092 209.873 164.491 209.473 164.061C209.072 163.626 208.522 163.409 207.824 163.409C207.342 163.409 206.912 163.513 206.532 163.722C206.157 163.931 205.861 164.236 205.644 164.636C205.427 165.037 205.318 165.523 205.318 166.094ZM219.306 172.205C218.488 172.205 217.766 171.998 217.139 171.585C216.513 171.167 216.023 170.579 215.669 169.82C215.315 169.058 215.138 168.156 215.138 167.116C215.138 166.085 215.315 165.19 215.669 164.432C216.023 163.673 216.515 163.087 217.146 162.674C217.776 162.261 218.505 162.054 219.332 162.054C219.971 162.054 220.476 162.161 220.847 162.374C221.222 162.582 221.507 162.821 221.703 163.089C221.903 163.354 222.059 163.571 222.17 163.741H222.298V158.909H223.806V172H222.349V170.491H222.17C222.059 170.67 221.901 170.896 221.697 171.169C221.492 171.437 221.2 171.678 220.821 171.891C220.442 172.1 219.937 172.205 219.306 172.205ZM219.511 170.849C220.116 170.849 220.627 170.692 221.045 170.376C221.462 170.057 221.78 169.616 221.997 169.053C222.214 168.487 222.323 167.832 222.323 167.091C222.323 166.358 222.217 165.717 222.003 165.167C221.79 164.613 221.475 164.183 221.057 163.876C220.64 163.565 220.124 163.409 219.511 163.409C218.871 163.409 218.339 163.573 217.913 163.901C217.491 164.225 217.173 164.666 216.96 165.224C216.751 165.778 216.647 166.401 216.647 167.091C216.647 167.79 216.753 168.425 216.967 168.996C217.184 169.562 217.503 170.014 217.925 170.351C218.351 170.683 218.88 170.849 219.511 170.849ZM228.038 172V162.182H229.547V172H228.038ZM228.805 160.545C228.511 160.545 228.258 160.445 228.045 160.245C227.836 160.045 227.732 159.804 227.732 159.523C227.732 159.241 227.836 159.001 228.045 158.8C228.258 158.6 228.511 158.5 228.805 158.5C229.099 158.5 229.351 158.6 229.56 158.8C229.773 159.001 229.879 159.241 229.879 159.523C229.879 159.804 229.773 160.045 229.56 160.245C229.351 160.445 229.099 160.545 228.805 160.545ZM235.078 166.094V172H233.57V162.182H235.027V163.716H235.155C235.385 163.217 235.735 162.817 236.203 162.514C236.672 162.207 237.277 162.054 238.019 162.054C238.683 162.054 239.265 162.19 239.764 162.463C240.262 162.732 240.65 163.141 240.927 163.69C241.204 164.236 241.343 164.926 241.343 165.761V172H239.834V165.864C239.834 165.092 239.634 164.491 239.233 164.061C238.833 163.626 238.283 163.409 237.584 163.409C237.102 163.409 236.672 163.513 236.293 163.722C235.918 163.931 235.622 164.236 235.404 164.636C235.187 165.037 235.078 165.523 235.078 166.094ZM249.322 175.886C248.593 175.886 247.967 175.793 247.443 175.605C246.919 175.422 246.482 175.179 246.133 174.876C245.787 174.578 245.513 174.259 245.308 173.918L246.51 173.074C246.646 173.253 246.819 173.457 247.027 173.688C247.236 173.922 247.522 174.124 247.884 174.295C248.25 174.469 248.73 174.557 249.322 174.557C250.115 174.557 250.769 174.365 251.285 173.982C251.8 173.598 252.058 172.997 252.058 172.179V170.185H251.93C251.819 170.364 251.662 170.585 251.457 170.849C251.257 171.109 250.967 171.342 250.588 171.546C250.213 171.746 249.706 171.847 249.067 171.847C248.274 171.847 247.562 171.659 246.932 171.284C246.305 170.909 245.809 170.364 245.442 169.648C245.08 168.932 244.899 168.062 244.899 167.04C244.899 166.034 245.076 165.158 245.429 164.413C245.783 163.663 246.275 163.083 246.906 162.674C247.537 162.261 248.265 162.054 249.092 162.054C249.731 162.054 250.238 162.161 250.613 162.374C250.993 162.582 251.282 162.821 251.483 163.089C251.687 163.354 251.845 163.571 251.956 163.741H252.109V162.182H253.567V172.281C253.567 173.125 253.375 173.811 252.991 174.339C252.612 174.872 252.101 175.262 251.457 175.509C250.818 175.761 250.106 175.886 249.322 175.886ZM249.271 170.491C249.876 170.491 250.388 170.353 250.805 170.076C251.223 169.799 251.54 169.401 251.758 168.881C251.975 168.361 252.084 167.739 252.084 167.014C252.084 166.307 251.977 165.683 251.764 165.141C251.551 164.6 251.236 164.176 250.818 163.869C250.4 163.562 249.885 163.409 249.271 163.409C248.632 163.409 248.099 163.571 247.673 163.895C247.251 164.219 246.934 164.653 246.721 165.199C246.512 165.744 246.407 166.349 246.407 167.014C246.407 167.696 246.514 168.299 246.727 168.823C246.944 169.343 247.264 169.752 247.686 170.05C248.112 170.344 248.64 170.491 249.271 170.491ZM268.283 162.182V163.46H262.99V162.182H268.283ZM264.575 172V160.827C264.575 160.264 264.707 159.795 264.971 159.42C265.236 159.045 265.579 158.764 266.001 158.577C266.422 158.389 266.868 158.295 267.337 158.295C267.707 158.295 268.01 158.325 268.244 158.385C268.479 158.445 268.653 158.5 268.768 158.551L268.334 159.855C268.257 159.83 268.15 159.798 268.014 159.759C267.882 159.721 267.707 159.702 267.49 159.702C266.991 159.702 266.631 159.827 266.41 160.079C266.192 160.33 266.084 160.699 266.084 161.185V172H264.575ZM274.265 172.23C273.642 172.23 273.078 172.113 272.571 171.879C272.064 171.64 271.661 171.297 271.363 170.849C271.064 170.398 270.915 169.852 270.915 169.213C270.915 168.651 271.026 168.195 271.248 167.845C271.469 167.491 271.765 167.214 272.136 167.014C272.507 166.814 272.916 166.665 273.363 166.567C273.815 166.464 274.269 166.384 274.725 166.324C275.321 166.247 275.805 166.19 276.176 166.151C276.551 166.109 276.824 166.038 276.994 165.94C277.169 165.842 277.256 165.672 277.256 165.429V165.378C277.256 164.747 277.084 164.257 276.738 163.908C276.397 163.558 275.88 163.384 275.185 163.384C274.465 163.384 273.9 163.541 273.491 163.857C273.082 164.172 272.794 164.509 272.628 164.866L271.196 164.355C271.452 163.759 271.793 163.294 272.219 162.962C272.65 162.625 273.118 162.391 273.625 162.259C274.137 162.122 274.64 162.054 275.134 162.054C275.449 162.054 275.812 162.092 276.221 162.169C276.634 162.241 277.032 162.393 277.416 162.623C277.804 162.853 278.125 163.2 278.381 163.665C278.637 164.129 278.765 164.751 278.765 165.531V172H277.256V170.67H277.179C277.077 170.884 276.907 171.112 276.668 171.354C276.429 171.597 276.112 171.804 275.716 171.974C275.319 172.145 274.836 172.23 274.265 172.23ZM274.495 170.875C275.091 170.875 275.594 170.758 276.003 170.523C276.417 170.289 276.728 169.987 276.937 169.616C277.15 169.245 277.256 168.855 277.256 168.446V167.065C277.192 167.142 277.052 167.212 276.834 167.276C276.621 167.336 276.374 167.389 276.093 167.436C275.816 167.479 275.545 167.517 275.281 167.551C275.021 167.581 274.81 167.607 274.648 167.628C274.256 167.679 273.89 167.762 273.549 167.877C273.212 167.988 272.939 168.156 272.731 168.382C272.526 168.604 272.424 168.906 272.424 169.29C272.424 169.814 272.618 170.21 273.005 170.479C273.397 170.743 273.894 170.875 274.495 170.875ZM282.778 172V162.182H284.235V163.665H284.338C284.517 163.179 284.841 162.785 285.309 162.482C285.778 162.18 286.306 162.028 286.895 162.028C287.005 162.028 287.144 162.031 287.31 162.035C287.476 162.039 287.602 162.045 287.687 162.054V163.588C287.636 163.575 287.519 163.556 287.336 163.531C287.157 163.501 286.967 163.486 286.767 163.486C286.289 163.486 285.863 163.586 285.488 163.786C285.118 163.982 284.823 164.255 284.606 164.604C284.393 164.95 284.287 165.344 284.287 165.787V172H282.778ZM299.947 172.23C299.325 172.23 298.76 172.113 298.253 171.879C297.746 171.64 297.343 171.297 297.045 170.849C296.747 170.398 296.598 169.852 296.598 169.213C296.598 168.651 296.708 168.195 296.93 167.845C297.152 167.491 297.448 167.214 297.818 167.014C298.189 166.814 298.598 166.665 299.046 166.567C299.497 166.464 299.951 166.384 300.407 166.324C301.004 166.247 301.487 166.19 301.858 166.151C302.233 166.109 302.506 166.038 302.676 165.94C302.851 165.842 302.938 165.672 302.938 165.429V165.378C302.938 164.747 302.766 164.257 302.421 163.908C302.08 163.558 301.562 163.384 300.867 163.384C300.147 163.384 299.583 163.541 299.174 163.857C298.764 164.172 298.477 164.509 298.311 164.866L296.879 164.355C297.134 163.759 297.475 163.294 297.902 162.962C298.332 162.625 298.801 162.391 299.308 162.259C299.819 162.122 300.322 162.054 300.816 162.054C301.132 162.054 301.494 162.092 301.903 162.169C302.316 162.241 302.715 162.393 303.098 162.623C303.486 162.853 303.808 163.2 304.063 163.665C304.319 164.129 304.447 164.751 304.447 165.531V172H302.938V170.67H302.862C302.759 170.884 302.589 171.112 302.35 171.354C302.112 171.597 301.794 171.804 301.398 171.974C301.002 172.145 300.518 172.23 299.947 172.23ZM300.177 170.875C300.774 170.875 301.277 170.758 301.686 170.523C302.099 170.289 302.41 169.987 302.619 169.616C302.832 169.245 302.938 168.855 302.938 168.446V167.065C302.875 167.142 302.734 167.212 302.517 167.276C302.304 167.336 302.056 167.389 301.775 167.436C301.498 167.479 301.228 167.517 300.963 167.551C300.703 167.581 300.492 167.607 300.331 167.628C299.938 167.679 299.572 167.762 299.231 167.877C298.894 167.988 298.622 168.156 298.413 168.382C298.208 168.604 298.106 168.906 298.106 169.29C298.106 169.814 298.3 170.21 298.688 170.479C299.08 170.743 299.576 170.875 300.177 170.875ZM309.969 166.094V172H308.46V162.182H309.918V163.716H310.046C310.276 163.217 310.625 162.817 311.094 162.514C311.563 162.207 312.168 162.054 312.909 162.054C313.574 162.054 314.156 162.19 314.654 162.463C315.153 162.732 315.541 163.141 315.818 163.69C316.095 164.236 316.233 164.926 316.233 165.761V172H314.725V165.864C314.725 165.092 314.524 164.491 314.124 164.061C313.723 163.626 313.173 163.409 312.475 163.409C311.993 163.409 311.563 163.513 311.183 163.722C310.808 163.931 310.512 164.236 310.295 164.636C310.078 165.037 309.969 165.523 309.969 166.094ZM323.957 172.205C323.139 172.205 322.417 171.998 321.79 171.585C321.164 171.167 320.674 170.579 320.32 169.82C319.966 169.058 319.789 168.156 319.789 167.116C319.789 166.085 319.966 165.19 320.32 164.432C320.674 163.673 321.166 163.087 321.797 162.674C322.427 162.261 323.156 162.054 323.983 162.054C324.622 162.054 325.127 162.161 325.498 162.374C325.873 162.582 326.158 162.821 326.354 163.089C326.554 163.354 326.71 163.571 326.821 163.741H326.949V158.909H328.457V172H327V170.491H326.821C326.71 170.67 326.552 170.896 326.348 171.169C326.143 171.437 325.851 171.678 325.472 171.891C325.093 172.1 324.588 172.205 323.957 172.205ZM324.162 170.849C324.767 170.849 325.278 170.692 325.696 170.376C326.113 170.057 326.431 169.616 326.648 169.053C326.865 168.487 326.974 167.832 326.974 167.091C326.974 166.358 326.868 165.717 326.654 165.167C326.441 164.613 326.126 164.183 325.708 163.876C325.291 163.565 324.775 163.409 324.162 163.409C323.522 163.409 322.99 163.573 322.564 163.901C322.142 164.225 321.824 164.666 321.611 165.224C321.402 165.778 321.298 166.401 321.298 167.091C321.298 167.79 321.404 168.425 321.618 168.996C321.835 169.562 322.154 170.014 322.576 170.351C323.003 170.683 323.531 170.849 324.162 170.849ZM163.605 194L160.614 184.182H162.199L164.321 191.699H164.423L166.52 184.182H168.131L170.202 191.673H170.304L172.426 184.182H174.011L171.02 194H169.537L167.389 186.457H167.236L165.088 194H163.605ZM177.266 194V184.182H178.774V194H177.266ZM178.033 182.545C177.739 182.545 177.485 182.445 177.272 182.245C177.063 182.045 176.959 181.804 176.959 181.523C176.959 181.241 177.063 181.001 177.272 180.8C177.485 180.6 177.739 180.5 178.033 180.5C178.327 180.5 178.578 180.6 178.787 180.8C179 181.001 179.107 181.241 179.107 181.523C179.107 181.804 179 182.045 178.787 182.245C178.578 182.445 178.327 182.545 178.033 182.545ZM186.505 194.205C185.686 194.205 184.964 193.998 184.338 193.585C183.711 193.167 183.221 192.579 182.867 191.82C182.514 191.058 182.337 190.156 182.337 189.116C182.337 188.085 182.514 187.19 182.867 186.432C183.221 185.673 183.713 185.087 184.344 184.674C184.975 184.261 185.703 184.054 186.53 184.054C187.169 184.054 187.674 184.161 188.045 184.374C188.42 184.582 188.706 184.821 188.902 185.089C189.102 185.354 189.257 185.571 189.368 185.741H189.496V180.909H191.005V194H189.547V192.491H189.368C189.257 192.67 189.1 192.896 188.895 193.169C188.691 193.437 188.399 193.678 188.019 193.891C187.64 194.1 187.135 194.205 186.505 194.205ZM186.709 192.849C187.314 192.849 187.826 192.692 188.243 192.376C188.661 192.057 188.978 191.616 189.196 191.053C189.413 190.487 189.522 189.832 189.522 189.091C189.522 188.358 189.415 187.717 189.202 187.167C188.989 186.613 188.674 186.183 188.256 185.876C187.838 185.565 187.323 185.409 186.709 185.409C186.07 185.409 185.537 185.573 185.111 185.901C184.689 186.225 184.372 186.666 184.159 187.224C183.95 187.778 183.845 188.401 183.845 189.091C183.845 189.79 183.952 190.425 184.165 190.996C184.382 191.562 184.702 192.014 185.124 192.351C185.55 192.683 186.078 192.849 186.709 192.849ZM199.353 194.205C198.407 194.205 197.591 193.996 196.905 193.578C196.223 193.156 195.697 192.568 195.326 191.814C194.96 191.055 194.777 190.173 194.777 189.168C194.777 188.162 194.96 187.276 195.326 186.509C195.697 185.737 196.213 185.136 196.873 184.706C197.538 184.271 198.314 184.054 199.2 184.054C199.711 184.054 200.216 184.139 200.715 184.31C201.213 184.48 201.667 184.757 202.076 185.141C202.485 185.52 202.811 186.023 203.054 186.649C203.297 187.276 203.419 188.047 203.419 188.963V189.602H195.85V188.298H201.885C201.885 187.744 201.774 187.25 201.552 186.815C201.335 186.381 201.024 186.038 200.619 185.786C200.218 185.535 199.745 185.409 199.2 185.409C198.599 185.409 198.079 185.558 197.64 185.857C197.206 186.151 196.871 186.534 196.637 187.007C196.402 187.48 196.285 187.987 196.285 188.528V189.398C196.285 190.139 196.413 190.768 196.669 191.283C196.929 191.795 197.289 192.185 197.749 192.453C198.209 192.717 198.744 192.849 199.353 192.849C199.75 192.849 200.108 192.794 200.427 192.683C200.751 192.568 201.03 192.398 201.265 192.172C201.499 191.942 201.68 191.656 201.808 191.315L203.265 191.724C203.112 192.219 202.854 192.653 202.492 193.028C202.13 193.399 201.682 193.689 201.149 193.898C200.617 194.102 200.018 194.205 199.353 194.205ZM217.259 197.886C216.53 197.886 215.904 197.793 215.38 197.605C214.856 197.422 214.419 197.179 214.069 196.876C213.724 196.578 213.449 196.259 213.245 195.918L214.446 195.074C214.583 195.253 214.755 195.457 214.964 195.688C215.173 195.922 215.459 196.124 215.821 196.295C216.187 196.469 216.667 196.557 217.259 196.557C218.052 196.557 218.706 196.365 219.221 195.982C219.737 195.598 219.995 194.997 219.995 194.179V192.185H219.867C219.756 192.364 219.598 192.585 219.394 192.849C219.194 193.109 218.904 193.342 218.525 193.546C218.15 193.746 217.643 193.847 217.003 193.847C216.211 193.847 215.499 193.659 214.868 193.284C214.242 192.909 213.745 192.364 213.379 191.648C213.017 190.932 212.836 190.062 212.836 189.04C212.836 188.034 213.013 187.158 213.366 186.413C213.72 185.663 214.212 185.083 214.843 184.674C215.473 184.261 216.202 184.054 217.029 184.054C217.668 184.054 218.175 184.161 218.55 184.374C218.929 184.582 219.219 184.821 219.419 185.089C219.624 185.354 219.782 185.571 219.893 185.741H220.046V184.182H221.503V194.281C221.503 195.125 221.312 195.811 220.928 196.339C220.549 196.872 220.037 197.262 219.394 197.509C218.755 197.761 218.043 197.886 217.259 197.886ZM217.208 192.491C217.813 192.491 218.324 192.353 218.742 192.076C219.16 191.799 219.477 191.401 219.694 190.881C219.912 190.361 220.02 189.739 220.02 189.014C220.02 188.307 219.914 187.683 219.701 187.141C219.488 186.6 219.172 186.176 218.755 185.869C218.337 185.562 217.821 185.409 217.208 185.409C216.569 185.409 216.036 185.571 215.61 185.895C215.188 186.219 214.87 186.653 214.657 187.199C214.449 187.744 214.344 188.349 214.344 189.014C214.344 189.696 214.451 190.299 214.664 190.823C214.881 191.343 215.201 191.752 215.623 192.05C216.049 192.344 216.577 192.491 217.208 192.491ZM227.033 180.909V194H225.525V180.909H227.033ZM235.045 194.205C234.158 194.205 233.381 193.994 232.712 193.572C232.047 193.15 231.527 192.56 231.152 191.801C230.781 191.043 230.596 190.156 230.596 189.142C230.596 188.119 230.781 187.227 231.152 186.464C231.527 185.701 232.047 185.109 232.712 184.687C233.381 184.265 234.158 184.054 235.045 184.054C235.931 184.054 236.707 184.265 237.371 184.687C238.041 185.109 238.56 185.701 238.931 186.464C239.306 187.227 239.494 188.119 239.494 189.142C239.494 190.156 239.306 191.043 238.931 191.801C238.56 192.56 238.041 193.15 237.371 193.572C236.707 193.994 235.931 194.205 235.045 194.205ZM235.045 192.849C235.718 192.849 236.272 192.677 236.707 192.332C237.141 191.987 237.463 191.533 237.672 190.97C237.881 190.408 237.985 189.798 237.985 189.142C237.985 188.486 237.881 187.874 237.672 187.308C237.463 186.741 237.141 186.283 236.707 185.933C236.272 185.584 235.718 185.409 235.045 185.409C234.371 185.409 233.818 185.584 233.383 185.933C232.948 186.283 232.626 186.741 232.418 187.308C232.209 187.874 232.104 188.486 232.104 189.142C232.104 189.798 232.209 190.408 232.418 190.97C232.626 191.533 232.948 191.987 233.383 192.332C233.818 192.677 234.371 192.849 235.045 192.849ZM243.261 194V180.909H244.769V185.741H244.897C245.008 185.571 245.162 185.354 245.358 185.089C245.558 184.821 245.843 184.582 246.214 184.374C246.589 184.161 247.096 184.054 247.735 184.054C248.562 184.054 249.291 184.261 249.921 184.674C250.552 185.087 251.044 185.673 251.398 186.432C251.752 187.19 251.929 188.085 251.929 189.116C251.929 190.156 251.752 191.058 251.398 191.82C251.044 192.579 250.554 193.167 249.928 193.585C249.301 193.998 248.579 194.205 247.761 194.205C247.13 194.205 246.625 194.1 246.246 193.891C245.867 193.678 245.575 193.437 245.37 193.169C245.166 192.896 245.008 192.67 244.897 192.491H244.718V194H243.261ZM244.744 189.091C244.744 189.832 244.853 190.487 245.07 191.053C245.287 191.616 245.605 192.057 246.022 192.376C246.44 192.692 246.951 192.849 247.556 192.849C248.187 192.849 248.713 192.683 249.135 192.351C249.561 192.014 249.881 191.562 250.094 190.996C250.311 190.425 250.42 189.79 250.42 189.091C250.42 188.401 250.313 187.778 250.1 187.224C249.892 186.666 249.574 186.225 249.148 185.901C248.726 185.573 248.196 185.409 247.556 185.409C246.943 185.409 246.427 185.565 246.01 185.876C245.592 186.183 245.277 186.613 245.063 187.167C244.85 187.717 244.744 188.358 244.744 189.091ZM258.385 194.23C257.763 194.23 257.198 194.113 256.691 193.879C256.184 193.64 255.782 193.297 255.483 192.849C255.185 192.398 255.036 191.852 255.036 191.213C255.036 190.651 255.147 190.195 255.368 189.845C255.59 189.491 255.886 189.214 256.257 189.014C256.627 188.814 257.037 188.665 257.484 188.567C257.936 188.464 258.39 188.384 258.846 188.324C259.442 188.247 259.926 188.19 260.296 188.151C260.671 188.109 260.944 188.038 261.115 187.94C261.289 187.842 261.377 187.672 261.377 187.429V187.378C261.377 186.747 261.204 186.257 260.859 185.908C260.518 185.558 260 185.384 259.306 185.384C258.586 185.384 258.021 185.541 257.612 185.857C257.203 186.172 256.915 186.509 256.749 186.866L255.317 186.355C255.573 185.759 255.914 185.294 256.34 184.962C256.77 184.625 257.239 184.391 257.746 184.259C258.257 184.122 258.76 184.054 259.255 184.054C259.57 184.054 259.932 184.092 260.341 184.169C260.755 184.241 261.153 184.393 261.537 184.623C261.924 184.853 262.246 185.2 262.502 185.665C262.757 186.129 262.885 186.751 262.885 187.531V194H261.377V192.67H261.3C261.198 192.884 261.027 193.112 260.789 193.354C260.55 193.597 260.233 193.804 259.836 193.974C259.44 194.145 258.956 194.23 258.385 194.23ZM258.615 192.875C259.212 192.875 259.715 192.758 260.124 192.523C260.537 192.289 260.848 191.987 261.057 191.616C261.27 191.245 261.377 190.855 261.377 190.446V189.065C261.313 189.142 261.172 189.212 260.955 189.276C260.742 189.336 260.495 189.389 260.213 189.436C259.936 189.479 259.666 189.517 259.402 189.551C259.142 189.581 258.931 189.607 258.769 189.628C258.377 189.679 258.01 189.762 257.669 189.877C257.333 189.988 257.06 190.156 256.851 190.382C256.647 190.604 256.544 190.906 256.544 191.29C256.544 191.814 256.738 192.21 257.126 192.479C257.518 192.743 258.015 192.875 258.615 192.875ZM268.407 180.909V194H266.899V180.909H268.407ZM273.939 180.909V194H272.43V180.909H273.939ZM278.933 197.682C278.678 197.682 278.45 197.661 278.249 197.618C278.049 197.58 277.91 197.541 277.834 197.503L278.217 196.173C278.584 196.267 278.908 196.301 279.189 196.276C279.47 196.25 279.719 196.124 279.937 195.898C280.158 195.677 280.361 195.317 280.544 194.818L280.825 194.051L277.195 184.182H278.831L281.541 192.006H281.643L284.354 184.182H285.99L281.822 195.432C281.635 195.939 281.403 196.359 281.126 196.691C280.849 197.028 280.527 197.277 280.16 197.439C279.798 197.601 279.389 197.682 278.933 197.682ZM289.725 194.102C289.41 194.102 289.139 193.989 288.914 193.763C288.688 193.538 288.575 193.267 288.575 192.952C288.575 192.636 288.688 192.366 288.914 192.14C289.139 191.914 289.41 191.801 289.725 191.801C290.041 191.801 290.311 191.914 290.537 192.14C290.763 192.366 290.876 192.636 290.876 192.952C290.876 193.161 290.823 193.352 290.716 193.527C290.614 193.702 290.475 193.842 290.301 193.949C290.13 194.051 289.938 194.102 289.725 194.102Z" fill="black"/>
<path d="M107.2 275.2L121.3 261.1L118.5 258.3L107.2 269.6L101.5 263.9L98.7 266.7L107.2 275.2ZM110 286C107.233 286 104.633 285.475 102.2 284.424C99.7667 283.375 97.65 281.95 95.85 280.15C94.05 278.35 92.6253 276.233 91.576 273.8C90.5253 271.367 90 268.767 90 266C90 263.233 90.5253 260.633 91.576 258.2C92.6253 255.767 94.05 253.65 95.85 251.85C97.65 250.05 99.7667 248.625 102.2 247.574C104.633 246.525 107.233 246 110 246C112.767 246 115.367 246.525 117.8 247.574C120.233 248.625 122.35 250.05 124.15 251.85C125.95 253.65 127.375 255.767 128.424 258.2C129.475 260.633 130 263.233 130 266C130 268.767 129.475 271.367 128.424 273.8C127.375 276.233 125.95 278.35 124.15 280.15C122.35 281.95 120.233 283.375 117.8 284.424C115.367 285.475 112.767 286 110 286Z" fill="#FAD100"/>
<path d="M163.585 326V312.909H171.486V314.315H165.17V318.739H171.077V320.145H165.17V324.594H171.588V326H163.585ZM179.771 316.182V317.46H174.478V316.182H179.771ZM176.063 326V314.827C176.063 314.264 176.195 313.795 176.46 313.42C176.724 313.045 177.067 312.764 177.489 312.577C177.911 312.389 178.356 312.295 178.825 312.295C179.195 312.295 179.498 312.325 179.732 312.385C179.967 312.445 180.141 312.5 180.256 312.551L179.822 313.855C179.745 313.83 179.639 313.798 179.502 313.759C179.37 313.721 179.195 313.702 178.978 313.702C178.479 313.702 178.119 313.827 177.898 314.079C177.68 314.33 177.572 314.699 177.572 315.185V326H176.063ZM187.517 316.182V317.46H182.224V316.182H187.517ZM183.81 326V314.827C183.81 314.264 183.942 313.795 184.206 313.42C184.47 313.045 184.813 312.764 185.235 312.577C185.657 312.389 186.102 312.295 186.571 312.295C186.942 312.295 187.244 312.325 187.479 312.385C187.713 312.445 187.888 312.5 188.003 312.551L187.568 313.855C187.491 313.83 187.385 313.798 187.249 313.759C187.116 313.721 186.942 313.702 186.724 313.702C186.226 313.702 185.866 313.827 185.644 314.079C185.427 314.33 185.318 314.699 185.318 315.185V326H183.81ZM190.891 326V316.182H192.4V326H190.891ZM191.658 314.545C191.364 314.545 191.111 314.445 190.898 314.245C190.689 314.045 190.584 313.804 190.584 313.523C190.584 313.241 190.689 313.001 190.898 312.8C191.111 312.6 191.364 312.5 191.658 312.5C191.952 312.5 192.204 312.6 192.412 312.8C192.626 313.001 192.732 313.241 192.732 313.523C192.732 313.804 192.626 314.045 192.412 314.245C192.204 314.445 191.952 314.545 191.658 314.545ZM200.411 326.205C199.491 326.205 198.698 325.987 198.033 325.553C197.369 325.118 196.857 324.519 196.499 323.756C196.141 322.994 195.962 322.122 195.962 321.142C195.962 320.145 196.146 319.265 196.512 318.502C196.883 317.735 197.398 317.136 198.059 316.706C198.724 316.271 199.499 316.054 200.386 316.054C201.076 316.054 201.698 316.182 202.252 316.438C202.806 316.693 203.26 317.051 203.614 317.511C203.967 317.972 204.187 318.509 204.272 319.122H202.764C202.648 318.675 202.393 318.278 201.996 317.933C201.604 317.584 201.076 317.409 200.411 317.409C199.823 317.409 199.308 317.562 198.864 317.869C198.425 318.172 198.082 318.6 197.835 319.154C197.592 319.704 197.471 320.349 197.471 321.091C197.471 321.849 197.59 322.51 197.829 323.072C198.072 323.635 198.413 324.072 198.852 324.383C199.295 324.694 199.815 324.849 200.411 324.849C200.803 324.849 201.159 324.781 201.479 324.645C201.798 324.509 202.069 324.312 202.291 324.057C202.512 323.801 202.67 323.494 202.764 323.136H204.272C204.187 323.716 203.976 324.238 203.639 324.702C203.307 325.163 202.866 325.529 202.316 325.802C201.771 326.07 201.136 326.205 200.411 326.205ZM207.737 326V316.182H209.246V326H207.737ZM208.504 314.545C208.21 314.545 207.957 314.445 207.744 314.245C207.535 314.045 207.431 313.804 207.431 313.523C207.431 313.241 207.535 313.001 207.744 312.8C207.957 312.6 208.21 312.5 208.504 312.5C208.798 312.5 209.05 312.6 209.259 312.8C209.472 313.001 209.578 313.241 209.578 313.523C209.578 313.804 209.472 314.045 209.259 314.245C209.05 314.445 208.798 314.545 208.504 314.545ZM217.385 326.205C216.439 326.205 215.623 325.996 214.937 325.578C214.255 325.156 213.729 324.568 213.358 323.814C212.992 323.055 212.809 322.173 212.809 321.168C212.809 320.162 212.992 319.276 213.358 318.509C213.729 317.737 214.245 317.136 214.905 316.706C215.57 316.271 216.346 316.054 217.232 316.054C217.743 316.054 218.248 316.139 218.747 316.31C219.245 316.48 219.699 316.757 220.108 317.141C220.517 317.52 220.843 318.023 221.086 318.649C221.329 319.276 221.451 320.047 221.451 320.963V321.602H213.882V320.298H219.917C219.917 319.744 219.806 319.25 219.584 318.815C219.367 318.381 219.056 318.038 218.651 317.786C218.25 317.535 217.777 317.409 217.232 317.409C216.631 317.409 216.111 317.558 215.672 317.857C215.238 318.151 214.903 318.534 214.669 319.007C214.434 319.48 214.317 319.987 214.317 320.528V321.398C214.317 322.139 214.445 322.768 214.701 323.283C214.961 323.795 215.321 324.185 215.781 324.453C216.241 324.717 216.776 324.849 217.385 324.849C217.782 324.849 218.14 324.794 218.459 324.683C218.783 324.568 219.062 324.398 219.297 324.172C219.531 323.942 219.712 323.656 219.84 323.315L221.297 323.724C221.144 324.219 220.886 324.653 220.524 325.028C220.162 325.399 219.714 325.689 219.181 325.898C218.649 326.102 218.05 326.205 217.385 326.205ZM226.514 320.094V326H225.005V316.182H226.463V317.716H226.591C226.821 317.217 227.17 316.817 227.639 316.514C228.108 316.207 228.713 316.054 229.454 316.054C230.119 316.054 230.701 316.19 231.199 316.463C231.698 316.732 232.086 317.141 232.363 317.69C232.64 318.236 232.778 318.926 232.778 319.761V326H231.27V319.864C231.27 319.092 231.069 318.491 230.669 318.061C230.268 317.626 229.718 317.409 229.02 317.409C228.538 317.409 228.108 317.513 227.728 317.722C227.353 317.931 227.057 318.236 226.84 318.636C226.623 319.037 226.514 319.523 226.514 320.094ZM241.065 316.182V317.46H235.976V316.182H241.065ZM237.459 313.83H238.968V323.188C238.968 323.614 239.03 323.933 239.153 324.146C239.281 324.355 239.443 324.496 239.639 324.568C239.839 324.636 240.05 324.67 240.272 324.67C240.438 324.67 240.574 324.662 240.681 324.645C240.788 324.624 240.873 324.607 240.937 324.594L241.244 325.949C241.141 325.987 240.999 326.026 240.815 326.064C240.632 326.107 240.4 326.128 240.119 326.128C239.692 326.128 239.275 326.036 238.866 325.853C238.461 325.67 238.124 325.391 237.856 325.016C237.592 324.641 237.459 324.168 237.459 323.597V313.83ZM250.916 326V316.182H252.374V317.716H252.501C252.706 317.192 253.036 316.785 253.492 316.495C253.948 316.201 254.496 316.054 255.135 316.054C255.783 316.054 256.322 316.201 256.752 316.495C257.187 316.785 257.526 317.192 257.769 317.716H257.871C258.122 317.209 258.499 316.806 259.002 316.508C259.505 316.205 260.108 316.054 260.811 316.054C261.689 316.054 262.407 316.329 262.965 316.879C263.523 317.424 263.803 318.274 263.803 319.429V326H262.294V319.429C262.294 318.705 262.096 318.187 261.7 317.876C261.303 317.565 260.837 317.409 260.3 317.409C259.609 317.409 259.075 317.618 258.695 318.036C258.316 318.449 258.126 318.973 258.126 319.608V326H256.592V319.276C256.592 318.717 256.411 318.268 256.049 317.927C255.687 317.582 255.22 317.409 254.649 317.409C254.257 317.409 253.891 317.513 253.55 317.722C253.213 317.931 252.94 318.221 252.732 318.592C252.527 318.958 252.425 319.382 252.425 319.864V326H250.916ZM270.71 326.23C270.088 326.23 269.523 326.113 269.016 325.879C268.509 325.64 268.106 325.297 267.808 324.849C267.51 324.398 267.361 323.852 267.361 323.213C267.361 322.651 267.471 322.195 267.693 321.845C267.915 321.491 268.211 321.214 268.581 321.014C268.952 320.814 269.361 320.665 269.809 320.567C270.26 320.464 270.714 320.384 271.17 320.324C271.767 320.247 272.25 320.19 272.621 320.151C272.996 320.109 273.269 320.038 273.439 319.94C273.614 319.842 273.701 319.672 273.701 319.429V319.378C273.701 318.747 273.529 318.257 273.184 317.908C272.843 317.558 272.325 317.384 271.63 317.384C270.91 317.384 270.346 317.541 269.937 317.857C269.527 318.172 269.24 318.509 269.074 318.866L267.642 318.355C267.897 317.759 268.238 317.294 268.665 316.962C269.095 316.625 269.564 316.391 270.071 316.259C270.582 316.122 271.085 316.054 271.579 316.054C271.895 316.054 272.257 316.092 272.666 316.169C273.079 316.241 273.478 316.393 273.861 316.623C274.249 316.853 274.571 317.2 274.826 317.665C275.082 318.129 275.21 318.751 275.21 319.531V326H273.701V324.67H273.625C273.522 324.884 273.352 325.112 273.113 325.354C272.875 325.597 272.557 325.804 272.161 325.974C271.765 326.145 271.281 326.23 270.71 326.23ZM270.94 324.875C271.537 324.875 272.04 324.758 272.449 324.523C272.862 324.289 273.173 323.987 273.382 323.616C273.595 323.245 273.701 322.855 273.701 322.446V321.065C273.638 321.142 273.497 321.212 273.28 321.276C273.066 321.336 272.819 321.389 272.538 321.436C272.261 321.479 271.991 321.517 271.726 321.551C271.466 321.581 271.255 321.607 271.093 321.628C270.701 321.679 270.335 321.762 269.994 321.877C269.657 321.988 269.385 322.156 269.176 322.382C268.971 322.604 268.869 322.906 268.869 323.29C268.869 323.814 269.063 324.21 269.451 324.479C269.843 324.743 270.339 324.875 270.94 324.875ZM280.732 320.094V326H279.223V316.182H280.681V317.716H280.809C281.039 317.217 281.388 316.817 281.857 316.514C282.326 316.207 282.931 316.054 283.672 316.054C284.337 316.054 284.919 316.19 285.417 316.463C285.916 316.732 286.304 317.141 286.581 317.69C286.858 318.236 286.996 318.926 286.996 319.761V326H285.488V319.864C285.488 319.092 285.287 318.491 284.887 318.061C284.486 317.626 283.936 317.409 283.238 317.409C282.756 317.409 282.326 317.513 281.946 317.722C281.571 317.931 281.275 318.236 281.058 318.636C280.841 319.037 280.732 319.523 280.732 320.094ZM297.2 321.986V316.182H298.709V326H297.2V324.338H297.098C296.868 324.837 296.51 325.261 296.024 325.61C295.538 325.955 294.925 326.128 294.183 326.128C293.569 326.128 293.024 325.994 292.547 325.725C292.069 325.452 291.694 325.043 291.422 324.498C291.149 323.948 291.013 323.256 291.013 322.42V316.182H292.521V322.318C292.521 323.034 292.721 323.605 293.122 324.031C293.527 324.457 294.042 324.67 294.669 324.67C295.044 324.67 295.425 324.575 295.813 324.383C296.205 324.191 296.533 323.897 296.797 323.501C297.066 323.104 297.2 322.599 297.2 321.986ZM307.104 316.182V317.46H301.811V316.182H307.104ZM303.396 326V314.827C303.396 314.264 303.528 313.795 303.793 313.42C304.057 313.045 304.4 312.764 304.822 312.577C305.244 312.389 305.689 312.295 306.158 312.295C306.528 312.295 306.831 312.325 307.065 312.385C307.3 312.445 307.475 312.5 307.59 312.551L307.155 313.855C307.078 313.83 306.972 313.798 306.835 313.759C306.703 313.721 306.528 313.702 306.311 313.702C305.813 313.702 305.452 313.827 305.231 314.079C305.014 314.33 304.905 314.699 304.905 315.185V326H303.396ZM313.086 326.23C312.464 326.23 311.899 326.113 311.392 325.879C310.885 325.64 310.482 325.297 310.184 324.849C309.886 324.398 309.736 323.852 309.736 323.213C309.736 322.651 309.847 322.195 310.069 321.845C310.29 321.491 310.587 321.214 310.957 321.014C311.328 320.814 311.737 320.665 312.185 320.567C312.636 320.464 313.09 320.384 313.546 320.324C314.143 320.247 314.626 320.19 314.997 320.151C315.372 320.109 315.645 320.038 315.815 319.94C315.99 319.842 316.077 319.672 316.077 319.429V319.378C316.077 318.747 315.905 318.257 315.56 317.908C315.219 317.558 314.701 317.384 314.006 317.384C313.286 317.384 312.722 317.541 312.312 317.857C311.903 318.172 311.616 318.509 311.45 318.866L310.018 318.355C310.273 317.759 310.614 317.294 311.04 316.962C311.471 316.625 311.94 316.391 312.447 316.259C312.958 316.122 313.461 316.054 313.955 316.054C314.271 316.054 314.633 316.092 315.042 316.169C315.455 316.241 315.854 316.393 316.237 316.623C316.625 316.853 316.947 317.2 317.202 317.665C317.458 318.129 317.586 318.751 317.586 319.531V326H316.077V324.67H316.001C315.898 324.884 315.728 325.112 315.489 325.354C315.251 325.597 314.933 325.804 314.537 325.974C314.141 326.145 313.657 326.23 313.086 326.23ZM313.316 324.875C313.913 324.875 314.415 324.758 314.825 324.523C315.238 324.289 315.549 323.987 315.758 323.616C315.971 323.245 316.077 322.855 316.077 322.446V321.065C316.013 321.142 315.873 321.212 315.655 321.276C315.442 321.336 315.195 321.389 314.914 321.436C314.637 321.479 314.366 321.517 314.102 321.551C313.842 321.581 313.631 321.607 313.469 321.628C313.077 321.679 312.711 321.762 312.37 321.877C312.033 321.988 311.761 322.156 311.552 322.382C311.347 322.604 311.245 322.906 311.245 323.29C311.245 323.814 311.439 324.21 311.827 324.479C312.219 324.743 312.715 324.875 313.316 324.875ZM325.588 326.205C324.667 326.205 323.875 325.987 323.21 325.553C322.545 325.118 322.034 324.519 321.676 323.756C321.318 322.994 321.139 322.122 321.139 321.142C321.139 320.145 321.322 319.265 321.689 318.502C322.06 317.735 322.575 317.136 323.236 316.706C323.9 316.271 324.676 316.054 325.562 316.054C326.253 316.054 326.875 316.182 327.429 316.438C327.983 316.693 328.437 317.051 328.79 317.511C329.144 317.972 329.363 318.509 329.449 319.122H327.94C327.825 318.675 327.569 318.278 327.173 317.933C326.781 317.584 326.253 317.409 325.588 317.409C325 317.409 324.484 317.562 324.041 317.869C323.602 318.172 323.259 318.6 323.012 319.154C322.769 319.704 322.648 320.349 322.648 321.091C322.648 321.849 322.767 322.51 323.006 323.072C323.248 323.635 323.589 324.072 324.028 324.383C324.471 324.694 324.991 324.849 325.588 324.849C325.98 324.849 326.336 324.781 326.655 324.645C326.975 324.509 327.246 324.312 327.467 324.057C327.689 323.801 327.846 323.494 327.94 323.136H329.449C329.363 323.716 329.153 324.238 328.816 324.702C328.484 325.163 328.042 325.529 327.493 325.802C326.947 326.07 326.312 326.205 325.588 326.205ZM337.184 316.182V317.46H332.096V316.182H337.184ZM333.579 313.83H335.087V323.188C335.087 323.614 335.149 323.933 335.273 324.146C335.4 324.355 335.562 324.496 335.758 324.568C335.959 324.636 336.17 324.67 336.391 324.67C336.557 324.67 336.694 324.662 336.8 324.645C336.907 324.624 336.992 324.607 337.056 324.594L337.363 325.949C337.261 325.987 337.118 326.026 336.935 326.064C336.751 326.107 336.519 326.128 336.238 326.128C335.812 326.128 335.394 326.036 334.985 325.853C334.58 325.67 334.244 325.391 333.975 325.016C333.711 324.641 333.579 324.168 333.579 323.597V313.83ZM340.713 326V316.182H342.17V317.665H342.273C342.452 317.179 342.776 316.785 343.244 316.482C343.713 316.18 344.241 316.028 344.829 316.028C344.94 316.028 345.079 316.031 345.245 316.035C345.411 316.039 345.537 316.045 345.622 316.054V317.588C345.571 317.575 345.454 317.556 345.271 317.531C345.092 317.501 344.902 317.486 344.702 317.486C344.224 317.486 343.798 317.586 343.423 317.786C343.053 317.982 342.758 318.255 342.541 318.604C342.328 318.95 342.222 319.344 342.222 319.787V326H340.713ZM348.67 326V316.182H350.179V326H348.67ZM349.437 314.545C349.143 314.545 348.89 314.445 348.677 314.245C348.468 314.045 348.363 313.804 348.363 313.523C348.363 313.241 348.468 313.001 348.677 312.8C348.89 312.6 349.143 312.5 349.437 312.5C349.731 312.5 349.983 312.6 350.192 312.8C350.405 313.001 350.511 313.241 350.511 313.523C350.511 313.804 350.405 314.045 350.192 314.245C349.983 314.445 349.731 314.545 349.437 314.545ZM355.71 320.094V326H354.202V316.182H355.659V317.716H355.787C356.017 317.217 356.367 316.817 356.835 316.514C357.304 316.207 357.909 316.054 358.651 316.054C359.315 316.054 359.897 316.19 360.396 316.463C360.894 316.732 361.282 317.141 361.559 317.69C361.836 318.236 361.975 318.926 361.975 319.761V326H360.466V319.864C360.466 319.092 360.266 318.491 359.865 318.061C359.465 317.626 358.915 317.409 358.216 317.409C357.734 317.409 357.304 317.513 356.925 317.722C356.55 317.931 356.254 318.236 356.036 318.636C355.819 319.037 355.71 319.523 355.71 320.094ZM369.954 329.886C369.225 329.886 368.599 329.793 368.075 329.605C367.551 329.422 367.114 329.179 366.765 328.876C366.419 328.578 366.144 328.259 365.94 327.918L367.142 327.074C367.278 327.253 367.451 327.457 367.659 327.688C367.868 327.922 368.154 328.124 368.516 328.295C368.882 328.469 369.362 328.557 369.954 328.557C370.747 328.557 371.401 328.365 371.917 327.982C372.432 327.598 372.69 326.997 372.69 326.179V324.185H372.562C372.451 324.364 372.294 324.585 372.089 324.849C371.889 325.109 371.599 325.342 371.22 325.546C370.845 325.746 370.338 325.847 369.698 325.847C368.906 325.847 368.194 325.659 367.564 325.284C366.937 324.909 366.441 324.364 366.074 323.648C365.712 322.932 365.531 322.062 365.531 321.04C365.531 320.034 365.708 319.158 366.061 318.413C366.415 317.663 366.907 317.083 367.538 316.674C368.169 316.261 368.897 316.054 369.724 316.054C370.363 316.054 370.87 316.161 371.245 316.374C371.625 316.582 371.914 316.821 372.115 317.089C372.319 317.354 372.477 317.571 372.588 317.741H372.741V316.182H374.198V326.281C374.198 327.125 374.007 327.811 373.623 328.339C373.244 328.872 372.733 329.262 372.089 329.509C371.45 329.761 370.738 329.886 369.954 329.886ZM369.903 324.491C370.508 324.491 371.019 324.353 371.437 324.076C371.855 323.799 372.172 323.401 372.39 322.881C372.607 322.361 372.716 321.739 372.716 321.014C372.716 320.307 372.609 319.683 372.396 319.141C372.183 318.6 371.867 318.176 371.45 317.869C371.032 317.562 370.517 317.409 369.903 317.409C369.264 317.409 368.731 317.571 368.305 317.895C367.883 318.219 367.566 318.653 367.353 319.199C367.144 319.744 367.039 320.349 367.039 321.014C367.039 321.696 367.146 322.299 367.359 322.823C367.576 323.343 367.896 323.752 368.318 324.05C368.744 324.344 369.272 324.491 369.903 324.491ZM166.27 348.23C165.648 348.23 165.083 348.113 164.576 347.879C164.069 347.64 163.666 347.297 163.368 346.849C163.07 346.398 162.92 345.852 162.92 345.213C162.92 344.651 163.031 344.195 163.253 343.845C163.474 343.491 163.771 343.214 164.141 343.014C164.512 342.814 164.921 342.665 165.369 342.567C165.82 342.464 166.274 342.384 166.73 342.324C167.327 342.247 167.81 342.19 168.181 342.151C168.556 342.109 168.829 342.038 168.999 341.94C169.174 341.842 169.261 341.672 169.261 341.429V341.378C169.261 340.747 169.089 340.257 168.744 339.908C168.403 339.558 167.885 339.384 167.19 339.384C166.47 339.384 165.906 339.541 165.496 339.857C165.087 340.172 164.8 340.509 164.634 340.866L163.202 340.355C163.457 339.759 163.798 339.294 164.224 338.962C164.655 338.625 165.124 338.391 165.631 338.259C166.142 338.122 166.645 338.054 167.139 338.054C167.455 338.054 167.817 338.092 168.226 338.169C168.639 338.241 169.038 338.393 169.421 338.623C169.809 338.853 170.131 339.2 170.386 339.665C170.642 340.129 170.77 340.751 170.77 341.531V348H169.261V346.67H169.185C169.082 346.884 168.912 347.112 168.673 347.354C168.435 347.597 168.117 347.804 167.721 347.974C167.325 348.145 166.841 348.23 166.27 348.23ZM166.5 346.875C167.097 346.875 167.599 346.758 168.009 346.523C168.422 346.289 168.733 345.987 168.942 345.616C169.155 345.245 169.261 344.855 169.261 344.446V343.065C169.197 343.142 169.057 343.212 168.839 343.276C168.626 343.336 168.379 343.389 168.098 343.436C167.821 343.479 167.55 343.517 167.286 343.551C167.026 343.581 166.815 343.607 166.653 343.628C166.261 343.679 165.895 343.762 165.554 343.877C165.217 343.988 164.945 344.156 164.736 344.382C164.531 344.604 164.429 344.906 164.429 345.29C164.429 345.814 164.623 346.21 165.011 346.479C165.403 346.743 165.899 346.875 166.5 346.875ZM176.292 342.094V348H174.783V338.182H176.241V339.716H176.368C176.599 339.217 176.948 338.817 177.417 338.514C177.886 338.207 178.491 338.054 179.232 338.054C179.897 338.054 180.479 338.19 180.977 338.463C181.476 338.732 181.864 339.141 182.141 339.69C182.417 340.236 182.556 340.926 182.556 341.761V348H181.047V341.864C181.047 341.092 180.847 340.491 180.447 340.061C180.046 339.626 179.496 339.409 178.797 339.409C178.316 339.409 177.886 339.513 177.506 339.722C177.131 339.931 176.835 340.236 176.618 340.636C176.4 341.037 176.292 341.523 176.292 342.094ZM190.28 348.205C189.462 348.205 188.739 347.998 188.113 347.585C187.487 347.167 186.997 346.579 186.643 345.82C186.289 345.058 186.112 344.156 186.112 343.116C186.112 342.085 186.289 341.19 186.643 340.432C186.997 339.673 187.489 339.087 188.119 338.674C188.75 338.261 189.479 338.054 190.306 338.054C190.945 338.054 191.45 338.161 191.82 338.374C192.195 338.582 192.481 338.821 192.677 339.089C192.877 339.354 193.033 339.571 193.144 339.741H193.271V334.909H194.78V348H193.323V346.491H193.144C193.033 346.67 192.875 346.896 192.671 347.169C192.466 347.437 192.174 347.678 191.795 347.891C191.416 348.1 190.911 348.205 190.28 348.205ZM190.484 346.849C191.09 346.849 191.601 346.692 192.019 346.376C192.436 346.057 192.754 345.616 192.971 345.053C193.188 344.487 193.297 343.832 193.297 343.091C193.297 342.358 193.19 341.717 192.977 341.167C192.764 340.613 192.449 340.183 192.031 339.876C191.614 339.565 191.098 339.409 190.484 339.409C189.845 339.409 189.313 339.573 188.886 339.901C188.465 340.225 188.147 340.666 187.934 341.224C187.725 341.778 187.621 342.401 187.621 343.091C187.621 343.79 187.727 344.425 187.94 344.996C188.158 345.562 188.477 346.014 188.899 346.351C189.325 346.683 189.854 346.849 190.484 346.849ZM209.451 348.205C208.505 348.205 207.689 347.996 207.003 347.578C206.321 347.156 205.795 346.568 205.424 345.814C205.058 345.055 204.875 344.173 204.875 343.168C204.875 342.162 205.058 341.276 205.424 340.509C205.795 339.737 206.311 339.136 206.971 338.706C207.636 338.271 208.411 338.054 209.298 338.054C209.809 338.054 210.314 338.139 210.813 338.31C211.311 338.48 211.765 338.757 212.174 339.141C212.583 339.52 212.909 340.023 213.152 340.649C213.395 341.276 213.517 342.047 213.517 342.963V343.602H205.948V342.298H211.982C211.982 341.744 211.872 341.25 211.65 340.815C211.433 340.381 211.122 340.038 210.717 339.786C210.316 339.535 209.843 339.409 209.298 339.409C208.697 339.409 208.177 339.558 207.738 339.857C207.303 340.151 206.969 340.534 206.735 341.007C206.5 341.48 206.383 341.987 206.383 342.528V343.398C206.383 344.139 206.511 344.768 206.767 345.283C207.027 345.795 207.387 346.185 207.847 346.453C208.307 346.717 208.842 346.849 209.451 346.849C209.848 346.849 210.205 346.794 210.525 346.683C210.849 346.568 211.128 346.398 211.362 346.172C211.597 345.942 211.778 345.656 211.906 345.315L213.363 345.724C213.21 346.219 212.952 346.653 212.59 347.028C212.228 347.399 211.78 347.689 211.247 347.898C210.715 348.102 210.116 348.205 209.451 348.205ZM221.06 348.205C220.139 348.205 219.347 347.987 218.682 347.553C218.017 347.118 217.506 346.519 217.148 345.756C216.79 344.994 216.611 344.122 216.611 343.142C216.611 342.145 216.794 341.265 217.161 340.502C217.532 339.735 218.047 339.136 218.708 338.706C219.372 338.271 220.148 338.054 221.034 338.054C221.725 338.054 222.347 338.182 222.901 338.438C223.455 338.693 223.909 339.051 224.262 339.511C224.616 339.972 224.836 340.509 224.921 341.122H223.412C223.297 340.675 223.041 340.278 222.645 339.933C222.253 339.584 221.725 339.409 221.06 339.409C220.472 339.409 219.956 339.562 219.513 339.869C219.074 340.172 218.731 340.6 218.484 341.154C218.241 341.704 218.12 342.349 218.12 343.091C218.12 343.849 218.239 344.51 218.478 345.072C218.72 345.635 219.061 346.072 219.5 346.383C219.943 346.694 220.463 346.849 221.06 346.849C221.452 346.849 221.808 346.781 222.127 346.645C222.447 346.509 222.718 346.312 222.939 346.057C223.161 345.801 223.318 345.494 223.412 345.136H224.921C224.836 345.716 224.625 346.238 224.288 346.702C223.956 347.163 223.514 347.529 222.965 347.802C222.419 348.07 221.784 348.205 221.06 348.205ZM232.375 348.205C231.488 348.205 230.711 347.994 230.042 347.572C229.377 347.15 228.857 346.56 228.482 345.801C228.111 345.043 227.926 344.156 227.926 343.142C227.926 342.119 228.111 341.227 228.482 340.464C228.857 339.701 229.377 339.109 230.042 338.687C230.711 338.265 231.488 338.054 232.375 338.054C233.261 338.054 234.037 338.265 234.701 338.687C235.37 339.109 235.89 339.701 236.261 340.464C236.636 341.227 236.823 342.119 236.823 343.142C236.823 344.156 236.636 345.043 236.261 345.801C235.89 346.56 235.37 347.15 234.701 347.572C234.037 347.994 233.261 348.205 232.375 348.205ZM232.375 346.849C233.048 346.849 233.602 346.677 234.037 346.332C234.471 345.987 234.793 345.533 235.002 344.97C235.211 344.408 235.315 343.798 235.315 343.142C235.315 342.486 235.211 341.874 235.002 341.308C234.793 340.741 234.471 340.283 234.037 339.933C233.602 339.584 233.048 339.409 232.375 339.409C231.701 339.409 231.147 339.584 230.713 339.933C230.278 340.283 229.956 340.741 229.747 341.308C229.539 341.874 229.434 342.486 229.434 343.142C229.434 343.798 229.539 344.408 229.747 344.97C229.956 345.533 230.278 345.987 230.713 346.332C231.147 346.677 231.701 346.849 232.375 346.849ZM246.011 341.685V343.091H240.284V341.685H246.011ZM254.298 338.182V339.46H249.005V338.182H254.298ZM250.59 348V336.827C250.59 336.264 250.722 335.795 250.987 335.42C251.251 335.045 251.594 334.764 252.016 334.577C252.438 334.389 252.883 334.295 253.352 334.295C253.722 334.295 254.025 334.325 254.259 334.385C254.494 334.445 254.668 334.5 254.783 334.551L254.349 335.855C254.272 335.83 254.166 335.798 254.029 335.759C253.897 335.721 253.722 335.702 253.505 335.702C253.006 335.702 252.646 335.827 252.425 336.079C252.207 336.33 252.099 336.699 252.099 337.185V348H250.59ZM257.672 348V338.182H259.129V339.665H259.232C259.41 339.179 259.734 338.785 260.203 338.482C260.672 338.18 261.2 338.028 261.788 338.028C261.899 338.028 262.038 338.031 262.204 338.035C262.37 338.039 262.496 338.045 262.581 338.054V339.588C262.53 339.575 262.413 339.556 262.229 339.531C262.05 339.501 261.861 339.486 261.66 339.486C261.183 339.486 260.757 339.586 260.382 339.786C260.011 339.982 259.717 340.255 259.5 340.604C259.287 340.95 259.18 341.344 259.18 341.787V348H257.672ZM265.629 348V338.182H267.138V348H265.629ZM266.396 336.545C266.102 336.545 265.849 336.445 265.636 336.245C265.427 336.045 265.322 335.804 265.322 335.523C265.322 335.241 265.427 335.001 265.636 334.8C265.849 334.6 266.102 334.5 266.396 334.5C266.69 334.5 266.942 334.6 267.15 334.8C267.363 335.001 267.47 335.241 267.47 335.523C267.47 335.804 267.363 336.045 267.15 336.245C266.942 336.445 266.69 336.545 266.396 336.545ZM275.277 348.205C274.331 348.205 273.515 347.996 272.829 347.578C272.147 347.156 271.621 346.568 271.25 345.814C270.884 345.055 270.7 344.173 270.7 343.168C270.7 342.162 270.884 341.276 271.25 340.509C271.621 339.737 272.136 339.136 272.797 338.706C273.462 338.271 274.237 338.054 275.124 338.054C275.635 338.054 276.14 338.139 276.639 338.31C277.137 338.48 277.591 338.757 278 339.141C278.409 339.52 278.735 340.023 278.978 340.649C279.221 341.276 279.342 342.047 279.342 342.963V343.602H271.774V342.298H277.808C277.808 341.744 277.698 341.25 277.476 340.815C277.259 340.381 276.948 340.038 276.543 339.786C276.142 339.535 275.669 339.409 275.124 339.409C274.523 339.409 274.003 339.558 273.564 339.857C273.129 340.151 272.795 340.534 272.56 341.007C272.326 341.48 272.209 341.987 272.209 342.528V343.398C272.209 344.139 272.337 344.768 272.592 345.283C272.852 345.795 273.212 346.185 273.673 346.453C274.133 346.717 274.668 346.849 275.277 346.849C275.673 346.849 276.031 346.794 276.351 346.683C276.675 346.568 276.954 346.398 277.188 346.172C277.423 345.942 277.604 345.656 277.732 345.315L279.189 345.724C279.036 346.219 278.778 346.653 278.416 347.028C278.053 347.399 277.606 347.689 277.073 347.898C276.541 348.102 275.942 348.205 275.277 348.205ZM284.406 342.094V348H282.897V338.182H284.355V339.716H284.482C284.713 339.217 285.062 338.817 285.531 338.514C285.999 338.207 286.605 338.054 287.346 338.054C288.011 338.054 288.592 338.19 289.091 338.463C289.59 338.732 289.977 339.141 290.254 339.69C290.531 340.236 290.67 340.926 290.67 341.761V348H289.161V341.864C289.161 341.092 288.961 340.491 288.561 340.061C288.16 339.626 287.61 339.409 286.911 339.409C286.43 339.409 285.999 339.513 285.62 339.722C285.245 339.931 284.949 340.236 284.732 340.636C284.514 341.037 284.406 341.523 284.406 342.094ZM298.394 348.205C297.576 348.205 296.853 347.998 296.227 347.585C295.601 347.167 295.11 346.579 294.757 345.82C294.403 345.058 294.226 344.156 294.226 343.116C294.226 342.085 294.403 341.19 294.757 340.432C295.11 339.673 295.603 339.087 296.233 338.674C296.864 338.261 297.593 338.054 298.419 338.054C299.059 338.054 299.564 338.161 299.934 338.374C300.309 338.582 300.595 338.821 300.791 339.089C300.991 339.354 301.147 339.571 301.257 339.741H301.385V334.909H302.894V348H301.436V346.491H301.257C301.147 346.67 300.989 346.896 300.784 347.169C300.58 347.437 300.288 347.678 299.909 347.891C299.53 348.1 299.025 348.205 298.394 348.205ZM298.598 346.849C299.204 346.849 299.715 346.692 300.132 346.376C300.55 346.057 300.868 345.616 301.085 345.053C301.302 344.487 301.411 343.832 301.411 343.091C301.411 342.358 301.304 341.717 301.091 341.167C300.878 340.613 300.563 340.183 300.145 339.876C299.728 339.565 299.212 339.409 298.598 339.409C297.959 339.409 297.427 339.573 297 339.901C296.579 340.225 296.261 340.666 296.048 341.224C295.839 341.778 295.735 342.401 295.735 343.091C295.735 343.79 295.841 344.425 296.054 344.996C296.272 345.562 296.591 346.014 297.013 346.351C297.439 346.683 297.968 346.849 298.598 346.849ZM308.635 334.909V348H307.126V334.909H308.635ZM313.629 351.682C313.374 351.682 313.146 351.661 312.945 351.618C312.745 351.58 312.606 351.541 312.53 351.503L312.913 350.173C313.28 350.267 313.604 350.301 313.885 350.276C314.166 350.25 314.415 350.124 314.633 349.898C314.854 349.677 315.057 349.317 315.24 348.818L315.521 348.051L311.891 338.182H313.527L316.237 346.006H316.339L319.05 338.182H320.686L316.518 349.432C316.331 349.939 316.099 350.359 315.822 350.691C315.545 351.028 315.223 351.277 314.856 351.439C314.494 351.601 314.085 351.682 313.629 351.682ZM163.381 373.682V360.182H164.838V361.741H165.017C165.128 361.571 165.281 361.354 165.477 361.089C165.678 360.821 165.963 360.582 166.334 360.374C166.709 360.161 167.216 360.054 167.855 360.054C168.682 360.054 169.411 360.261 170.041 360.674C170.672 361.087 171.164 361.673 171.518 362.432C171.871 363.19 172.048 364.085 172.048 365.116C172.048 366.156 171.871 367.058 171.518 367.82C171.164 368.579 170.674 369.167 170.048 369.585C169.421 369.998 168.699 370.205 167.881 370.205C167.25 370.205 166.745 370.1 166.366 369.891C165.987 369.678 165.695 369.437 165.49 369.169C165.286 368.896 165.128 368.67 165.017 368.491H164.889V373.682H163.381ZM164.864 365.091C164.864 365.832 164.972 366.487 165.19 367.053C165.407 367.616 165.724 368.057 166.142 368.376C166.56 368.692 167.071 368.849 167.676 368.849C168.307 368.849 168.833 368.683 169.255 368.351C169.681 368.014 170.001 367.562 170.214 366.996C170.431 366.425 170.54 365.79 170.54 365.091C170.54 364.401 170.433 363.778 170.22 363.224C170.011 362.666 169.694 362.225 169.268 361.901C168.846 361.573 168.315 361.409 167.676 361.409C167.063 361.409 166.547 361.565 166.129 361.876C165.712 362.183 165.396 362.613 165.183 363.167C164.97 363.717 164.864 364.358 164.864 365.091ZM175.609 370V360.182H177.067V361.665H177.169C177.348 361.179 177.672 360.785 178.141 360.482C178.609 360.18 179.138 360.028 179.726 360.028C179.837 360.028 179.975 360.031 180.141 360.035C180.308 360.039 180.433 360.045 180.519 360.054V361.588C180.467 361.575 180.35 361.556 180.167 361.531C179.988 361.501 179.798 361.486 179.598 361.486C179.121 361.486 178.695 361.586 178.32 361.786C177.949 361.982 177.655 362.255 177.438 362.604C177.224 362.95 177.118 363.344 177.118 363.787V370H175.609ZM187.257 370.205C186.37 370.205 185.592 369.994 184.923 369.572C184.259 369.15 183.739 368.56 183.364 367.801C182.993 367.043 182.808 366.156 182.808 365.142C182.808 364.119 182.993 363.227 183.364 362.464C183.739 361.701 184.259 361.109 184.923 360.687C185.592 360.265 186.37 360.054 187.257 360.054C188.143 360.054 188.918 360.265 189.583 360.687C190.252 361.109 190.772 361.701 191.143 362.464C191.518 363.227 191.705 364.119 191.705 365.142C191.705 366.156 191.518 367.043 191.143 367.801C190.772 368.56 190.252 369.15 189.583 369.572C188.918 369.994 188.143 370.205 187.257 370.205ZM187.257 368.849C187.93 368.849 188.484 368.677 188.918 368.332C189.353 367.987 189.675 367.533 189.884 366.97C190.092 366.408 190.197 365.798 190.197 365.142C190.197 364.486 190.092 363.874 189.884 363.308C189.675 362.741 189.353 362.283 188.918 361.933C188.484 361.584 187.93 361.409 187.257 361.409C186.583 361.409 186.029 361.584 185.595 361.933C185.16 362.283 184.838 362.741 184.629 363.308C184.421 363.874 184.316 364.486 184.316 365.142C184.316 365.798 184.421 366.408 184.629 366.97C184.838 367.533 185.16 367.987 185.595 368.332C186.029 368.677 186.583 368.849 187.257 368.849ZM198.975 370.205C198.157 370.205 197.435 369.998 196.809 369.585C196.182 369.167 195.692 368.579 195.338 367.82C194.985 367.058 194.808 366.156 194.808 365.116C194.808 364.085 194.985 363.19 195.338 362.432C195.692 361.673 196.184 361.087 196.815 360.674C197.446 360.261 198.174 360.054 199.001 360.054C199.64 360.054 200.145 360.161 200.516 360.374C200.891 360.582 201.176 360.821 201.373 361.089C201.573 361.354 201.728 361.571 201.839 361.741H201.967V356.909H203.475V370H202.018V368.491H201.839C201.728 368.67 201.571 368.896 201.366 369.169C201.162 369.437 200.87 369.678 200.49 369.891C200.111 370.1 199.606 370.205 198.975 370.205ZM199.18 368.849C199.785 368.849 200.297 368.692 200.714 368.376C201.132 368.057 201.449 367.616 201.667 367.053C201.884 366.487 201.993 365.832 201.993 365.091C201.993 364.358 201.886 363.717 201.673 363.167C201.46 362.613 201.145 362.183 200.727 361.876C200.309 361.565 199.794 361.409 199.18 361.409C198.541 361.409 198.008 361.573 197.582 361.901C197.16 362.225 196.843 362.666 196.63 363.224C196.421 363.778 196.316 364.401 196.316 365.091C196.316 365.79 196.423 366.425 196.636 366.996C196.853 367.562 197.173 368.014 197.595 368.351C198.021 368.683 198.549 368.849 199.18 368.849ZM213.895 365.986V360.182H215.404V370H213.895V368.338H213.793C213.563 368.837 213.205 369.261 212.719 369.61C212.233 369.955 211.62 370.128 210.878 370.128C210.265 370.128 209.719 369.994 209.242 369.725C208.765 369.452 208.39 369.043 208.117 368.498C207.844 367.948 207.708 367.256 207.708 366.42V360.182H209.216V366.318C209.216 367.034 209.417 367.605 209.817 368.031C210.222 368.457 210.738 368.67 211.364 368.67C211.739 368.67 212.12 368.575 212.508 368.383C212.9 368.191 213.228 367.897 213.493 367.501C213.761 367.104 213.895 366.599 213.895 365.986ZM223.415 370.205C222.495 370.205 221.702 369.987 221.038 369.553C220.373 369.118 219.861 368.519 219.503 367.756C219.146 366.994 218.967 366.122 218.967 365.142C218.967 364.145 219.15 363.265 219.516 362.502C219.887 361.735 220.403 361.136 221.063 360.706C221.728 360.271 222.503 360.054 223.39 360.054C224.08 360.054 224.702 360.182 225.256 360.438C225.81 360.693 226.264 361.051 226.618 361.511C226.972 361.972 227.191 362.509 227.276 363.122H225.768C225.653 362.675 225.397 362.278 225.001 361.933C224.609 361.584 224.08 361.409 223.415 361.409C222.827 361.409 222.312 361.562 221.869 361.869C221.43 362.172 221.087 362.6 220.839 363.154C220.597 363.704 220.475 364.349 220.475 365.091C220.475 365.849 220.594 366.51 220.833 367.072C221.076 367.635 221.417 368.072 221.856 368.383C222.299 368.694 222.819 368.849 223.415 368.849C223.807 368.849 224.163 368.781 224.483 368.645C224.802 368.509 225.073 368.312 225.295 368.057C225.516 367.801 225.674 367.494 225.768 367.136H227.276C227.191 367.716 226.98 368.238 226.643 368.702C226.311 369.163 225.87 369.529 225.32 369.802C224.775 370.07 224.14 370.205 223.415 370.205ZM235.011 360.182V361.46H229.923V360.182H235.011ZM231.406 357.83H232.915V367.188C232.915 367.614 232.977 367.933 233.1 368.146C233.228 368.355 233.39 368.496 233.586 368.568C233.786 368.636 233.997 368.67 234.219 368.67C234.385 368.67 234.521 368.662 234.628 368.645C234.734 368.624 234.82 368.607 234.884 368.594L235.19 369.949C235.088 369.987 234.945 370.026 234.762 370.064C234.579 370.107 234.347 370.128 234.065 370.128C233.639 370.128 233.222 370.036 232.812 369.853C232.408 369.67 232.071 369.391 231.803 369.016C231.538 368.641 231.406 368.168 231.406 367.597V357.83ZM238.541 370V360.182H240.049V370H238.541ZM239.308 358.545C239.014 358.545 238.76 358.445 238.547 358.245C238.338 358.045 238.234 357.804 238.234 357.523C238.234 357.241 238.338 357.001 238.547 356.8C238.76 356.6 239.014 356.5 239.308 356.5C239.602 356.5 239.853 356.6 240.062 356.8C240.275 357.001 240.381 357.241 240.381 357.523C240.381 357.804 240.275 358.045 240.062 358.245C239.853 358.445 239.602 358.545 239.308 358.545ZM248.061 370.205C247.174 370.205 246.397 369.994 245.728 369.572C245.063 369.15 244.543 368.56 244.168 367.801C243.797 367.043 243.612 366.156 243.612 365.142C243.612 364.119 243.797 363.227 244.168 362.464C244.543 361.701 245.063 361.109 245.728 360.687C246.397 360.265 247.174 360.054 248.061 360.054C248.947 360.054 249.723 360.265 250.387 360.687C251.056 361.109 251.576 361.701 251.947 362.464C252.322 363.227 252.51 364.119 252.51 365.142C252.51 366.156 252.322 367.043 251.947 367.801C251.576 368.56 251.056 369.15 250.387 369.572C249.723 369.994 248.947 370.205 248.061 370.205ZM248.061 368.849C248.734 368.849 249.288 368.677 249.723 368.332C250.157 367.987 250.479 367.533 250.688 366.97C250.897 366.408 251.001 365.798 251.001 365.142C251.001 364.486 250.897 363.874 250.688 363.308C250.479 362.741 250.157 362.283 249.723 361.933C249.288 361.584 248.734 361.409 248.061 361.409C247.387 361.409 246.833 361.584 246.399 361.933C245.964 362.283 245.642 362.741 245.434 363.308C245.225 363.874 245.12 364.486 245.12 365.142C245.12 365.798 245.225 366.408 245.434 366.97C245.642 367.533 245.964 367.987 246.399 368.332C246.833 368.677 247.387 368.849 248.061 368.849ZM257.581 364.094V370H256.072V360.182H257.53V361.716H257.657C257.888 361.217 258.237 360.817 258.706 360.514C259.175 360.207 259.78 360.054 260.521 360.054C261.186 360.054 261.768 360.19 262.266 360.463C262.765 360.732 263.152 361.141 263.429 361.69C263.706 362.236 263.845 362.926 263.845 363.761V370H262.336V363.864C262.336 363.092 262.136 362.491 261.736 362.061C261.335 361.626 260.785 361.409 260.086 361.409C259.605 361.409 259.175 361.513 258.795 361.722C258.42 361.931 258.124 362.236 257.907 362.636C257.689 363.037 257.581 363.523 257.581 364.094ZM268.961 370.102C268.646 370.102 268.375 369.989 268.149 369.763C267.923 369.538 267.81 369.267 267.81 368.952C267.81 368.636 267.923 368.366 268.149 368.14C268.375 367.914 268.646 367.801 268.961 367.801C269.276 367.801 269.547 367.914 269.773 368.14C269.999 368.366 270.112 368.636 270.112 368.952C270.112 369.161 270.058 369.352 269.952 369.527C269.849 369.702 269.711 369.842 269.536 369.949C269.366 370.051 269.174 370.102 268.961 370.102Z" fill="black"/>
<path d="M173.207 252.344C173.128 251.599 172.793 251.02 172.202 250.605C171.616 250.19 170.855 249.983 169.918 249.983C169.259 249.983 168.693 250.082 168.222 250.281C167.75 250.48 167.389 250.75 167.139 251.091C166.889 251.432 166.761 251.821 166.756 252.259C166.756 252.622 166.838 252.937 167.003 253.205C167.173 253.472 167.403 253.699 167.693 253.886C167.983 254.068 168.304 254.222 168.656 254.347C169.009 254.472 169.364 254.577 169.722 254.662L171.358 255.071C172.017 255.224 172.651 255.432 173.259 255.693C173.872 255.955 174.42 256.284 174.903 256.682C175.392 257.08 175.778 257.56 176.062 258.122C176.347 258.685 176.489 259.344 176.489 260.099C176.489 261.122 176.227 262.023 175.705 262.801C175.182 263.574 174.426 264.179 173.438 264.616C172.455 265.048 171.264 265.264 169.866 265.264C168.509 265.264 167.33 265.054 166.33 264.634C165.335 264.213 164.557 263.599 163.994 262.793C163.438 261.986 163.136 261.003 163.091 259.844H166.202C166.247 260.452 166.435 260.957 166.764 261.361C167.094 261.764 167.523 262.065 168.051 262.264C168.585 262.463 169.182 262.562 169.841 262.562C170.528 262.562 171.131 262.46 171.648 262.256C172.17 262.045 172.58 261.756 172.875 261.386C173.17 261.011 173.321 260.574 173.327 260.074C173.321 259.619 173.188 259.244 172.926 258.949C172.665 258.648 172.298 258.398 171.827 258.199C171.361 257.994 170.815 257.812 170.19 257.653L168.205 257.142C166.767 256.773 165.631 256.213 164.795 255.463C163.966 254.707 163.551 253.705 163.551 252.455C163.551 251.426 163.83 250.526 164.386 249.753C164.949 248.98 165.713 248.381 166.679 247.955C167.645 247.523 168.739 247.307 169.96 247.307C171.199 247.307 172.284 247.523 173.216 247.955C174.153 248.381 174.889 248.974 175.423 249.736C175.957 250.491 176.233 251.361 176.25 252.344H173.207ZM189.195 259.494V251.909H192.28V265H189.289V262.673H189.152C188.857 263.406 188.371 264.006 187.695 264.472C187.024 264.937 186.198 265.17 185.215 265.17C184.357 265.17 183.598 264.98 182.939 264.599C182.286 264.213 181.774 263.653 181.405 262.92C181.036 262.182 180.851 261.29 180.851 260.244V251.909H183.936V259.767C183.936 260.597 184.164 261.256 184.618 261.744C185.073 262.233 185.669 262.477 186.408 262.477C186.863 262.477 187.303 262.366 187.729 262.145C188.155 261.923 188.505 261.594 188.777 261.156C189.056 260.713 189.195 260.159 189.195 259.494ZM207.479 255.369L204.667 255.676C204.587 255.392 204.448 255.125 204.249 254.875C204.056 254.625 203.795 254.423 203.465 254.27C203.136 254.116 202.732 254.04 202.255 254.04C201.613 254.04 201.073 254.179 200.636 254.457C200.204 254.736 199.991 255.097 199.996 255.54C199.991 255.92 200.13 256.23 200.414 256.469C200.704 256.707 201.181 256.903 201.846 257.057L204.079 257.534C205.317 257.801 206.238 258.224 206.84 258.804C207.448 259.384 207.755 260.142 207.761 261.08C207.755 261.903 207.513 262.631 207.036 263.261C206.565 263.886 205.908 264.375 205.067 264.727C204.226 265.08 203.261 265.256 202.17 265.256C200.567 265.256 199.278 264.92 198.3 264.25C197.323 263.574 196.741 262.634 196.553 261.429L199.562 261.139C199.698 261.73 199.988 262.176 200.431 262.477C200.874 262.778 201.451 262.929 202.161 262.929C202.894 262.929 203.482 262.778 203.925 262.477C204.374 262.176 204.599 261.804 204.599 261.361C204.599 260.986 204.454 260.676 204.164 260.432C203.88 260.187 203.437 260 202.834 259.869L200.601 259.401C199.346 259.139 198.417 258.699 197.815 258.08C197.212 257.455 196.914 256.665 196.92 255.71C196.914 254.903 197.133 254.205 197.576 253.614C198.025 253.017 198.647 252.557 199.442 252.233C200.244 251.903 201.167 251.739 202.212 251.739C203.746 251.739 204.954 252.065 205.834 252.719C206.721 253.372 207.269 254.256 207.479 255.369ZM218.522 251.909V254.295H210.996V251.909H218.522ZM212.854 248.773H215.939V261.062C215.939 261.477 216.002 261.795 216.127 262.017C216.257 262.233 216.428 262.381 216.638 262.46C216.848 262.54 217.081 262.58 217.337 262.58C217.53 262.58 217.706 262.565 217.865 262.537C218.03 262.509 218.155 262.483 218.24 262.46L218.76 264.872C218.595 264.929 218.36 264.991 218.053 265.06C217.752 265.128 217.382 265.168 216.945 265.179C216.172 265.202 215.476 265.085 214.857 264.83C214.237 264.568 213.746 264.165 213.382 263.619C213.024 263.074 212.848 262.392 212.854 261.574V248.773ZM226.549 265.264C225.719 265.264 224.972 265.116 224.307 264.821C223.648 264.52 223.126 264.077 222.739 263.491C222.358 262.906 222.168 262.185 222.168 261.327C222.168 260.588 222.305 259.977 222.577 259.494C222.85 259.011 223.222 258.625 223.694 258.335C224.165 258.045 224.697 257.827 225.287 257.679C225.884 257.526 226.501 257.415 227.137 257.347C227.904 257.267 228.526 257.196 229.003 257.134C229.481 257.065 229.827 256.963 230.043 256.827C230.265 256.685 230.376 256.466 230.376 256.17V256.119C230.376 255.477 230.185 254.98 229.805 254.628C229.424 254.276 228.876 254.099 228.16 254.099C227.404 254.099 226.805 254.264 226.361 254.594C225.924 254.923 225.628 255.312 225.475 255.761L222.594 255.352C222.822 254.557 223.197 253.892 223.719 253.358C224.242 252.818 224.881 252.415 225.637 252.148C226.393 251.875 227.228 251.739 228.143 251.739C228.773 251.739 229.401 251.812 230.026 251.96C230.651 252.108 231.222 252.352 231.739 252.693C232.256 253.028 232.671 253.486 232.983 254.065C233.302 254.645 233.461 255.369 233.461 256.239V265H230.495V263.202H230.393C230.205 263.565 229.941 263.906 229.6 264.224C229.265 264.537 228.841 264.79 228.33 264.983C227.824 265.17 227.231 265.264 226.549 265.264ZM227.35 262.997C227.969 262.997 228.506 262.875 228.961 262.631C229.415 262.381 229.765 262.051 230.009 261.642C230.259 261.233 230.384 260.787 230.384 260.304V258.761C230.287 258.841 230.123 258.915 229.89 258.983C229.662 259.051 229.407 259.111 229.123 259.162C228.839 259.213 228.557 259.259 228.279 259.298C228.001 259.338 227.759 259.372 227.555 259.401C227.094 259.463 226.682 259.565 226.319 259.707C225.955 259.849 225.668 260.048 225.458 260.304C225.248 260.554 225.143 260.878 225.143 261.276C225.143 261.844 225.35 262.273 225.765 262.562C226.18 262.852 226.708 262.997 227.35 262.997ZM238.243 265V251.909H241.328V265H238.243ZM239.794 250.051C239.306 250.051 238.885 249.889 238.533 249.565C238.181 249.236 238.004 248.841 238.004 248.381C238.004 247.915 238.181 247.52 238.533 247.196C238.885 246.866 239.306 246.702 239.794 246.702C240.288 246.702 240.709 246.866 241.056 247.196C241.408 247.52 241.584 247.915 241.584 248.381C241.584 248.841 241.408 249.236 241.056 249.565C240.709 249.889 240.288 250.051 239.794 250.051ZM249.266 257.33V265H246.181V251.909H249.13V254.134H249.283C249.584 253.401 250.064 252.818 250.723 252.386C251.388 251.955 252.209 251.739 253.187 251.739C254.09 251.739 254.877 251.932 255.547 252.318C256.223 252.705 256.746 253.264 257.116 253.997C257.491 254.73 257.675 255.619 257.669 256.665V265H254.584V257.142C254.584 256.267 254.357 255.582 253.902 255.088C253.454 254.594 252.831 254.347 252.036 254.347C251.496 254.347 251.016 254.466 250.596 254.705C250.181 254.937 249.854 255.276 249.616 255.719C249.383 256.162 249.266 256.699 249.266 257.33ZM266.253 265.264C265.423 265.264 264.676 265.116 264.011 264.821C263.352 264.52 262.83 264.077 262.443 263.491C262.063 262.906 261.872 262.185 261.872 261.327C261.872 260.588 262.009 259.977 262.281 259.494C262.554 259.011 262.926 258.625 263.398 258.335C263.869 258.045 264.401 257.827 264.992 257.679C265.588 257.526 266.205 257.415 266.841 257.347C267.608 257.267 268.23 257.196 268.707 257.134C269.185 257.065 269.531 256.963 269.747 256.827C269.969 256.685 270.08 256.466 270.08 256.17V256.119C270.08 255.477 269.889 254.98 269.509 254.628C269.128 254.276 268.58 254.099 267.864 254.099C267.108 254.099 266.509 254.264 266.065 254.594C265.628 254.923 265.332 255.312 265.179 255.761L262.298 255.352C262.526 254.557 262.901 253.892 263.423 253.358C263.946 252.818 264.585 252.415 265.341 252.148C266.097 251.875 266.932 251.739 267.847 251.739C268.477 251.739 269.105 251.812 269.73 251.96C270.355 252.108 270.926 252.352 271.443 252.693C271.96 253.028 272.375 253.486 272.688 254.065C273.006 254.645 273.165 255.369 273.165 256.239V265H270.199V263.202H270.097C269.909 263.565 269.645 263.906 269.304 264.224C268.969 264.537 268.546 264.79 268.034 264.983C267.528 265.17 266.935 265.264 266.253 265.264ZM267.054 262.997C267.673 262.997 268.21 262.875 268.665 262.631C269.119 262.381 269.469 262.051 269.713 261.642C269.963 261.233 270.088 260.787 270.088 260.304V258.761C269.992 258.841 269.827 258.915 269.594 258.983C269.367 259.051 269.111 259.111 268.827 259.162C268.543 259.213 268.261 259.259 267.983 259.298C267.705 259.338 267.463 259.372 267.259 259.401C266.798 259.463 266.386 259.565 266.023 259.707C265.659 259.849 265.372 260.048 265.162 260.304C264.952 260.554 264.847 260.878 264.847 261.276C264.847 261.844 265.054 262.273 265.469 262.562C265.884 262.852 266.412 262.997 267.054 262.997ZM278.083 265V247.545H281.169V254.074H281.297C281.456 253.756 281.68 253.418 281.97 253.06C282.26 252.696 282.652 252.386 283.146 252.131C283.64 251.869 284.271 251.739 285.038 251.739C286.049 251.739 286.961 251.997 287.774 252.514C288.592 253.026 289.24 253.784 289.717 254.79C290.2 255.79 290.441 257.017 290.441 258.472C290.441 259.909 290.206 261.131 289.734 262.136C289.262 263.142 288.62 263.909 287.808 264.438C286.995 264.966 286.075 265.23 285.047 265.23C284.297 265.23 283.674 265.105 283.18 264.855C282.686 264.605 282.288 264.304 281.987 263.952C281.691 263.594 281.461 263.256 281.297 262.938H281.118V265H278.083ZM281.109 258.455C281.109 259.301 281.228 260.043 281.467 260.679C281.711 261.315 282.061 261.812 282.515 262.17C282.976 262.523 283.532 262.699 284.186 262.699C284.868 262.699 285.439 262.517 285.899 262.153C286.359 261.784 286.706 261.281 286.939 260.645C287.177 260.003 287.297 259.273 287.297 258.455C287.297 257.642 287.18 256.92 286.947 256.29C286.714 255.659 286.368 255.165 285.907 254.807C285.447 254.449 284.873 254.27 284.186 254.27C283.527 254.27 282.967 254.443 282.507 254.79C282.047 255.136 281.697 255.622 281.458 256.247C281.226 256.872 281.109 257.608 281.109 258.455ZM297.83 247.545V265H294.744V247.545H297.83ZM308.478 265.256C307.165 265.256 306.032 264.983 305.077 264.438C304.128 263.886 303.398 263.108 302.887 262.102C302.375 261.091 302.12 259.901 302.12 258.531C302.12 257.185 302.375 256.003 302.887 254.986C303.404 253.963 304.125 253.168 305.051 252.599C305.978 252.026 307.066 251.739 308.316 251.739C309.122 251.739 309.884 251.869 310.6 252.131C311.321 252.386 311.958 252.784 312.509 253.324C313.066 253.864 313.503 254.551 313.821 255.386C314.139 256.216 314.299 257.205 314.299 258.352V259.298H303.568V257.219H311.341C311.336 256.628 311.208 256.102 310.958 255.642C310.708 255.176 310.358 254.81 309.909 254.543C309.466 254.276 308.949 254.142 308.358 254.142C307.728 254.142 307.174 254.295 306.696 254.602C306.219 254.903 305.847 255.301 305.58 255.795C305.318 256.284 305.185 256.821 305.179 257.406V259.222C305.179 259.983 305.318 260.636 305.597 261.182C305.875 261.722 306.264 262.136 306.764 262.426C307.264 262.71 307.85 262.852 308.52 262.852C308.969 262.852 309.375 262.79 309.739 262.665C310.103 262.534 310.418 262.344 310.685 262.094C310.952 261.844 311.154 261.534 311.29 261.165L314.171 261.489C313.989 262.25 313.642 262.915 313.131 263.483C312.625 264.045 311.978 264.483 311.188 264.795C310.398 265.102 309.495 265.256 308.478 265.256ZM163.585 294V280.909H166.534V283.134H166.688C166.96 282.384 167.412 281.798 168.043 281.378C168.673 280.952 169.426 280.739 170.301 280.739C171.188 280.739 171.935 280.955 172.543 281.386C173.156 281.812 173.588 282.395 173.838 283.134H173.974C174.264 282.406 174.753 281.827 175.44 281.395C176.134 280.957 176.955 280.739 177.903 280.739C179.108 280.739 180.091 281.119 180.852 281.881C181.614 282.642 181.994 283.753 181.994 285.213V294H178.901V285.69C178.901 284.878 178.685 284.284 178.253 283.909C177.821 283.528 177.293 283.338 176.668 283.338C175.923 283.338 175.341 283.571 174.92 284.037C174.506 284.497 174.298 285.097 174.298 285.835V294H171.273V285.562C171.273 284.886 171.068 284.347 170.659 283.943C170.256 283.54 169.727 283.338 169.074 283.338C168.631 283.338 168.227 283.452 167.864 283.679C167.5 283.901 167.21 284.216 166.994 284.625C166.778 285.028 166.67 285.5 166.67 286.04V294H163.585ZM190.571 294.264C189.742 294.264 188.995 294.116 188.33 293.821C187.671 293.52 187.148 293.077 186.762 292.491C186.381 291.906 186.191 291.185 186.191 290.327C186.191 289.588 186.327 288.977 186.6 288.494C186.872 288.011 187.245 287.625 187.716 287.335C188.188 287.045 188.719 286.827 189.31 286.679C189.907 286.526 190.523 286.415 191.159 286.347C191.926 286.267 192.549 286.196 193.026 286.134C193.503 286.065 193.85 285.963 194.066 285.827C194.287 285.685 194.398 285.466 194.398 285.17V285.119C194.398 284.477 194.208 283.98 193.827 283.628C193.446 283.276 192.898 283.099 192.182 283.099C191.426 283.099 190.827 283.264 190.384 283.594C189.946 283.923 189.651 284.312 189.497 284.761L186.617 284.352C186.844 283.557 187.219 282.892 187.742 282.358C188.265 281.818 188.904 281.415 189.659 281.148C190.415 280.875 191.25 280.739 192.165 280.739C192.796 280.739 193.424 280.812 194.049 280.96C194.674 281.108 195.245 281.352 195.762 281.693C196.279 282.028 196.693 282.486 197.006 283.065C197.324 283.645 197.483 284.369 197.483 285.239V294H194.517V292.202H194.415C194.228 292.565 193.963 292.906 193.622 293.224C193.287 293.537 192.864 293.79 192.353 293.983C191.847 294.17 191.253 294.264 190.571 294.264ZM191.372 291.997C191.992 291.997 192.529 291.875 192.983 291.631C193.438 291.381 193.787 291.051 194.032 290.642C194.282 290.233 194.407 289.787 194.407 289.304V287.761C194.31 287.841 194.145 287.915 193.912 287.983C193.685 288.051 193.429 288.111 193.145 288.162C192.861 288.213 192.58 288.259 192.301 288.298C192.023 288.338 191.782 288.372 191.577 288.401C191.117 288.463 190.705 288.565 190.341 288.707C189.978 288.849 189.691 289.048 189.48 289.304C189.27 289.554 189.165 289.878 189.165 290.276C189.165 290.844 189.372 291.273 189.787 291.562C190.202 291.852 190.73 291.997 191.372 291.997ZM205.351 286.33V294H202.266V280.909H205.214V283.134H205.368C205.669 282.401 206.149 281.818 206.808 281.386C207.473 280.955 208.294 280.739 209.271 280.739C210.175 280.739 210.962 280.932 211.632 281.318C212.308 281.705 212.831 282.264 213.2 282.997C213.575 283.73 213.76 284.619 213.754 285.665V294H210.669V286.142C210.669 285.267 210.442 284.582 209.987 284.088C209.538 283.594 208.916 283.347 208.121 283.347C207.581 283.347 207.101 283.466 206.68 283.705C206.266 283.937 205.939 284.276 205.7 284.719C205.467 285.162 205.351 285.699 205.351 286.33ZM226.914 288.494V280.909H230V294H227.008V291.673H226.872C226.576 292.406 226.09 293.006 225.414 293.472C224.744 293.937 223.917 294.17 222.934 294.17C222.076 294.17 221.318 293.98 220.659 293.599C220.005 293.213 219.494 292.653 219.125 291.92C218.755 291.182 218.571 290.29 218.571 289.244V280.909H221.656V288.767C221.656 289.597 221.883 290.256 222.338 290.744C222.792 291.233 223.389 291.477 224.127 291.477C224.582 291.477 225.022 291.366 225.448 291.145C225.875 290.923 226.224 290.594 226.497 290.156C226.775 289.713 226.914 289.159 226.914 288.494ZM241.483 280.909V283.295H233.744V280.909H241.483ZM235.679 294V279.673C235.679 278.793 235.861 278.06 236.224 277.474C236.594 276.889 237.088 276.452 237.707 276.162C238.327 275.872 239.014 275.727 239.77 275.727C240.304 275.727 240.778 275.77 241.193 275.855C241.608 275.94 241.915 276.017 242.113 276.085L241.5 278.472C241.369 278.432 241.204 278.392 241.006 278.352C240.807 278.307 240.585 278.284 240.341 278.284C239.767 278.284 239.361 278.423 239.122 278.702C238.889 278.974 238.773 279.366 238.773 279.878V294H235.679ZM248.901 294.264C248.071 294.264 247.324 294.116 246.659 293.821C246 293.52 245.477 293.077 245.091 292.491C244.71 291.906 244.52 291.185 244.52 290.327C244.52 289.588 244.656 288.977 244.929 288.494C245.202 288.011 245.574 287.625 246.046 287.335C246.517 287.045 247.048 286.827 247.639 286.679C248.236 286.526 248.852 286.415 249.489 286.347C250.256 286.267 250.878 286.196 251.355 286.134C251.833 286.065 252.179 285.963 252.395 285.827C252.617 285.685 252.727 285.466 252.727 285.17V285.119C252.727 284.477 252.537 283.98 252.156 283.628C251.776 283.276 251.227 283.099 250.512 283.099C249.756 283.099 249.156 283.264 248.713 283.594C248.276 283.923 247.98 284.312 247.827 284.761L244.946 284.352C245.173 283.557 245.548 282.892 246.071 282.358C246.594 281.818 247.233 281.415 247.989 281.148C248.744 280.875 249.58 280.739 250.494 280.739C251.125 280.739 251.753 280.812 252.378 280.96C253.003 281.108 253.574 281.352 254.091 281.693C254.608 282.028 255.023 282.486 255.335 283.065C255.654 283.645 255.813 284.369 255.813 285.239V294H252.847V292.202H252.744C252.557 292.565 252.293 292.906 251.952 293.224C251.617 293.537 251.193 293.79 250.682 293.983C250.176 294.17 249.583 294.264 248.901 294.264ZM249.702 291.997C250.321 291.997 250.858 291.875 251.313 291.631C251.767 291.381 252.117 291.051 252.361 290.642C252.611 290.233 252.736 289.787 252.736 289.304V287.761C252.639 287.841 252.475 287.915 252.242 287.983C252.014 288.051 251.759 288.111 251.475 288.162C251.19 288.213 250.909 288.259 250.631 288.298C250.352 288.338 250.111 288.372 249.906 288.401C249.446 288.463 249.034 288.565 248.671 288.707C248.307 288.849 248.02 289.048 247.81 289.304C247.6 289.554 247.494 289.878 247.494 290.276C247.494 290.844 247.702 291.273 248.117 291.562C248.531 291.852 249.06 291.997 249.702 291.997ZM266.305 294.256C264.998 294.256 263.876 293.969 262.939 293.395C262.007 292.821 261.288 292.028 260.782 291.017C260.282 290 260.032 288.83 260.032 287.506C260.032 286.176 260.288 285.003 260.799 283.986C261.311 282.963 262.032 282.168 262.964 281.599C263.902 281.026 265.01 280.739 266.288 280.739C267.351 280.739 268.291 280.935 269.109 281.327C269.933 281.713 270.589 282.261 271.078 282.972C271.567 283.676 271.845 284.5 271.913 285.443H268.964C268.845 284.812 268.561 284.287 268.112 283.866C267.669 283.44 267.075 283.227 266.331 283.227C265.7 283.227 265.146 283.398 264.669 283.739C264.192 284.074 263.819 284.557 263.552 285.188C263.291 285.818 263.16 286.574 263.16 287.455C263.16 288.347 263.291 289.114 263.552 289.756C263.814 290.392 264.18 290.884 264.652 291.23C265.129 291.571 265.689 291.741 266.331 291.741C266.785 291.741 267.192 291.656 267.549 291.486C267.913 291.31 268.217 291.057 268.461 290.727C268.706 290.398 268.873 289.997 268.964 289.526H271.913C271.839 290.452 271.567 291.273 271.095 291.989C270.623 292.699 269.981 293.256 269.169 293.659C268.356 294.057 267.402 294.256 266.305 294.256ZM282.663 280.909V283.295H275.138V280.909H282.663ZM276.996 277.773H280.081V290.062C280.081 290.477 280.144 290.795 280.269 291.017C280.399 291.233 280.57 291.381 280.78 291.46C280.99 291.54 281.223 291.58 281.479 291.58C281.672 291.58 281.848 291.565 282.007 291.537C282.172 291.509 282.297 291.483 282.382 291.46L282.902 293.872C282.737 293.929 282.501 293.991 282.195 294.06C281.894 294.128 281.524 294.168 281.087 294.179C280.314 294.202 279.618 294.085 278.999 293.83C278.379 293.568 277.888 293.165 277.524 292.619C277.166 292.074 276.99 291.392 276.996 290.574V277.773ZM295.267 288.494V280.909H298.353V294H295.361V291.673H295.225C294.929 292.406 294.444 293.006 293.767 293.472C293.097 293.937 292.27 294.17 291.287 294.17C290.429 294.17 289.671 293.98 289.012 293.599C288.358 293.213 287.847 292.653 287.478 291.92C287.108 291.182 286.924 290.29 286.924 289.244V280.909H290.009V288.767C290.009 289.597 290.236 290.256 290.691 290.744C291.145 291.233 291.742 291.477 292.48 291.477C292.935 291.477 293.375 291.366 293.802 291.145C294.228 290.923 294.577 290.594 294.85 290.156C295.128 289.713 295.267 289.159 295.267 288.494ZM303.205 294V280.909H306.197V283.091H306.333C306.572 282.335 306.981 281.753 307.56 281.344C308.146 280.929 308.813 280.722 309.563 280.722C309.734 280.722 309.924 280.73 310.134 280.747C310.35 280.759 310.529 280.778 310.671 280.807V283.645C310.54 283.599 310.333 283.56 310.049 283.526C309.771 283.486 309.501 283.466 309.239 283.466C308.677 283.466 308.171 283.588 307.722 283.832C307.279 284.071 306.93 284.403 306.674 284.83C306.418 285.256 306.29 285.747 306.29 286.304V294H303.205ZM314.401 294V280.909H317.486V294H314.401ZM315.952 279.051C315.463 279.051 315.043 278.889 314.691 278.565C314.338 278.236 314.162 277.841 314.162 277.381C314.162 276.915 314.338 276.52 314.691 276.196C315.043 275.866 315.463 275.702 315.952 275.702C316.446 275.702 316.867 275.866 317.213 276.196C317.566 276.52 317.742 276.915 317.742 277.381C317.742 277.841 317.566 278.236 317.213 278.565C316.867 278.889 316.446 279.051 315.952 279.051ZM325.424 286.33V294H322.339V280.909H325.288V283.134H325.441C325.742 282.401 326.222 281.818 326.881 281.386C327.546 280.955 328.367 280.739 329.344 280.739C330.248 280.739 331.035 280.932 331.705 281.318C332.381 281.705 332.904 282.264 333.273 282.997C333.648 283.73 333.833 284.619 333.827 285.665V294H330.742V286.142C330.742 285.267 330.515 284.582 330.06 284.088C329.611 283.594 328.989 283.347 328.194 283.347C327.654 283.347 327.174 283.466 326.753 283.705C326.339 283.937 326.012 284.276 325.773 284.719C325.54 285.162 325.424 285.699 325.424 286.33ZM344.337 299.182C343.229 299.182 342.277 299.031 341.482 298.73C340.686 298.435 340.047 298.037 339.564 297.537C339.081 297.037 338.746 296.483 338.558 295.875L341.337 295.202C341.462 295.457 341.644 295.71 341.882 295.96C342.121 296.216 342.442 296.426 342.845 296.591C343.254 296.761 343.769 296.847 344.388 296.847C345.263 296.847 345.987 296.634 346.561 296.207C347.135 295.787 347.422 295.094 347.422 294.128V291.648H347.269C347.11 291.966 346.877 292.293 346.57 292.628C346.269 292.963 345.868 293.244 345.368 293.472C344.874 293.699 344.252 293.812 343.502 293.812C342.496 293.812 341.584 293.577 340.766 293.105C339.953 292.628 339.306 291.918 338.823 290.974C338.345 290.026 338.107 288.838 338.107 287.412C338.107 285.974 338.345 284.761 338.823 283.773C339.306 282.778 339.956 282.026 340.774 281.514C341.593 280.997 342.504 280.739 343.51 280.739C344.277 280.739 344.908 280.869 345.402 281.131C345.902 281.386 346.3 281.696 346.595 282.06C346.891 282.418 347.115 282.756 347.269 283.074H347.439V280.909H350.482V294.213C350.482 295.332 350.215 296.259 349.681 296.991C349.147 297.724 348.416 298.273 347.49 298.636C346.564 299 345.513 299.182 344.337 299.182ZM344.362 291.392C345.016 291.392 345.573 291.233 346.033 290.915C346.493 290.597 346.843 290.139 347.081 289.543C347.32 288.946 347.439 288.23 347.439 287.395C347.439 286.571 347.32 285.849 347.081 285.23C346.848 284.611 346.502 284.131 346.041 283.79C345.587 283.443 345.027 283.27 344.362 283.27C343.675 283.27 343.101 283.449 342.641 283.807C342.181 284.165 341.834 284.656 341.601 285.281C341.368 285.901 341.252 286.605 341.252 287.395C341.252 288.196 341.368 288.898 341.601 289.5C341.84 290.097 342.189 290.562 342.649 290.898C343.115 291.227 343.686 291.392 344.362 291.392Z" fill="#021126"/>
</g>
<defs>
<filter id="filter0_d_318_24" x="0" y="0" width="460" height="488" filterUnits="userSpaceOnUse" color-interpolation-filters="sRGB">
<feFlood flood-opacity="0" result="BackgroundImageFix"/>
<feColorMatrix in="SourceAlpha" type="matrix" values="0 0 0 0 0 0 0 0 0 0 0 0 0 0 0 0 0 0 127 0" result="hardAlpha"/>
<feOffset dx="-8" dy="8"/>
<feGaussianBlur stdDeviation="15"/>
<feComposite in2="hardAlpha" operator="out"/>
<feColorMatrix type="matrix" values="0 0 0 0 0 0 0 0 0 0 0 0 0 0 0 0 0 0 0.25 0"/>
<feBlend mode="normal" in2="BackgroundImageFix" result="effect1_dropShadow_318_24"/>
<feBlend mode="normal" in="SourceGraphic" in2="effect1_dropShadow_318_24" result="shape"/>
</filter>
</defs>
</svg>
