<svg width="344" height="344" viewBox="0 0 344 344" fill="none" xmlns="http://www.w3.org/2000/svg">
<g filter="url(#filter0_d_286_48)">
<rect x="40" y="24" width="280" height="280" fill="white"/>
</g>
<path d="M92.017 139.091V174H84.6364V146.097H84.4318L76.4375 151.108V144.562L85.0795 139.091H92.017ZM113.337 174.477C110.712 174.477 108.376 174.051 106.331 173.199C104.297 172.335 102.7 171.159 101.541 169.67C100.382 168.182 99.8026 166.494 99.8026 164.608C99.8026 163.153 100.132 161.818 100.791 160.602C101.462 159.375 102.371 158.358 103.518 157.551C104.666 156.733 105.95 156.21 107.371 155.983V155.744C105.507 155.369 103.996 154.466 102.837 153.034C101.678 151.591 101.098 149.915 101.098 148.006C101.098 146.199 101.626 144.591 102.683 143.182C103.74 141.761 105.189 140.648 107.03 139.841C108.882 139.023 110.984 138.614 113.337 138.614C115.689 138.614 117.786 139.023 119.626 139.841C121.479 140.659 122.933 141.778 123.99 143.199C125.047 144.608 125.581 146.21 125.592 148.006C125.581 149.926 124.99 151.602 123.82 153.034C122.649 154.466 121.149 155.369 119.32 155.744V155.983C120.717 156.21 121.984 156.733 123.121 157.551C124.268 158.358 125.178 159.375 125.848 160.602C126.53 161.818 126.876 163.153 126.888 164.608C126.876 166.494 126.291 168.182 125.132 169.67C123.973 171.159 122.371 172.335 120.325 173.199C118.291 174.051 115.962 174.477 113.337 174.477ZM113.337 169.057C114.507 169.057 115.53 168.847 116.405 168.426C117.28 167.994 117.962 167.403 118.45 166.653C118.95 165.892 119.2 165.017 119.2 164.028C119.2 163.017 118.945 162.125 118.433 161.352C117.922 160.568 117.229 159.955 116.354 159.511C115.479 159.057 114.473 158.83 113.337 158.83C112.212 158.83 111.206 159.057 110.32 159.511C109.433 159.955 108.734 160.568 108.223 161.352C107.723 162.125 107.473 163.017 107.473 164.028C107.473 165.017 107.717 165.892 108.206 166.653C108.695 167.403 109.382 167.994 110.268 168.426C111.155 168.847 112.178 169.057 113.337 169.057ZM113.337 153.46C114.314 153.46 115.183 153.261 115.945 152.864C116.706 152.466 117.303 151.915 117.734 151.21C118.166 150.506 118.382 149.693 118.382 148.773C118.382 147.864 118.166 147.068 117.734 146.386C117.303 145.693 116.712 145.153 115.962 144.767C115.212 144.369 114.337 144.17 113.337 144.17C112.348 144.17 111.473 144.369 110.712 144.767C109.95 145.153 109.354 145.693 108.922 146.386C108.501 147.068 108.291 147.864 108.291 148.773C108.291 149.693 108.507 150.506 108.939 151.21C109.371 151.915 109.967 152.466 110.729 152.864C111.49 153.261 112.359 153.46 113.337 153.46ZM147.709 183.818C146.788 183.818 145.925 183.744 145.118 183.597C144.322 183.46 143.663 183.284 143.141 183.068L144.777 177.648C145.629 177.909 146.396 178.051 147.078 178.074C147.771 178.097 148.368 177.938 148.868 177.597C149.379 177.256 149.794 176.676 150.112 175.858L150.538 174.75L141.146 147.818H148.783L154.203 167.045H154.476L159.947 147.818H167.635L157.459 176.83C156.97 178.239 156.305 179.466 155.464 180.511C154.635 181.568 153.584 182.381 152.311 182.949C151.038 183.528 149.504 183.818 147.709 183.818ZM171.351 174V147.818H178.391V152.386H178.663C179.141 150.761 179.942 149.534 181.067 148.705C182.192 147.864 183.487 147.443 184.953 147.443C185.317 147.443 185.709 147.466 186.129 147.511C186.55 147.557 186.919 147.619 187.237 147.699V154.142C186.896 154.04 186.425 153.949 185.822 153.869C185.22 153.79 184.669 153.75 184.169 153.75C183.101 153.75 182.146 153.983 181.305 154.449C180.476 154.903 179.817 155.54 179.328 156.358C178.851 157.176 178.612 158.119 178.612 159.188V174H171.351ZM212.776 155.284L206.128 155.693C206.014 155.125 205.77 154.614 205.395 154.159C205.02 153.693 204.526 153.324 203.912 153.051C203.31 152.767 202.588 152.625 201.747 152.625C200.622 152.625 199.673 152.864 198.901 153.341C198.128 153.807 197.741 154.432 197.741 155.216C197.741 155.841 197.991 156.369 198.491 156.801C198.991 157.233 199.849 157.58 201.065 157.841L205.804 158.795C208.349 159.318 210.247 160.159 211.497 161.318C212.747 162.477 213.372 164 213.372 165.886C213.372 167.602 212.866 169.108 211.855 170.403C210.855 171.699 209.48 172.71 207.73 173.438C205.991 174.153 203.986 174.511 201.713 174.511C198.247 174.511 195.486 173.79 193.429 172.347C191.384 170.892 190.185 168.915 189.832 166.415L196.974 166.04C197.19 167.097 197.713 167.903 198.543 168.46C199.372 169.006 200.435 169.278 201.73 169.278C203.003 169.278 204.026 169.034 204.798 168.545C205.582 168.045 205.98 167.403 205.991 166.619C205.98 165.96 205.702 165.42 205.156 165C204.611 164.568 203.77 164.239 202.634 164.011L198.099 163.108C195.543 162.597 193.639 161.71 192.389 160.449C191.151 159.187 190.531 157.58 190.531 155.625C190.531 153.943 190.986 152.494 191.895 151.278C192.815 150.062 194.105 149.125 195.764 148.466C197.435 147.807 199.389 147.477 201.628 147.477C204.935 147.477 207.537 148.176 209.435 149.574C211.344 150.972 212.457 152.875 212.776 155.284ZM239.418 172.108V147.972H245.52V172.108H239.418ZM230.401 163.091V156.989H254.537V163.091H230.401Z" fill="#021126"/>
<path d="M76.0085 219V198.636H83.6449C85.2093 198.636 86.5218 198.928 87.5824 199.511C88.6496 200.095 89.455 200.897 89.9986 201.918C90.5488 202.932 90.8239 204.085 90.8239 205.378C90.8239 206.684 90.5488 207.844 89.9986 208.858C89.4484 209.872 88.6364 210.671 87.5625 211.254C86.4886 211.831 85.1662 212.119 83.5952 212.119H78.5341V209.087H83.098C84.0128 209.087 84.7618 208.928 85.3452 208.609C85.9285 208.291 86.3594 207.854 86.6378 207.297C86.9228 206.74 87.0653 206.1 87.0653 205.378C87.0653 204.655 86.9228 204.019 86.6378 203.469C86.3594 202.919 85.9252 202.491 85.3352 202.186C84.7519 201.875 83.9995 201.719 83.0781 201.719H79.6974V219H76.0085ZM93.869 219V203.727H97.359V206.273H97.5181C97.7965 205.391 98.2738 204.712 98.9499 204.234C99.6327 203.75 100.412 203.509 101.287 203.509C101.485 203.509 101.708 203.518 101.953 203.538C102.205 203.552 102.413 203.575 102.579 203.608V206.919C102.427 206.866 102.185 206.82 101.853 206.78C101.529 206.733 101.214 206.71 100.909 206.71C100.252 206.71 99.6625 206.853 99.1388 207.138C98.6218 207.416 98.2141 207.804 97.9158 208.301C97.6175 208.798 97.4684 209.372 97.4684 210.021V219H93.869ZM111.004 219.298C109.512 219.298 108.219 218.97 107.126 218.314C106.032 217.658 105.183 216.74 104.58 215.56C103.984 214.38 103.685 213.001 103.685 211.423C103.685 209.846 103.984 208.464 104.58 207.277C105.183 206.09 106.032 205.169 107.126 204.513C108.219 203.857 109.512 203.528 111.004 203.528C112.495 203.528 113.788 203.857 114.881 204.513C115.975 205.169 116.82 206.09 117.417 207.277C118.02 208.464 118.322 209.846 118.322 211.423C118.322 213.001 118.02 214.38 117.417 215.56C116.82 216.74 115.975 217.658 114.881 218.314C113.788 218.97 112.495 219.298 111.004 219.298ZM111.023 216.415C111.832 216.415 112.508 216.193 113.052 215.749C113.595 215.298 114 214.695 114.265 213.939C114.537 213.183 114.673 212.341 114.673 211.413C114.673 210.479 114.537 209.634 114.265 208.878C114 208.116 113.595 207.509 113.052 207.058C112.508 206.607 111.832 206.382 111.023 206.382C110.195 206.382 109.505 206.607 108.955 207.058C108.412 207.509 108.004 208.116 107.732 208.878C107.467 209.634 107.335 210.479 107.335 211.413C107.335 212.341 107.467 213.183 107.732 213.939C108.004 214.695 108.412 215.298 108.955 215.749C109.505 216.193 110.195 216.415 111.023 216.415ZM129.113 203.727V206.511H120.084V203.727H129.113ZM122.341 219V202.286C122.341 201.258 122.553 200.403 122.978 199.72C123.408 199.037 123.985 198.527 124.708 198.189C125.43 197.851 126.232 197.682 127.114 197.682C127.737 197.682 128.291 197.732 128.775 197.831C129.258 197.93 129.616 198.02 129.848 198.099L129.132 200.884C128.98 200.837 128.788 200.791 128.556 200.744C128.324 200.691 128.065 200.665 127.78 200.665C127.111 200.665 126.637 200.827 126.358 201.152C126.087 201.47 125.951 201.928 125.951 202.524V219H122.341ZM138.119 219.298C136.587 219.298 135.265 218.98 134.151 218.344C133.044 217.701 132.192 216.793 131.596 215.619C130.999 214.439 130.701 213.051 130.701 211.453C130.701 209.882 130.999 208.503 131.596 207.317C132.199 206.124 133.041 205.196 134.121 204.533C135.202 203.863 136.471 203.528 137.93 203.528C138.871 203.528 139.759 203.681 140.594 203.986C141.436 204.284 142.179 204.748 142.822 205.378C143.471 206.008 143.982 206.81 144.353 207.784C144.724 208.752 144.91 209.905 144.91 211.244V212.348H132.391V209.922H141.46C141.453 209.232 141.304 208.619 141.012 208.082C140.72 207.539 140.313 207.111 139.789 206.8C139.272 206.488 138.669 206.332 137.979 206.332C137.244 206.332 136.597 206.511 136.04 206.869C135.484 207.221 135.049 207.685 134.738 208.261C134.433 208.831 134.277 209.458 134.271 210.141V212.259C134.271 213.147 134.433 213.909 134.758 214.545C135.083 215.175 135.537 215.659 136.12 215.997C136.703 216.329 137.386 216.494 138.168 216.494C138.692 216.494 139.166 216.421 139.59 216.276C140.014 216.123 140.382 215.901 140.694 215.609C141.005 215.318 141.241 214.956 141.4 214.526L144.761 214.903C144.549 215.792 144.144 216.567 143.548 217.23C142.958 217.886 142.202 218.397 141.281 218.761C140.359 219.119 139.305 219.298 138.119 219.298ZM160.026 207.764L156.745 208.122C156.652 207.791 156.489 207.479 156.257 207.188C156.032 206.896 155.727 206.661 155.343 206.482C154.958 206.303 154.488 206.213 153.931 206.213C153.182 206.213 152.552 206.375 152.042 206.7C151.538 207.025 151.289 207.446 151.296 207.963C151.289 208.407 151.452 208.768 151.783 209.047C152.121 209.325 152.678 209.554 153.453 209.733L156.059 210.29C157.504 210.601 158.578 211.095 159.28 211.771C159.989 212.447 160.347 213.332 160.354 214.426C160.347 215.387 160.066 216.236 159.509 216.972C158.959 217.701 158.193 218.271 157.212 218.682C156.231 219.093 155.104 219.298 153.831 219.298C151.962 219.298 150.457 218.907 149.317 218.125C148.177 217.336 147.498 216.239 147.279 214.834L150.789 214.496C150.948 215.185 151.286 215.705 151.803 216.057C152.32 216.408 152.993 216.584 153.821 216.584C154.676 216.584 155.363 216.408 155.88 216.057C156.403 215.705 156.665 215.271 156.665 214.754C156.665 214.317 156.496 213.955 156.158 213.67C155.827 213.385 155.31 213.167 154.607 213.014L152.002 212.467C150.537 212.162 149.453 211.649 148.75 210.926C148.048 210.197 147.7 209.276 147.706 208.162C147.7 207.221 147.955 206.405 148.472 205.716C148.996 205.02 149.721 204.483 150.65 204.105C151.584 203.721 152.661 203.528 153.881 203.528C155.671 203.528 157.079 203.91 158.107 204.672C159.141 205.434 159.781 206.465 160.026 207.764ZM175.393 207.764L172.112 208.122C172.019 207.791 171.857 207.479 171.625 207.188C171.399 206.896 171.094 206.661 170.71 206.482C170.325 206.303 169.855 206.213 169.298 206.213C168.549 206.213 167.919 206.375 167.409 206.7C166.905 207.025 166.656 207.446 166.663 207.963C166.656 208.407 166.819 208.768 167.15 209.047C167.488 209.325 168.045 209.554 168.821 209.733L171.426 210.29C172.871 210.601 173.945 211.095 174.647 211.771C175.357 212.447 175.715 213.332 175.721 214.426C175.715 215.387 175.433 216.236 174.876 216.972C174.326 217.701 173.56 218.271 172.579 218.682C171.598 219.093 170.471 219.298 169.199 219.298C167.329 219.298 165.824 218.907 164.684 218.125C163.544 217.336 162.865 216.239 162.646 214.834L166.156 214.496C166.315 215.185 166.653 215.705 167.17 216.057C167.687 216.408 168.36 216.584 169.189 216.584C170.044 216.584 170.73 216.408 171.247 216.057C171.77 215.705 172.032 215.271 172.032 214.754C172.032 214.317 171.863 213.955 171.525 213.67C171.194 213.385 170.677 213.167 169.974 213.014L167.369 212.467C165.904 212.162 164.82 211.649 164.118 210.926C163.415 210.197 163.067 209.276 163.074 208.162C163.067 207.221 163.322 206.405 163.839 205.716C164.363 205.02 165.089 204.483 166.017 204.105C166.951 203.721 168.029 203.528 169.248 203.528C171.038 203.528 172.447 203.91 173.474 204.672C174.508 205.434 175.148 206.465 175.393 207.764ZM178.689 219V203.727H182.289V219H178.689ZM180.499 201.56C179.929 201.56 179.438 201.371 179.027 200.993C178.616 200.608 178.411 200.148 178.411 199.611C178.411 199.067 178.616 198.607 179.027 198.229C179.438 197.844 179.929 197.652 180.499 197.652C181.076 197.652 181.566 197.844 181.971 198.229C182.382 198.607 182.587 199.067 182.587 199.611C182.587 200.148 182.382 200.608 181.971 200.993C181.566 201.371 181.076 201.56 180.499 201.56ZM192.652 219.298C191.161 219.298 189.868 218.97 188.774 218.314C187.68 217.658 186.832 216.74 186.229 215.56C185.632 214.38 185.334 213.001 185.334 211.423C185.334 209.846 185.632 208.464 186.229 207.277C186.832 206.09 187.68 205.169 188.774 204.513C189.868 203.857 191.161 203.528 192.652 203.528C194.143 203.528 195.436 203.857 196.53 204.513C197.624 205.169 198.469 206.09 199.065 207.277C199.669 208.464 199.97 209.846 199.97 211.423C199.97 213.001 199.669 214.38 199.065 215.56C198.469 216.74 197.624 217.658 196.53 218.314C195.436 218.97 194.143 219.298 192.652 219.298ZM192.672 216.415C193.481 216.415 194.157 216.193 194.7 215.749C195.244 215.298 195.648 214.695 195.913 213.939C196.185 213.183 196.321 212.341 196.321 211.413C196.321 210.479 196.185 209.634 195.913 208.878C195.648 208.116 195.244 207.509 194.7 207.058C194.157 206.607 193.481 206.382 192.672 206.382C191.843 206.382 191.154 206.607 190.604 207.058C190.06 207.509 189.652 208.116 189.381 208.878C189.116 209.634 188.983 210.479 188.983 211.413C188.983 212.341 189.116 213.183 189.381 213.939C189.652 214.695 190.06 215.298 190.604 215.749C191.154 216.193 191.843 216.415 192.672 216.415ZM206.625 210.051V219H203.025V203.727H206.466V206.322H206.645C206.996 205.467 207.556 204.788 208.325 204.284C209.1 203.78 210.058 203.528 211.199 203.528C212.252 203.528 213.171 203.754 213.953 204.205C214.742 204.655 215.351 205.308 215.782 206.163C216.22 207.018 216.435 208.056 216.429 209.276V219H212.829V209.832C212.829 208.812 212.564 208.013 212.034 207.436C211.51 206.859 210.784 206.571 209.856 206.571C209.226 206.571 208.666 206.71 208.176 206.989C207.692 207.26 207.311 207.655 207.032 208.172C206.761 208.689 206.625 209.315 206.625 210.051ZM224.483 219.308C223.515 219.308 222.643 219.136 221.868 218.791C221.099 218.44 220.489 217.923 220.038 217.24C219.594 216.557 219.372 215.715 219.372 214.714C219.372 213.853 219.531 213.14 219.849 212.577C220.167 212.013 220.601 211.562 221.152 211.224C221.702 210.886 222.322 210.631 223.011 210.459C223.707 210.28 224.426 210.151 225.169 210.071C226.064 209.978 226.789 209.895 227.346 209.822C227.903 209.743 228.307 209.624 228.559 209.464C228.818 209.299 228.947 209.044 228.947 208.699V208.639C228.947 207.89 228.725 207.31 228.281 206.899C227.837 206.488 227.197 206.283 226.362 206.283C225.48 206.283 224.781 206.475 224.264 206.859C223.753 207.244 223.409 207.698 223.23 208.222L219.869 207.744C220.134 206.816 220.572 206.041 221.181 205.418C221.791 204.788 222.537 204.317 223.419 204.006C224.3 203.688 225.275 203.528 226.342 203.528C227.078 203.528 227.81 203.615 228.539 203.787C229.269 203.959 229.935 204.244 230.538 204.642C231.141 205.033 231.625 205.567 231.99 206.243C232.361 206.919 232.547 207.764 232.547 208.778V219H229.086V216.902H228.967C228.748 217.326 228.44 217.724 228.042 218.095C227.651 218.46 227.157 218.755 226.561 218.98C225.971 219.199 225.278 219.308 224.483 219.308ZM225.417 216.663C226.14 216.663 226.766 216.521 227.297 216.236C227.827 215.944 228.234 215.56 228.52 215.082C228.811 214.605 228.957 214.085 228.957 213.521V211.722C228.844 211.814 228.652 211.901 228.38 211.98C228.115 212.06 227.817 212.129 227.485 212.189C227.154 212.249 226.826 212.302 226.501 212.348C226.176 212.394 225.895 212.434 225.656 212.467C225.119 212.54 224.638 212.66 224.214 212.825C223.79 212.991 223.455 213.223 223.21 213.521C222.965 213.813 222.842 214.191 222.842 214.655C222.842 215.318 223.084 215.818 223.568 216.156C224.052 216.494 224.668 216.663 225.417 216.663ZM239.765 198.636V219H236.166V198.636H239.765ZM76.0085 253V232.636H89.2528V235.729H79.6974V241.257H88.5668V244.349H79.6974V249.908H89.3324V253H76.0085ZM95.8004 237.727L98.8828 243.365L102.015 237.727H105.823L101.219 245.364L105.903 253H102.114L98.8828 247.501L95.6811 253H91.8629L96.5163 245.364L91.9822 237.727H95.8004ZM108.607 258.727V237.727H112.147V240.253H112.356C112.541 239.882 112.803 239.487 113.141 239.07C113.479 238.645 113.937 238.284 114.513 237.986C115.09 237.681 115.826 237.528 116.721 237.528C117.901 237.528 118.965 237.83 119.913 238.433C120.867 239.03 121.623 239.915 122.18 241.088C122.743 242.255 123.025 243.687 123.025 245.384C123.025 247.061 122.75 248.486 122.2 249.659C121.649 250.832 120.9 251.727 119.952 252.344C119.004 252.96 117.931 253.268 116.731 253.268C115.856 253.268 115.13 253.123 114.553 252.831C113.977 252.539 113.513 252.188 113.161 251.777C112.817 251.359 112.548 250.965 112.356 250.594H112.207V258.727H108.607ZM112.137 245.364C112.137 246.351 112.276 247.216 112.555 247.959C112.84 248.701 113.247 249.281 113.778 249.699C114.315 250.11 114.964 250.315 115.727 250.315C116.522 250.315 117.188 250.103 117.725 249.679C118.262 249.248 118.666 248.661 118.938 247.919C119.217 247.17 119.356 246.318 119.356 245.364C119.356 244.416 119.22 243.574 118.948 242.838C118.676 242.102 118.272 241.526 117.735 241.108C117.198 240.69 116.529 240.482 115.727 240.482C114.958 240.482 114.305 240.684 113.768 241.088C113.231 241.492 112.823 242.059 112.545 242.788C112.273 243.518 112.137 244.376 112.137 245.364ZM132.869 253.298C131.337 253.298 130.015 252.98 128.901 252.344C127.794 251.701 126.942 250.793 126.346 249.619C125.749 248.439 125.451 247.051 125.451 245.453C125.451 243.882 125.749 242.503 126.346 241.317C126.949 240.124 127.791 239.196 128.871 238.533C129.952 237.863 131.221 237.528 132.68 237.528C133.621 237.528 134.509 237.681 135.344 237.986C136.186 238.284 136.929 238.748 137.572 239.378C138.221 240.008 138.732 240.81 139.103 241.784C139.474 242.752 139.66 243.905 139.66 245.244V246.348H127.141V243.922H136.21C136.203 243.232 136.054 242.619 135.762 242.082C135.47 241.539 135.063 241.111 134.539 240.8C134.022 240.488 133.419 240.332 132.729 240.332C131.994 240.332 131.347 240.511 130.79 240.869C130.234 241.221 129.799 241.685 129.488 242.261C129.183 242.831 129.027 243.458 129.021 244.141V246.259C129.021 247.147 129.183 247.909 129.508 248.545C129.833 249.175 130.287 249.659 130.87 249.997C131.453 250.329 132.136 250.494 132.918 250.494C133.442 250.494 133.916 250.421 134.34 250.276C134.764 250.123 135.132 249.901 135.444 249.609C135.755 249.318 135.991 248.956 136.15 248.526L139.511 248.903C139.299 249.792 138.894 250.567 138.298 251.23C137.708 251.886 136.952 252.397 136.031 252.761C135.109 253.119 134.055 253.298 132.869 253.298ZM142.705 253V237.727H146.195V240.273H146.354C146.632 239.391 147.11 238.712 147.786 238.234C148.469 237.75 149.248 237.509 150.123 237.509C150.321 237.509 150.543 237.518 150.789 237.538C151.041 237.552 151.249 237.575 151.415 237.608V240.919C151.263 240.866 151.021 240.82 150.689 240.78C150.364 240.733 150.05 240.71 149.745 240.71C149.088 240.71 148.498 240.853 147.975 241.138C147.458 241.416 147.05 241.804 146.752 242.301C146.453 242.798 146.304 243.372 146.304 244.021V253H142.705ZM153.806 253V237.727H157.406V253H153.806ZM155.616 235.56C155.046 235.56 154.556 235.371 154.145 234.993C153.734 234.608 153.528 234.148 153.528 233.611C153.528 233.067 153.734 232.607 154.145 232.229C154.556 231.844 155.046 231.652 155.616 231.652C156.193 231.652 156.683 231.844 157.088 232.229C157.499 232.607 157.704 233.067 157.704 233.611C157.704 234.148 157.499 234.608 157.088 234.993C156.683 235.371 156.193 235.56 155.616 235.56ZM167.869 253.298C166.337 253.298 165.015 252.98 163.901 252.344C162.794 251.701 161.942 250.793 161.346 249.619C160.749 248.439 160.451 247.051 160.451 245.453C160.451 243.882 160.749 242.503 161.346 241.317C161.949 240.124 162.791 239.196 163.871 238.533C164.952 237.863 166.221 237.528 167.68 237.528C168.621 237.528 169.509 237.681 170.344 237.986C171.186 238.284 171.929 238.748 172.572 239.378C173.221 240.008 173.732 240.81 174.103 241.784C174.474 242.752 174.66 243.905 174.66 245.244V246.348H162.141V243.922H171.21C171.203 243.232 171.054 242.619 170.762 242.082C170.47 241.539 170.063 241.111 169.539 240.8C169.022 240.488 168.419 240.332 167.729 240.332C166.994 240.332 166.347 240.511 165.79 240.869C165.234 241.221 164.799 241.685 164.488 242.261C164.183 242.831 164.027 243.458 164.021 244.141V246.259C164.021 247.147 164.183 247.909 164.508 248.545C164.833 249.175 165.287 249.659 165.87 249.997C166.453 250.329 167.136 250.494 167.918 250.494C168.442 250.494 168.916 250.421 169.34 250.276C169.764 250.123 170.132 249.901 170.444 249.609C170.755 249.318 170.991 248.956 171.15 248.526L174.511 248.903C174.299 249.792 173.894 250.567 173.298 251.23C172.708 251.886 171.952 252.397 171.031 252.761C170.109 253.119 169.055 253.298 167.869 253.298ZM181.304 244.051V253H177.705V237.727H181.145V240.322H181.324C181.676 239.467 182.236 238.788 183.005 238.284C183.78 237.78 184.738 237.528 185.878 237.528C186.932 237.528 187.85 237.754 188.632 238.205C189.421 238.655 190.031 239.308 190.462 240.163C190.9 241.018 191.115 242.056 191.108 243.276V253H187.509V243.832C187.509 242.812 187.244 242.013 186.713 241.436C186.19 240.859 185.464 240.571 184.536 240.571C183.906 240.571 183.346 240.71 182.855 240.989C182.372 241.26 181.99 241.655 181.712 242.172C181.44 242.689 181.304 243.315 181.304 244.051ZM201.429 253.298C199.905 253.298 198.596 252.964 197.502 252.294C196.415 251.625 195.576 250.7 194.986 249.52C194.403 248.333 194.111 246.968 194.111 245.423C194.111 243.872 194.409 242.503 195.006 241.317C195.603 240.124 196.444 239.196 197.532 238.533C198.625 237.863 199.918 237.528 201.409 237.528C202.649 237.528 203.746 237.757 204.701 238.214C205.662 238.665 206.427 239.305 206.998 240.134C207.568 240.955 207.892 241.917 207.972 243.017H204.532C204.392 242.281 204.061 241.668 203.537 241.178C203.02 240.68 202.328 240.432 201.459 240.432C200.723 240.432 200.077 240.631 199.52 241.028C198.963 241.42 198.529 241.983 198.218 242.719C197.913 243.455 197.76 244.336 197.76 245.364C197.76 246.404 197.913 247.299 198.218 248.048C198.523 248.791 198.95 249.364 199.5 249.768C200.057 250.166 200.71 250.365 201.459 250.365C201.989 250.365 202.463 250.266 202.881 250.067C203.305 249.861 203.66 249.566 203.945 249.182C204.23 248.797 204.426 248.33 204.532 247.78H207.972C207.886 248.86 207.568 249.818 207.017 250.653C206.467 251.482 205.718 252.132 204.77 252.602C203.822 253.066 202.709 253.298 201.429 253.298ZM217.689 253.298C216.158 253.298 214.835 252.98 213.722 252.344C212.615 251.701 211.763 250.793 211.166 249.619C210.57 248.439 210.271 247.051 210.271 245.453C210.271 243.882 210.57 242.503 211.166 241.317C211.769 240.124 212.611 239.196 213.692 238.533C214.772 237.863 216.042 237.528 217.5 237.528C218.441 237.528 219.33 237.681 220.165 237.986C221.007 238.284 221.749 238.748 222.392 239.378C223.042 240.008 223.552 240.81 223.923 241.784C224.295 242.752 224.48 243.905 224.48 245.244V246.348H211.962V243.922H221.03C221.023 243.232 220.874 242.619 220.582 242.082C220.291 241.539 219.883 241.111 219.359 240.8C218.842 240.488 218.239 240.332 217.55 240.332C216.814 240.332 216.168 240.511 215.611 240.869C215.054 241.221 214.62 241.685 214.308 242.261C214.003 242.831 213.848 243.458 213.841 244.141V246.259C213.841 247.147 214.003 247.909 214.328 248.545C214.653 249.175 215.107 249.659 215.69 249.997C216.274 250.329 216.956 250.494 217.739 250.494C218.262 250.494 218.736 250.421 219.161 250.276C219.585 250.123 219.953 249.901 220.264 249.609C220.576 249.318 220.811 248.956 220.97 248.526L224.331 248.903C224.119 249.792 223.714 250.567 223.118 251.23C222.528 251.886 221.772 252.397 220.851 252.761C219.929 253.119 218.875 253.298 217.689 253.298Z" fill="#021126"/>
<path d="M109 103.75H121.25V107.25H109V103.75ZM112.5 110.75H117.75V114.25H112.5V110.75ZM121.25 100.25H117.75C117.75 98.325 118.45 96.75 119.85 95.35L120.725 94.475C122.125 93.075 123 90.975 123 88.875C123 84.5 119.5 81 115.125 81C110.75 81 107.25 84.5 107.25 88.875C107.25 90.975 108.125 92.9 109.525 94.475L110.4 95.35C111.8 96.75 112.5 98.325 112.5 100.25H109C109 99.375 108.65 98.5 107.95 97.8L107.075 96.925C104.975 94.825 103.75 91.85 103.75 88.875C103.75 82.575 108.825 77.5 115.125 77.5C121.425 77.5 126.5 82.575 126.5 88.875C126.5 91.85 125.275 94.825 123.175 96.925L122.3 97.8C121.6 98.5 121.25 99.375 121.25 100.25ZM84.5 98.5H98.5V102H84.5V98.5Z" fill="#FAD100"/>
<path d="M95 95C95.9665 95 96.75 94.2165 96.75 93.25C96.75 92.2835 95.9665 91.5 95 91.5C94.0335 91.5 93.25 92.2835 93.25 93.25C93.25 94.2165 94.0335 95 95 95Z" fill="#FAD100"/>
<path d="M84.5 91.5H89.75V95H84.5V91.5ZM84.5 84.5H96.75V88H84.5V84.5ZM91.5 77.5H103.75V81H91.5V77.5Z" fill="#FAD100"/>
<path d="M86.25 81C87.2165 81 88 80.2165 88 79.25C88 78.2835 87.2165 77.5 86.25 77.5C85.2835 77.5 84.5 78.2835 84.5 79.25C84.5 80.2165 85.2835 81 86.25 81Z" fill="#FAD100"/>
<path d="M102 70.5H109V74H102V70.5Z" fill="#FAD100"/>
<path d="M96.75 74C97.7165 74 98.5 73.2165 98.5 72.25C98.5 71.2835 97.7165 70.5 96.75 70.5C95.7835 70.5 95 71.2835 95 72.25C95 73.2165 95.7835 74 96.75 74Z" fill="#FAD100"/>
<path d="M84.5 70.5H91.5V74H84.5V70.5Z" fill="#FAD100"/>
<path d="M105.5 109H81V67H112.5V74H116V67C116 65.075 114.425 63.5 112.5 63.5H81C79.075 63.5 77.5 65.075 77.5 67V109C77.5 110.925 79.075 112.5 81 112.5H105.5V109Z" fill="#FAD100"/>
<defs>
<filter id="filter0_d_286_48" x="0" y="0" width="344" height="344" filterUnits="userSpaceOnUse" color-interpolation-filters="sRGB">
<feFlood flood-opacity="0" result="BackgroundImageFix"/>
<feColorMatrix in="SourceAlpha" type="matrix" values="0 0 0 0 0 0 0 0 0 0 0 0 0 0 0 0 0 0 127 0" result="hardAlpha"/>
<feOffset dx="-8" dy="8"/>
<feGaussianBlur stdDeviation="16"/>
<feComposite in2="hardAlpha" operator="out"/>
<feColorMatrix type="matrix" values="0 0 0 0 0 0 0 0 0 0 0 0 0 0 0 0 0 0 0.25 0"/>
<feBlend mode="normal" in2="BackgroundImageFix" result="effect1_dropShadow_286_48"/>
<feBlend mode="normal" in="SourceGraphic" in2="effect1_dropShadow_286_48" result="shape"/>
</filter>
</defs>
</svg>
